<?xml version="1.0" encoding="UTF-8"?>
<svg version="1.1" xmlns="http://www.w3.org/2000/svg" width="1300" height="500">
<path d="M0 0 C0.86019556 0.00223072 1.72039112 0.00446144 2.60665321 0.00675976 C3.5133507 0.00519977 4.42004818 0.00363978 5.35422134 0.00203252 C8.41673431 -0.00198159 11.4791984 0.00121374 14.54171181 0.00434887 C16.7274014 0.00299502 18.91309075 0.00121517 21.09877968 -0.00096118 C27.05314882 -0.00553735 33.00750073 -0.00374521 38.96187019 -0.0005821 C45.17810044 0.00194056 51.39432916 -0.00039577 57.61055946 -0.00196826 C68.72159221 -0.00390711 79.83261813 -0.00078934 90.94364953 0.00429107 C101.02777315 0.00875911 111.11188527 0.00798318 121.19600868 0.00337231 C132.8928127 -0.0019734 144.58961 -0.00397432 156.2864151 -0.00101542 C162.48310943 0.00054778 168.67979582 0.00073992 174.87648964 -0.00255191 C180.70073935 -0.00542949 186.52496722 -0.00345703 192.34921455 0.00234234 C194.49349621 0.00367055 196.63777968 0.0032748 198.78206062 0.00107968 C201.69594749 -0.00162945 204.60976315 0.00174637 207.5236454 0.00675976 C208.38384096 0.00452904 209.24403652 0.00229832 210.13029861 0 C215.95099949 0.01959358 215.95099949 0.01959358 217.06514931 1.13374341 C218.62585752 12.30121696 218.42611727 23.83271163 218.67769814 35.08515942 C218.75336932 38.35233053 218.84378295 41.61890682 218.93428993 44.88569653 C218.98271989 46.96184752 219.03027847 49.03801906 219.07686806 51.11421216 C219.120457 52.57965718 219.120457 52.57965718 219.16492653 54.07470715 C219.18187065 54.97357144 219.19881477 55.87243573 219.21627235 56.79853833 C219.23546227 57.58983639 219.25465218 58.38113446 219.2744236 59.19641125 C219.06514931 61.13374341 219.06514931 61.13374341 217.06514931 63.13374341 C214.75264931 63.39936841 214.75264931 63.39936841 212.06514931 63.38374341 C210.73483681 63.39147778 210.73483681 63.39147778 209.37764931 63.39936841 C207.06514931 63.13374341 207.06514931 63.13374341 205.06514931 61.13374341 C204.49019814 59.20112622 204.49019814 59.20112622 204.02218056 56.83686841 C203.83929482 55.96683178 203.65640907 55.09679516 203.46798134 54.2003938 C203.27317177 53.27089917 203.0783622 52.34140454 202.87764931 51.38374341 C200.42979526 40.50923057 197.38614814 28.12999761 187.88936806 21.17280591 C181.83321183 17.72326081 175.37144522 16.00529887 168.40174294 16.01348889 C167.04096123 16.01142689 167.04096123 16.01142689 165.65268898 16.00932324 C164.17886002 16.01471615 164.17886002 16.01471615 162.67525673 16.02021801 C161.63089455 16.02007199 160.58653236 16.01992596 159.51052284 16.01977551 C156.06386667 16.02047132 152.61726477 16.02824822 149.17061806 16.03608716 C146.77879809 16.03795251 144.38697773 16.03937586 141.99515724 16.04037488 C135.70365784 16.04419077 129.41218157 16.05401317 123.1206913 16.06507885 C115.56991745 16.07711262 108.01913587 16.08169963 100.46835518 16.08753216 C89.00060381 16.09722539 77.53290318 16.11638847 66.06514931 16.13374341 C66.06514931 45.50374341 66.06514931 74.87374341 66.06514931 105.13374341 C83.76139931 105.04093091 83.76139931 105.04093091 101.81514931 104.94624341 C105.51701454 104.93955639 109.21887978 104.93286938 113.03292274 104.92597973 C116.4004185 104.89603889 116.4004185 104.89603889 119.76784706 104.85961926 C121.24810181 104.8466851 122.72846074 104.84323963 124.20876503 104.84777844 C135.21713465 104.87203397 145.02366623 103.88980455 154.00264931 96.82124341 C161.04092765 87.65015344 163.90834713 78.93808265 165.34249306 67.48139966 C166.06514931 65.13374341 166.06514931 65.13374341 167.83858681 63.30171216 C170.49719217 61.9071104 171.81287603 61.9367035 174.75264931 62.38374341 C175.54026649 62.49202466 176.32788368 62.60030591 177.13936806 62.71186841 C179.06514931 63.13374341 179.06514931 63.13374341 180.06514931 64.13374341 C180.16581964 67.23345105 180.20129231 70.31092012 180.19454384 73.41108716 C180.19717232 74.87193234 180.19717232 74.87193234 180.1998539 76.36228955 C180.2042743 79.59862535 180.20133376 82.834907 180.19796181 86.07124341 C180.19863479 88.30944338 180.19960477 90.54764329 180.20086098 92.78584301 C180.20233821 97.4835226 180.20018259 102.18118321 180.1955204 106.87886059 C180.1898231 112.91534955 180.19310198 118.95179405 180.19909286 124.98828137 C180.2026978 129.61205902 180.2015602 134.23582604 180.19896507 138.859604 C180.19829562 141.08606483 180.19912487 143.31252661 180.20144463 145.53898633 C180.20397005 148.64481695 180.20013211 151.7505745 180.19454384 154.85639966 C180.19656807 155.78630719 180.1985923 156.71621472 180.20067787 157.67430127 C180.17941157 164.01948114 180.17941157 164.01948114 179.06514931 165.13374341 C177.2558765 165.25862098 175.44118824 165.30945186 173.62764931 165.32124341 C172.63893837 165.33542309 171.65022743 165.34960278 170.63155556 165.36421216 C168.06514931 165.13374341 168.06514931 165.13374341 166.06514931 163.13374341 C165.41885134 160.34291126 164.84987069 157.5706649 164.31514931 154.75874341 C162.40171326 145.56034115 159.8392577 136.52729451 153.06514931 129.63374341 C129.64745528 114.99768464 83.97109598 123.13374341 66.06514931 123.13374341 C66.06514931 179.89374341 66.06514931 236.65374341 66.06514931 295.13374341 C83.69952431 295.00999341 101.33389931 294.88624341 119.50264931 294.75874341 C125.05907265 294.72474438 130.61549599 294.69074536 136.34029579 294.65571606 C141.34574626 294.61578172 141.34574626 294.61578172 146.35117531 294.57328808 C148.57075452 294.55566861 150.79036583 294.54183478 153.00998878 294.53105175 C156.38324893 294.51391486 159.75621021 294.48455113 163.12935829 294.45259106 C164.59845854 294.44933284 164.59845854 294.44933284 166.09723759 294.4460088 C174.46023985 294.34455328 181.68650352 293.25205733 189.06514931 289.13374341 C190.17889931 288.66968091 190.17889931 288.66968091 191.31514931 288.19624341 C193.57866651 286.8219651 193.95056941 285.5221289 195.06514931 283.13374341 C195.44413368 282.40800122 195.82311806 281.68225903 196.21358681 280.93452466 C199.9950139 273.26328562 201.82395542 265.50698367 203.6095829 257.20649731 C205.7553667 247.44352601 205.7553667 247.44352601 207.06514931 246.13374341 C208.70745295 246.0091948 210.35567207 245.95805816 212.00264931 245.94624341 C212.89854774 245.93206372 213.79444618 245.91788403 214.71749306 245.90327466 C217.06514931 246.13374341 217.06514931 246.13374341 219.06514931 248.13374341 C219.28115273 250.66986096 219.28115273 250.66986096 219.23214149 253.91279614 C219.21842506 255.12422787 219.20470863 256.3356596 219.19057655 257.58380139 C219.16465431 258.89836819 219.13873207 260.21293499 219.11202431 261.56733716 C219.09092976 262.92491758 219.07045054 264.28250769 219.0505619 265.64010632 C219.00651257 268.48750729 218.95514338 271.33465872 218.8986454 274.18183911 C218.82678952 277.83134536 218.77275832 281.48085485 218.72418785 285.13073647 C218.68494441 287.93525979 218.63637075 290.73956191 218.58496284 293.5438863 C218.54993153 295.54408599 218.52267407 297.54441691 218.49550819 299.54473889 C218.46918312 300.75932278 218.44285805 301.97390667 218.41573524 303.22529614 C218.39637917 304.29626034 218.37702309 305.36722455 218.35708046 306.47064221 C218.06514931 309.13374341 218.06514931 309.13374341 216.06514931 312.13374341 C213.10902736 312.4300734 210.36209922 312.52904085 207.40339088 312.50123608 C206.04206302 312.50613934 206.04206302 312.50613934 204.65323359 312.51114166 C201.59367597 312.51845993 198.53459024 312.50422945 195.47506142 312.49018872 C193.28922379 312.49097905 191.1033863 312.49307465 188.91755104 312.49638379 C182.9673123 312.50153237 177.01724553 312.48795375 171.06703448 312.47085679 C164.85348401 312.45586172 158.63993616 312.4569958 152.42637062 312.45619214 C141.99107467 312.45249567 131.55584025 312.43759938 121.12056923 312.41499341 C110.37349339 312.39172872 99.62645911 312.37756805 88.87935829 312.37397778 C87.88632504 312.37364363 87.88632504 312.37364363 86.87323051 312.37330273 C86.21237556 312.3730834 85.5515206 312.37286408 84.87063974 312.37263811 C72.03255255 312.3683705 59.1944828 312.35643795 46.35640454 312.34096444 C42.6453512 312.33685774 38.93429827 312.33393604 35.22324371 312.33116925 C29.4030766 312.32628987 23.58294184 312.3161096 17.76279068 312.30173123 C15.62012334 312.29719362 13.47745163 312.29436613 11.33477974 312.29332364 C8.42312825 312.2915885 5.51155886 312.28373375 2.59992409 312.2741853 C1.74041065 312.27505178 0.88089721 312.27591826 -0.0046621 312.276811 C-5.82064352 312.24795058 -5.82064352 312.24795058 -6.93485069 311.13374341 C-7.0333624 309.30258457 -7.06457698 307.46754407 -7.05985069 305.63374341 C-7.06242882 304.63343091 -7.06500694 303.63311841 -7.06766319 302.60249341 C-6.93485069 300.13374341 -6.93485069 300.13374341 -5.93485069 299.13374341 C-2.41402754 298.63272071 1.11385076 298.23181889 4.64718056 297.82905591 C8.14152006 297.11820741 9.70253764 296.76621048 12.06514931 294.13374341 C14.27795086 288.16173009 14.34717393 282.60726201 14.31911659 276.28536999 C14.32223657 275.20289217 14.32535655 274.12041435 14.32857108 273.00513417 C14.33653886 269.38331612 14.33023205 265.76166618 14.32393837 262.13984692 C14.32664878 259.54098932 14.33021 256.94213248 14.33455849 254.3432771 C14.34344273 248.02019744 14.34153471 241.69716533 14.33573321 235.37408382 C14.33121251 230.23367828 14.33060558 225.09328603 14.33278084 219.95287907 C14.3330873 219.22066656 14.33339377 218.48845404 14.33370952 217.73405327 C14.33434899 216.24646485 14.33499742 214.75887644 14.33565471 213.27128803 C14.34135527 199.32808373 14.33480462 185.38490574 14.32405397 171.44170576 C14.31512058 159.48544145 14.31666929 147.52921599 14.32589149 135.57295239 C14.33660219 121.68045914 14.340804 107.78798894 14.33466697 93.89549214 C14.33402989 92.41313593 14.33340115 90.93077972 14.33278084 89.4484235 C14.33247229 88.71912489 14.33216374 87.98982629 14.33184583 87.23842772 C14.33012116 82.10646169 14.33302914 76.97451033 14.33773994 71.84254658 C14.34394527 64.93064839 14.33950697 58.01882469 14.32795143 51.10693371 C14.32530751 48.57051159 14.32606536 46.03408329 14.33047676 43.49766362 C14.33594414 40.034726 14.32908327 36.57202314 14.31911659 33.10910046 C14.32357804 32.10607673 14.32803948 31.103053 14.33263612 30.06963462 C14.30107808 24.4138607 13.67695258 19.56147841 12.06514931 14.13374341 C10.86116493 14.01257153 9.65718056 13.89139966 8.41671181 13.76655591 C6.84114165 13.59774482 5.26562339 13.42844881 3.69014931 13.25874341 C2.89608681 13.18011059 2.10202431 13.10147778 1.28389931 13.02046216 C-4.70828819 12.36030591 -4.70828819 12.36030591 -6.93485069 10.13374341 C-7.16531944 8.00483716 -7.16531944 8.00483716 -7.12235069 5.57124341 C-7.11590538 4.76557934 -7.10946007 3.95991528 -7.10281944 3.12983716 C-6.74091642 -1.17091743 -3.61091998 0.01215504 0 0 Z " fill="#000000" transform="translate(99.93485069274902,102.8662565946579)"/>
<path d="M0 0 C1.28265244 0.00303635 1.28265244 0.00303635 2.59121704 0.00613403 C3.93501938 0.00350555 3.93501938 0.00350555 5.30596924 0.00082397 C8.28258166 -0.0035959 11.25913521 -0.00065608 14.23574829 0.00271606 C16.2945863 0.00204306 18.35342423 0.00107307 20.41226196 -0.00018311 C24.73331456 -0.00166026 29.05434652 0.00049505 33.37539673 0.00515747 C38.92761375 0.01085477 44.47978244 0.00757586 50.03199768 0.00158501 C54.2851905 -0.00202012 58.53837178 -0.00088224 62.79156494 0.0017128 C64.83939622 0.0023822 66.88722852 0.00155319 68.93505859 -0.00076675 C71.79182737 -0.00329249 74.64851672 0.0005462 77.50527954 0.00613403 C78.36038116 0.0041098 79.21548279 0.00208557 80.09649658 0 C85.9339859 0.02126618 85.9339859 0.02126618 87.04824829 1.13552856 C87.21621704 3.13162231 87.21621704 3.13162231 87.23574829 5.57302856 C87.24992798 6.3761145 87.26410767 7.17920044 87.27871704 8.00662231 C87.04824829 10.13552856 87.04824829 10.13552856 85.04824829 12.13552856 C82.40371704 12.47927856 82.40371704 12.47927856 79.23574829 12.63552856 C73.37604714 12.91445442 73.37604714 12.91445442 68.04824829 15.13552856 C65.50184208 20.5923806 65.76841184 26.0487118 65.79428101 31.9395752 C65.79116102 33.0293657 65.78804104 34.1191562 65.78482652 35.24197066 C65.77684781 38.89453322 65.78316982 42.5469296 65.78945923 46.19949341 C65.78674929 48.81790769 65.78318833 51.43632121 65.77883911 54.05473328 C65.76994891 60.42941895 65.77186563 66.8040575 65.77766439 73.17874502 C65.78218313 78.36112716 65.78279286 83.54349612 65.78061676 88.72587967 C65.78015706 89.83272776 65.78015706 89.83272776 65.77968808 90.96193642 C65.77904861 92.46104037 65.77840019 93.96014432 65.77774289 95.45924826 C65.77204048 109.51499481 65.77859568 123.57071526 65.78934363 137.62645753 C65.79827534 149.67995001 65.79673005 161.73340396 65.7875061 173.78689575 C65.77679549 187.78961815 65.77259371 201.79231767 65.77873063 215.79504359 C65.77936771 217.28921103 65.77999646 218.78337848 65.78061676 220.27754593 C65.78092531 221.01266775 65.78123386 221.74778957 65.78155176 222.5051878 C65.78327661 227.67872023 65.78036806 232.85223811 65.77565765 238.02576828 C65.76945236 244.99428653 65.77389055 251.96273089 65.78544617 258.93124199 C65.78809021 261.48862652 65.78733203 264.04601718 65.78292084 266.60339928 C65.7774539 270.09485364 65.78431383 273.58607511 65.79428101 277.07751465 C65.78981956 278.08900239 65.78535812 279.10049014 65.78076148 280.14262903 C65.81217673 285.81849162 66.42837804 290.68913138 68.04824829 296.13552856 C73.46323088 297.43081163 78.74472583 298.41699974 84.29824829 298.88943481 C86.04824829 299.13552856 86.04824829 299.13552856 87.04824829 300.13552856 C87.14676 301.9666874 87.17797458 303.8017279 87.17324829 305.63552856 C87.17711548 307.13599731 87.17711548 307.13599731 87.18106079 308.66677856 C87.04824829 311.13552856 87.04824829 311.13552856 86.04824829 312.13552856 C83.18733011 312.23075275 80.35061208 312.26106182 77.4894104 312.24905396 C76.59193588 312.24919998 75.69446136 312.24934601 74.76979065 312.24949646 C71.78836695 312.24879698 68.80700489 312.24100298 65.82559204 312.23318481 C63.76435887 312.23132076 61.70312525 312.2298968 59.64189148 312.22889709 C54.20520819 312.22507094 48.76855144 312.21523982 43.33187866 312.20419312 C37.78877115 312.19398109 32.24565937 312.18939992 26.70254517 312.18435669 C15.81776786 312.17361764 4.93301028 312.15654005 -5.95175171 312.13552856 C-8.38381243 307.58811574 -7.86183654 305.18236264 -6.95175171 300.13552856 C-4.6342035 297.81798035 0.60967935 298.22177583 3.75137329 297.83084106 C8.37532416 296.90615239 8.37532416 296.90615239 12.04824829 294.13552856 C14.12711355 286.94722247 14.33669742 279.55159486 14.30221558 272.12330627 C14.30533556 271.0714903 14.30845554 270.01967433 14.31167006 268.93598515 C14.31959252 265.44181289 14.31334896 261.94781709 14.30703735 258.4536438 C14.30974975 255.93625792 14.31331208 253.41887284 14.31765747 250.90148926 C14.32581059 244.79217826 14.32464478 238.68293169 14.31883219 232.57361989 C14.31430268 227.60590529 14.31370835 222.63820444 14.31587982 217.67048836 C14.31618629 216.96159814 14.31649275 216.25270792 14.31680851 215.52233617 C14.317448 214.08194136 14.31809643 212.64154654 14.31875369 211.20115174 C14.32444692 197.71759365 14.31791472 184.23406283 14.30715296 170.75050921 C14.29821642 159.19629955 14.29977228 147.64213008 14.30899048 136.08792114 C14.3197076 122.64877714 14.32389972 109.20965698 14.31776595 95.7705093 C14.3171289 94.33592387 14.31650015 92.90133844 14.31587982 91.46675301 C14.31557127 90.76102865 14.31526272 90.0553043 14.31494482 89.32819436 C14.31322235 84.36944486 14.31612326 79.41071057 14.32083893 74.45196342 C14.32705272 67.77146174 14.32259194 61.09104741 14.31105042 54.41054916 C14.30841081 51.96204186 14.30915695 49.51352816 14.31357574 47.06502342 C14.31906011 43.71685257 14.3121619 40.36892281 14.30221558 37.02076721 C14.30667702 36.05742523 14.31113846 35.09408325 14.3157351 34.10154909 C14.28083152 28.02254856 13.92488457 21.96100576 12.04824829 16.13552856 C8.63675177 12.95027439 5.41726412 12.74849688 0.86074829 12.57302856 C-4.74224014 12.34504013 -4.74224014 12.34504013 -6.95175171 10.13552856 C-7.18222046 8.00662231 -7.18222046 8.00662231 -7.13925171 5.57302856 C-7.1328064 4.7673645 -7.12636108 3.96170044 -7.11972046 3.13162231 C-6.75734946 -1.17469356 -3.61467353 0.01316838 0 0 Z " fill="#000000" transform="translate(350.9517517089844,102.86447143554688)"/>
<path d="M0 0 C0.82390732 0.00359528 1.64781464 0.00719055 2.49668884 0.01089478 C3.36008377 0.01074875 4.2234787 0.01060272 5.11303711 0.01045227 C7.98264533 0.01115194 10.85218954 0.01894849 13.7217865 0.02676392 C15.70857203 0.02862838 17.69535801 0.03005215 19.68214417 0.03105164 C24.9253312 0.03487849 30.16849074 0.04470771 35.41166687 0.05575562 C40.74420298 0.06595128 46.07674347 0.07054923 51.4092865 0.07559204 C60.7822112 0.08518153 70.15511837 0.09966754 79.5280304 0.11769104 C83.91008795 0.12559054 88.29169562 0.11650811 92.67372131 0.09877014 C96.28983391 0.08552298 99.90595148 0.07729402 103.52207947 0.06948853 C105.43484542 0.06443347 107.34760746 0.05759086 109.26036072 0.04898071 C112.01313729 0.03691336 114.7658634 0.03119359 117.5186615 0.02676392 C118.37904022 0.02160263 119.23941895 0.01644135 120.12586975 0.01112366 C122.17121151 0.01092837 124.21644997 0.06232705 126.260849 0.12442017 C127.260849 1.12442017 127.260849 1.12442017 127.3936615 3.15567017 C127.39108337 3.97035767 127.38850525 4.78504517 127.385849 5.62442017 C127.38842712 6.43910767 127.39100525 7.25379517 127.3936615 8.09317017 C127.260849 10.12442017 127.260849 10.12442017 126.260849 11.12442017 C124.610849 11.12442017 122.960849 11.12442017 121.260849 11.12442017 C120.930849 22.01442017 120.600849 32.90442017 120.260849 44.12442017 C140.555849 44.61942017 140.555849 44.61942017 161.260849 45.12442017 C161.260849 34.89442017 161.260849 24.66442017 161.260849 14.12442017 C160.270849 13.79442017 159.280849 13.46442017 158.260849 13.12442017 C158.260849 12.46442017 158.260849 11.80442017 158.260849 11.12442017 C156.8067865 11.15535767 156.8067865 11.15535767 155.323349 11.18692017 C152.260849 11.12442017 152.260849 11.12442017 151.260849 10.12442017 C150.98770085 4.38830905 150.98770085 4.38830905 151.260849 2.12442017 C153.89270169 -0.50743253 155.79953769 -0.12429845 159.38230896 -0.1534729 C160.63703003 -0.14740021 160.63703003 -0.14740021 161.917099 -0.14120483 C162.77517151 -0.14311829 163.63324402 -0.14503174 164.51731873 -0.14700317 C166.33303622 -0.14836527 168.14876345 -0.14466711 169.96446228 -0.13632202 C172.7496775 -0.12562275 175.53424768 -0.13621637 178.31944275 -0.14901733 C180.08116293 -0.14769574 181.8428827 -0.14513336 183.604599 -0.14120483 C184.44107971 -0.1452533 185.27756042 -0.14930176 186.13938904 -0.1534729 C192.03093066 -0.10549817 192.03093066 -0.10549817 194.260849 2.12442017 C194.58837134 4.83896972 194.39169149 7.37672776 194.260849 10.12442017 C193.260849 11.12442017 193.260849 11.12442017 190.698349 11.18692017 C189.893974 11.16629517 189.089599 11.14567017 188.260849 11.12442017 C186.98389989 14.95526748 187.12965591 18.55244871 187.14732361 22.54312134 C187.14710457 23.83124977 187.14710457 23.83124977 187.1468811 25.145401 C187.1475782 27.98608926 187.15536117 30.8267121 187.16319275 33.66738892 C187.16505765 35.6360826 187.16648121 37.60477675 187.16748047 39.57347107 C187.17129999 44.75695068 187.18112548 49.9404023 187.19218445 55.12387085 C187.2024107 60.41246156 187.20698069 65.70105679 187.21202087 70.98965454 C187.22274823 81.36792205 187.2398179 91.74616878 187.260849 102.12442017 C188.044599 102.08317017 188.828349 102.04192017 189.635849 101.99942017 C192.260849 102.12442017 192.260849 102.12442017 194.260849 104.12442017 C194.58837134 106.83896972 194.39169149 109.37672776 194.260849 112.12442017 C192.14250865 114.24276051 187.41481526 113.2886113 184.48350525 113.29238892 C183.60182175 113.29571732 182.72013824 113.29904572 181.81173706 113.30247498 C179.94297306 113.307548 178.07419996 113.30988319 176.20542908 113.3097229 C173.33898556 113.31190824 170.4729274 113.33005671 167.60655212 113.34902954 C165.79470449 113.35196355 163.98285502 113.3539483 162.17100525 113.35488892 C161.3095137 113.36207443 160.44802216 113.36925995 159.5604248 113.37666321 C153.4896706 113.35324176 153.4896706 113.35324176 151.260849 111.12442017 C150.927121 107.98737701 150.73235872 105.95887851 152.448349 103.24942017 C154.82121179 101.77660878 156.51998844 101.90218823 159.260849 102.12442017 C160.14650486 99.46745259 160.4058752 97.84251934 160.46617126 95.11196899 C160.48635315 94.30022217 160.50653503 93.48847534 160.52732849 92.65213013 C160.54380432 91.80380615 160.56028015 90.95548218 160.57725525 90.08145142 C160.60523193 88.90649109 160.60523193 88.90649109 160.6337738 87.70779419 C160.70202533 84.78428326 160.76220352 81.86058835 160.823349 78.93692017 C160.967724 72.39879517 161.112099 65.86067017 161.260849 59.12442017 C147.730849 59.45442017 134.200849 59.78442017 120.260849 60.12442017 C120.590849 73.98442017 120.920849 87.84442017 121.260849 102.12442017 C122.910849 102.12442017 124.560849 102.12442017 126.260849 102.12442017 C127.260849 103.12442017 127.260849 103.12442017 127.3936615 105.15567017 C127.39108337 105.97035767 127.38850525 106.78504517 127.385849 107.62442017 C127.38842712 108.43910767 127.39100525 109.25379517 127.3936615 110.09317017 C127.260849 112.12442017 127.260849 112.12442017 126.260849 113.12442017 C123.3154933 113.2255237 120.3940734 113.26411296 117.448349 113.25723267 C116.56429382 113.25818939 115.68023865 113.25914612 114.76939392 113.26013184 C112.8964277 113.26081368 111.02345914 113.2589591 109.15049744 113.25479126 C106.27316512 113.24944306 103.39598892 113.2547361 100.5186615 113.26113892 C98.70355699 113.26047814 96.88845257 113.25919697 95.073349 113.25723267 C94.20669617 113.2592569 93.34004333 113.26128113 92.4471283 113.2633667 C86.37579909 113.23937026 86.37579909 113.23937026 85.260849 112.12442017 C84.98770085 106.38830905 84.98770085 106.38830905 85.260849 104.12442017 C87.260849 102.12442017 87.260849 102.12442017 89.823349 101.62442017 C90.627724 101.45942017 91.432099 101.29442017 92.260849 101.12442017 C93.83590661 97.97430495 93.39918478 94.60043891 93.39024353 91.14224243 C93.39199585 90.31771576 93.39374817 89.49318909 93.39555359 88.64367676 C93.39996629 85.9093721 93.39703588 83.17513177 93.3936615 80.44082642 C93.39433477 78.54515063 93.39530499 76.64947493 93.39656067 74.75379944 C93.39803691 70.77666402 93.39588569 66.79955103 93.39122009 62.82241821 C93.38552673 57.71994774 93.38879979 52.61752991 93.39479256 47.51506138 C93.39840347 43.59891868 93.39725707 39.6827885 93.39466476 35.76664543 C93.39399676 33.88514131 93.39481951 32.00363606 93.39714432 30.12213326 C93.39967907 27.49338899 93.39581839 24.86473031 93.39024353 22.23599243 C93.39327988 21.06466515 93.39327988 21.06466515 93.39637756 19.86967468 C93.38385 16.68677952 93.27499079 14.16684553 92.260849 11.12442017 C90.280849 11.12442017 88.300849 11.12442017 86.260849 11.12442017 C86.23396749 12.77016582 86.21450777 14.4160343 86.198349 16.06192017 C86.18674744 16.9784436 86.17514587 17.89496704 86.16319275 18.83926392 C86.00135851 21.09035344 86.00135851 21.09035344 87.260849 22.12442017 C87.463974 24.30410767 87.463974 24.30410767 87.510849 26.99942017 C87.53663025 27.88371704 87.5624115 28.76801392 87.588974 29.67910767 C87.260849 32.12442017 87.260849 32.12442017 85.9249115 33.91738892 C83.29068605 35.82812991 81.42419706 35.56728889 78.260849 35.12442017 C75.448349 33.62442017 75.448349 33.62442017 73.260849 31.12442017 C72.974509 29.12004019 72.69378962 27.11040808 72.573349 25.08926392 C72.09248669 22.06584217 70.27435853 20.33278546 68.260849 18.12442017 C68.260849 17.46442017 68.260849 16.80442017 68.260849 16.12442017 C64.70013588 15.07559625 61.20557003 14.82055064 57.510849 14.56192017 C56.34038025 14.4781311 55.1699115 14.39434204 53.963974 14.30801392 C53.07194275 14.24742798 52.1799115 14.18684204 51.260849 14.12442017 C51.36829343 25.15529428 51.48091527 36.18610212 51.60018826 47.21685505 C51.65540502 52.33860932 51.70882309 57.46036932 51.75816345 62.58218384 C51.8058253 67.5229463 51.85816888 72.46363881 51.91378975 77.40431786 C51.93420503 79.29138642 51.95291948 81.17847416 51.96992302 83.06557655 C51.99398525 85.70415823 52.02403744 88.34260761 52.05552673 90.98110962 C52.06415993 92.15715004 52.06415993 92.15715004 52.07296753 93.35694885 C52.11622329 96.53557972 52.24843119 99.08716675 53.260849 102.12442017 C54.209599 102.08317017 55.158349 102.04192017 56.135849 101.99942017 C59.260849 102.12442017 59.260849 102.12442017 61.260849 104.12442017 C61.58837134 106.83896972 61.39169149 109.37672776 61.260849 112.12442017 C59.12286201 114.26240716 54.26379391 113.28865044 51.2999115 113.29238892 C50.39840363 113.29571732 49.49689575 113.29904572 48.56806946 113.30247498 C46.65642305 113.30754864 44.74476776 113.30988317 42.83311462 113.3097229 C39.90523166 113.31190572 36.97772753 113.33004656 34.0499115 113.34902954 C32.19574613 113.35196408 30.34157896 113.35394847 28.4874115 113.35488892 C27.60920746 113.36207443 26.73100342 113.36925995 25.82618713 113.37666321 C25.00879059 113.37358658 24.19139404 113.37050995 23.34922791 113.36734009 C22.63054535 113.36876511 21.91186279 113.37019012 21.17140198 113.37165833 C19.260849 113.12442017 19.260849 113.12442017 16.260849 111.12442017 C15.78447806 108.10740419 16.05097761 106.53311708 17.448349 103.81192017 C19.260849 102.12442017 19.260849 102.12442017 21.948349 101.87442017 C22.711474 101.95692017 23.474599 102.03942017 24.260849 102.12442017 C25.50778753 98.38360459 25.43755255 94.87963972 25.46617126 90.98110962 C25.47607086 90.15161804 25.48597046 89.32212646 25.49617004 88.46749878 C25.52777105 85.72426208 25.55253697 82.98100806 25.57725525 80.23770142 C25.59782598 78.33626351 25.61882249 76.43483017 25.64022827 74.53340149 C25.69543661 69.52752373 25.74485138 64.52160478 25.79307556 59.51565552 C25.84329959 54.40799288 25.89898096 49.30039009 25.95420837 44.19277954 C26.06177482 34.1700442 26.16322319 24.14725691 26.260849 14.12442017 C24.36473465 14.26655314 22.46896506 14.41328923 20.573349 14.56192017 C19.51760681 14.6431311 18.46186462 14.72434204 17.37413025 14.80801392 C14.59444051 15.09051689 11.96248605 15.41269858 9.260849 16.12442017 C7.96919475 17.87281161 7.96919475 17.87281161 7.260849 20.12442017 C6.910224 20.88754517 6.559599 21.65067017 6.198349 22.43692017 C5.10960543 25.22604944 5.10960543 25.22604944 4.885849 28.74942017 C4.260849 32.12442017 4.260849 32.12442017 2.573349 34.06192017 C-0.47517977 35.46259554 -2.41842052 35.60869336 -5.739151 35.12442017 C-8.114151 33.62442017 -8.114151 33.62442017 -9.739151 31.12442017 C-10.12555538 28.32162782 -9.97346242 25.98301946 -9.739151 23.12442017 C-9.409151 22.79442017 -9.079151 22.46442017 -8.739151 22.12442017 C-8.52444655 20.57824991 -8.36849878 19.02380817 -8.239151 17.46817017 C-8.156651 16.5284436 -8.074151 15.58871704 -7.989151 14.62051392 C-7.906651 13.63180298 -7.824151 12.64309204 -7.739151 11.62442017 C-7.57658407 9.67615707 -7.41012871 7.72821317 -7.239151 5.78067017 C-7.1669635 4.91248657 -7.094776 4.04430298 -7.020401 3.14981079 C-6.4345026 -1.06947146 -3.67323167 0.00676963 0 0 Z " fill="#000000" transform="translate(718.7391510009766,138.87557983398438)"/>
<path d="M0 0 C1.27371712 -0.0010952 1.27371712 -0.0010952 2.57316589 -0.00221252 C5.37657821 0.00126768 8.17832372 0.04014832 10.98144531 0.0793457 C12.92628064 0.08867231 14.87112773 0.09578914 16.815979 0.1007843 C21.93235768 0.11986605 27.04802552 0.16897725 32.16412354 0.2243042 C37.38568506 0.27547115 42.60736155 0.2982929 47.82910156 0.32348633 C58.07290329 0.37709463 68.31617767 0.46242191 78.55957031 0.56762695 C79.54957031 3.20762695 80.53957031 5.84762695 81.55957031 8.56762695 C81.70394531 7.43325195 81.84832031 6.29887695 81.99707031 5.13012695 C82.55957031 1.56762695 82.55957031 1.56762695 83.55957031 0.56762695 C86.3361083 0.44175011 89.08641358 0.37895829 91.86425781 0.36450195 C92.69917755 0.35880188 93.53409729 0.35310181 94.39431763 0.347229 C96.16472094 0.33776437 97.93514198 0.33123924 99.70556641 0.32739258 C102.41632829 0.31769223 105.12633051 0.2866855 107.83691406 0.25512695 C109.55435746 0.24859667 111.2718063 0.2433463 112.98925781 0.23950195 C113.80184052 0.22715515 114.61442322 0.21480835 115.45162964 0.2020874 C121.11647814 0.22453557 121.11647814 0.22453557 123.27835083 1.89849854 C125.22504799 4.43458825 124.88864412 6.47433315 124.55957031 9.56762695 C122.55957031 11.56762695 122.55957031 11.56762695 120.05957031 12.00512695 C117.21020502 12.34418255 117.21020502 12.34418255 115.55957031 15.56762695 C115.40411931 18.37941158 115.36643841 21.08578329 115.42431641 23.89453125 C115.43377792 24.74352997 115.44323944 25.59252869 115.45298767 26.46725464 C115.48668656 29.27566975 115.53479603 32.08364531 115.58300781 34.8918457 C115.60917275 36.83810779 115.63443994 38.78438215 115.65884399 40.73066711 C115.72551635 45.85510767 115.80440464 50.97929065 115.88580322 56.10351562 C115.96670237 61.33168648 116.03609552 66.56000851 116.10644531 71.78833008 C116.24620031 82.04827693 116.39885586 92.30798852 116.55957031 102.56762695 C117.74099609 102.53282227 117.74099609 102.53282227 118.94628906 102.49731445 C121.55957031 102.56762695 121.55957031 102.56762695 123.37207031 103.69262695 C125.08806059 106.40208529 124.89329831 108.4305838 124.55957031 111.56762695 C121.92771762 114.19947965 120.02088162 113.81634557 116.43811035 113.84552002 C115.18338928 113.83944733 115.18338928 113.83944733 113.90332031 113.83325195 C113.0452478 113.83516541 112.18717529 113.83707886 111.30310059 113.83905029 C109.48738309 113.84041239 107.67165586 113.83671423 105.85595703 113.82836914 C103.07074181 113.81766987 100.28617163 113.82826349 97.50097656 113.84106445 C95.73925638 113.83974286 93.97753661 113.83718048 92.21582031 113.83325195 C90.96109924 113.83932465 90.96109924 113.83932465 89.68103027 113.84552002 C83.78948865 113.79754529 83.78948865 113.79754529 81.55957031 111.56762695 C81.21466709 107.51501408 81.25793149 106.02008519 83.55957031 102.56762695 C85.20957031 102.23762695 86.85957031 101.90762695 88.55957031 101.56762695 C88.55957031 72.52762695 88.55957031 43.48762695 88.55957031 13.56762695 C86.90957031 12.90762695 85.25957031 12.24762695 83.55957031 11.56762695 C83.54498779 12.18806885 83.53040527 12.80851074 83.51538086 13.44775391 C83.44090443 16.25917328 83.34424467 19.06940444 83.24707031 21.88012695 C83.22451172 22.8565918 83.20195313 23.83305664 83.17871094 24.83911133 C83.12553711 26.24580078 83.12553711 26.24580078 83.07128906 27.6809082 C83.04510498 28.54498291 83.0189209 29.40905762 82.99194336 30.29931641 C82.4731391 33.02106142 81.76571483 33.93022095 79.55957031 35.56762695 C76.62207031 36.06762695 76.62207031 36.06762695 73.55957031 35.56762695 C69.31443558 31.80765048 68.13218277 26.82873045 66.55957031 21.56762695 C65.75525081 18.66997323 65.75525081 18.66997323 64.55957031 16.56762695 C60.95993459 15.25153738 57.10184285 15.2509224 53.30957031 15.00512695 C52.04628906 14.92133789 50.78300781 14.83754883 49.48144531 14.7512207 C48.51722656 14.69063477 47.55300781 14.63004883 46.55957031 14.56762695 C46.66707485 25.45084666 46.779709 36.33399998 46.89890957 47.21709824 C46.95409634 52.27044251 47.00750961 57.32379261 47.05688477 62.37719727 C47.10459087 67.25312581 47.15693602 72.12898442 47.21251106 77.00482941 C47.23290629 78.86595165 47.25162403 80.72709304 47.26864433 82.58824921 C47.292751 85.19309924 47.32279704 87.79781763 47.35424805 90.40258789 C47.36288124 91.55920929 47.36288124 91.55920929 47.37168884 92.73919678 C47.41850108 96.1455098 47.49444692 99.31063861 48.55957031 102.56762695 C50.53957031 102.56762695 52.51957031 102.56762695 54.55957031 102.56762695 C56.38898883 106.33407684 56.79119715 108.5368482 55.55957031 112.56762695 C53.66333829 114.46385897 50.89586672 113.69660321 48.37329102 113.70657349 C47.07331177 113.70353714 47.07331177 113.70353714 45.74707031 113.70043945 C44.42098755 113.70187454 44.42098755 113.70187454 43.06811523 113.70333862 C41.19514902 113.70402047 39.32218045 113.70216588 37.44921875 113.69799805 C34.57188644 113.69264985 31.69471023 113.69794289 28.81738281 113.7043457 C27.0022783 113.70368492 25.18717388 113.70240376 23.37207031 113.70043945 C22.50541748 113.70246368 21.63876465 113.70448792 20.74584961 113.70657349 C14.67452041 113.68257705 14.67452041 113.68257705 13.55957031 112.56762695 C13.46166462 111.07024571 13.42982167 109.56819803 13.43457031 108.06762695 C13.43070313 106.8455957 13.43070313 106.8455957 13.42675781 105.59887695 C13.55957031 103.56762695 13.55957031 103.56762695 14.55957031 102.56762695 C16.53957031 102.56762695 18.51957031 102.56762695 20.55957031 102.56762695 C20.55957031 73.85762695 20.55957031 45.14762695 20.55957031 15.56762695 C10.50746497 15.20808071 10.50746497 15.20808071 4.55957031 16.56762695 C3.23950459 18.73687148 3.23950459 18.73687148 2.55957031 21.56762695 C-0.73454733 33.09703872 -0.73454733 33.09703872 -4.44042969 35.56762695 C-7.50292969 35.88012695 -7.50292969 35.88012695 -10.44042969 35.56762695 C-13.7392994 30.61932239 -12.80938594 25.00671149 -12.81542969 19.19262695 C-12.83992187 17.9602832 -12.86441406 16.72793945 -12.88964844 15.45825195 C-12.89351562 14.26973633 -12.89738281 13.0812207 -12.90136719 11.85668945 C-12.90958496 10.77081543 -12.91780273 9.68494141 -12.92626953 8.56616211 C-11.67026293 0.8142661 -7.01260416 -0.15774747 0 0 Z " fill="#000000" transform="translate(1012.4404296875,138.432373046875)"/>
<path d="M0 0 C2 2 2 2 2.375 4.875 C2 8 2 8 0.3125 10.3125 C-2.21522633 12.15705705 -3.95935401 12.4907044 -7 13 C-7.03758423 14.20329956 -7.03758423 14.20329956 -7.07592773 15.4309082 C-7.19182043 19.05827074 -7.31457751 22.68536917 -7.4375 26.3125 C-7.47681641 27.57513672 -7.51613281 28.83777344 -7.55664062 30.13867188 C-7.61948242 31.95141602 -7.61948242 31.95141602 -7.68359375 33.80078125 C-7.72025146 34.91622314 -7.75690918 36.03166504 -7.79467773 37.1809082 C-8 40 -8 40 -9 43 C5.19 42.67 19.38 42.34 34 42 C34 32.43 34 22.86 34 13 C32.02 12.34 30.04 11.68 28 11 C26.125 9.8125 26.125 9.8125 25 8 C24.75 4.375 24.75 4.375 25 1 C26.99318842 -0.99318842 30.82670391 -0.41774258 33.5625 -0.5625 C34.32248291 -0.6042334 35.08246582 -0.6459668 35.86547852 -0.68896484 C58.89593934 -1.85584788 58.89593934 -1.85584788 69 0 C70 1 70 1 70.3125 4.3125 C70 8 70 8 68.375 10.4375 C66 12 66 12 60 12 C60.33 41.04 60.66 70.08 61 100 C63.64 100.99 66.28 101.98 69 103 C70 104 70 104 70.1875 107.4375 C70 111 70 111 68 113 C66.17173767 113.24723816 66.17173767 113.24723816 63.93334961 113.24291992 C63.09585678 113.24599655 62.25836395 113.24907318 61.39549255 113.25224304 C60.49025345 113.24505753 59.58501434 113.23787201 58.65234375 113.23046875 C57.26179527 113.22978142 57.26179527 113.22978142 55.84315491 113.2290802 C53.88199586 113.22605654 51.92083925 113.21816685 49.9597168 113.20581055 C46.94636598 113.18755372 43.93332222 113.18530082 40.91992188 113.18554688 C39.01822649 113.18063185 37.1165332 113.17480359 35.21484375 113.16796875 C33.85394875 113.16629951 33.85394875 113.16629951 32.46556091 113.16459656 C26.11604448 113.11604448 26.11604448 113.11604448 25 112 C24.92820036 110.48071962 24.91607993 108.95832518 24.9375 107.4375 C24.94652344 106.61121094 24.95554687 105.78492188 24.96484375 104.93359375 C24.97644531 104.29550781 24.98804688 103.65742188 25 103 C27.64 102.01 30.28 101.02 33 100 C33.03758423 98.19813232 33.03758423 98.19813232 33.07592773 96.35986328 C33.16993144 91.91313571 33.27016917 87.46656693 33.37231445 83.02001953 C33.41569001 81.09362496 33.45736314 79.16719129 33.49731445 77.24072266 C33.55495362 74.47546592 33.61866616 71.7104065 33.68359375 68.9453125 C33.70030624 68.0806839 33.71701874 67.2160553 33.73423767 66.32522583 C33.88612829 60.22774341 33.88612829 60.22774341 35 58 C34.030625 58.185625 33.06125 58.37125 32.0625 58.5625 C31.051875 58.706875 30.04125 58.85125 29 59 C28.67 58.67 28.34 58.34 28 58 C26.12678052 57.83946185 26.12678052 57.83946185 24 57.875 C23.278125 57.87242187 22.55625 57.86984375 21.8125 57.8671875 C19.97910585 57.80304724 19.97910585 57.80304724 19 59 C16 59.125 16 59.125 13 59 C12.67 58.67 12.34 58.34 12 58 C9.00981839 57.87332236 6.05305892 57.81479162 3.0625 57.8125 C2.22525391 57.80025391 1.38800781 57.78800781 0.52539062 57.77539062 C-0.27576172 57.77345703 -1.07691406 57.77152344 -1.90234375 57.76953125 C-3.00823853 57.76336792 -3.00823853 57.76336792 -4.13647461 57.75708008 C-6.24597306 57.83945778 -6.24597306 57.83945778 -8 60 C-8.12923427 62.7551084 -8.13751156 65.39860044 -8.046875 68.1484375 C-8.02659241 68.95737457 -8.00630981 69.76631165 -7.9854126 70.59976196 C-7.93979488 72.3130683 -7.88901341 74.02624368 -7.83349609 75.73925781 C-7.75056237 78.35724741 -7.6885546 80.97513824 -7.62890625 83.59375 C-7.58198961 85.25784851 -7.53385242 86.92191316 -7.484375 88.5859375 C-7.46654968 89.36834808 -7.44872437 90.15075867 -7.43035889 90.95687866 C-7.29812468 96.31378013 -7.29812468 96.31378013 -5 101 C-1.99152582 102.22520264 -1.99152582 102.22520264 1 103 C2 104 2 104 2.1328125 105.8125 C2.13023437 106.534375 2.12765625 107.25625 2.125 108 C2.12886719 109.0828125 2.12886719 109.0828125 2.1328125 110.1875 C2 112 2 112 1 113 C-2.0063825 113.11356724 -4.98892442 113.16418912 -7.99609375 113.16796875 C-9.35191307 113.17296135 -9.35191307 113.17296135 -10.73512268 113.17805481 C-12.65096527 113.18312796 -14.56681672 113.18546302 -16.48266602 113.18530273 C-19.42153418 113.18748813 -22.36002652 113.20563665 -25.29882812 113.22460938 C-27.15624871 113.22754337 -29.01367109 113.22952813 -30.87109375 113.23046875 C-31.75445908 113.23765427 -32.6378244 113.24483978 -33.54795837 113.25224304 C-39.77117861 113.22882139 -39.77117861 113.22882139 -42 111 C-42.26991906 108.31160615 -42.08737357 105.70858064 -42 103 C-41.43410156 102.80664062 -40.86820313 102.61328125 -40.28515625 102.4140625 C-39.18494141 102.02347656 -39.18494141 102.02347656 -38.0625 101.625 C-37.33160156 101.36976563 -36.60070312 101.11453125 -35.84765625 100.8515625 C-33.81317884 100.14728587 -33.81317884 100.14728587 -33 98 C-32.90687092 95.31470138 -32.87421678 92.65555582 -32.88647461 89.97021484 C-32.88632858 89.14086929 -32.88618256 88.31152374 -32.8860321 87.45704651 C-32.88673029 84.70831715 -32.89451829 81.95965506 -32.90234375 79.2109375 C-32.90420826 77.30807533 -32.90563201 75.40521268 -32.90663147 73.50234985 C-32.91045401 68.48818644 -32.92028207 63.47405189 -32.93133545 58.4598999 C-32.94155521 53.34566641 -32.9461303 48.23142826 -32.95117188 43.1171875 C-32.96190455 33.07811231 -32.97897784 23.03905855 -33 13 C-34.12535156 12.70738281 -35.25070312 12.41476562 -36.41015625 12.11328125 C-40 11 -40 11 -41.4375 9.1875 C-42.08985651 6.650558 -42.27454109 4.6081404 -42 2 C-35.46465233 -4.53534767 -8.9153985 -2.10944697 0 0 Z " fill="#000000" transform="translate(980,276)"/>
<path d="M0 0 C7.34693878 -0.48979592 7.34693878 -0.48979592 10.5 1.875 C12 4 12 4 12 6 C12.639375 6.309375 13.27875 6.61875 13.9375 6.9375 C16 8 16 8 17 9 C17.375 12.3125 17.375 12.3125 17 16 C13.60267988 20.07678414 9.28155614 20.8823598 4.359375 22.21484375 C1.33742093 23.22049403 -0.60443168 24.9371495 -3 27 C-4.98356483 27.71408334 -6.98315437 28.38617742 -9 29 C-9.99 29.66 -10.98 30.32 -12 31 C-10.86457764 31.0093457 -9.72915527 31.01869141 -8.55932617 31.02832031 C-4.34896527 31.0681757 -0.13933855 31.13392129 4.07055664 31.20751953 C5.89305189 31.23575514 7.71567019 31.2569568 9.53833008 31.27099609 C12.15770583 31.2923904 14.77559815 31.33901979 17.39453125 31.390625 C18.21025101 31.39185364 19.02597076 31.39308228 19.8664093 31.39434814 C25.44916982 31.53908898 25.44916982 31.53908898 28.00854492 33.68066406 C30.02209522 38.39101319 29.51139702 43.45682077 29.5 48.5 C29.52835938 49.64082031 29.55671875 50.78164062 29.5859375 51.95703125 C29.60562617 60.3345589 29.60562617 60.3345589 26.46875 63.78125 C25.6540625 64.1834375 24.839375 64.585625 24 65 C21.08482708 63.92598892 19.22189824 63.22189824 17 61 C16.44471389 59.56180897 15.95062801 58.09933731 15.5 56.625 C14.15328864 52.13145271 14.15328864 52.13145271 12 48 C8.50890872 46.75045358 4.94132836 46.79644429 1.265625 46.68359375 C0.09805664 46.64548584 -1.06951172 46.60737793 -2.27246094 46.56811523 C-3.75004883 46.52501221 -5.22763672 46.48190918 -6.75 46.4375 C-11.4525 46.293125 -16.155 46.14875 -21 46 C-21 55.9 -21 65.8 -21 76 C-19.02 75.505 -19.02 75.505 -17 75 C-15.41307361 74.92133041 -13.82321751 74.89215886 -12.234375 74.90234375 C-11.34492187 74.90556641 -10.45546875 74.90878906 -9.5390625 74.91210938 C-8.61867188 74.92048828 -7.69828125 74.92886719 -6.75 74.9375 C-5.81414063 74.94201172 -4.87828125 74.94652344 -3.9140625 74.95117188 C-1.60930959 74.96293082 0.69531227 74.97936574 3 75 C2.96777344 73.91589844 2.93554688 72.83179688 2.90234375 71.71484375 C3.02215267 67.1573123 3.86682127 65.29385456 7 62 C11.42998969 61.37824706 13.25401267 61.50267511 17 64 C17.30428666 66.67159858 17.42011412 69.10772814 17.3984375 71.78125 C17.40130768 72.55053833 17.40417786 73.31982666 17.40713501 74.11242676 C17.40917763 75.73983496 17.40363391 77.36726759 17.39111328 78.99462891 C17.37506132 81.49046549 17.39095411 83.98468273 17.41015625 86.48046875 C17.40817385 88.05989942 17.40433024 89.63932908 17.3984375 91.21875 C17.40451019 91.9677356 17.41058289 92.71672119 17.4168396 93.48840332 C17.38818359 95.59179687 17.38818359 95.59179687 17 99 C13.32653229 101.44897847 11.33643601 101.31537716 7 101 C4.7448078 98.7448078 4.02276532 96.9952413 3 94 C3 93.01 3 92.02 3 91 C-4.04264872 87.82392952 -4.04264872 87.82392952 -21 89 C-21 102.86 -21 116.72 -21 131 C-12.95625 130.814375 -12.95625 130.814375 -4.75 130.625 C-3.06358398 130.59100098 -1.37716797 130.55700195 0.36035156 130.52197266 C1.70379589 130.48675186 3.04722208 130.45082896 4.390625 130.4140625 C5.08269043 130.40270264 5.77475586 130.39134277 6.48779297 130.37963867 C10.11447224 130.27096922 12.96520962 130.08842826 16 128 C17.48945017 125.82125313 17.48945017 125.82125313 18.625 123.25 C19.0478125 122.35796875 19.470625 121.4659375 19.90625 120.546875 C21.10041576 117.87679916 21.10041576 117.87679916 22.125 114.5 C23 112 23 112 26 110 C29.32240324 110.3241369 30.60776303 110.60776303 33 113 C33.25878906 114.88842773 33.25878906 114.88842773 33.265625 117.18359375 C33.26957275 118.0243042 33.27352051 118.86501465 33.27758789 119.73120117 C33.26848389 120.62427979 33.25937988 121.5173584 33.25 122.4375 C33.24540771 123.34024658 33.24081543 124.24299316 33.23608398 125.1730957 C33.00792243 141.99207757 33.00792243 141.99207757 30 145 C27.44948526 145.10037731 24.92602821 145.13617487 22.375 145.12939453 C21.57666748 145.13114685 20.77833496 145.13289917 19.95581055 145.13470459 C17.3038519 145.13912367 14.65195938 145.13618492 12 145.1328125 C10.16536445 145.13348552 8.33072899 145.13445553 6.49609375 145.13571167 C2.64582472 145.13718872 -1.20442116 145.13503386 -5.0546875 145.13037109 C-10.00156497 145.1246738 -14.94838819 145.12795277 -19.89526367 145.13394356 C-23.68522555 145.13754898 -27.47517446 145.13641067 -31.26513672 145.13381577 C-33.08968105 145.13314644 -34.91422655 145.1339751 -36.73876953 145.13629532 C-39.28421161 145.13882154 -41.82956459 145.1349817 -44.375 145.12939453 C-45.13659424 145.13141876 -45.89818848 145.13344299 -46.68286133 145.13552856 C-51.88573742 145.11426258 -51.88573742 145.11426258 -53 144 C-53.07179964 142.48071962 -53.08392007 140.95832518 -53.0625 139.4375 C-53.05347656 138.61121094 -53.04445313 137.78492188 -53.03515625 136.93359375 C-53.02355469 136.29550781 -53.01195312 135.65742188 -53 135 C-50.525 134.01 -50.525 134.01 -48 133 C-48 103.3 -48 73.6 -48 43 C-49.65 42.67 -51.3 42.34 -53 42 C-53.02689216 40.52093108 -53.04634621 39.04172517 -53.0625 37.5625 C-53.07990234 36.32693359 -53.07990234 36.32693359 -53.09765625 35.06640625 C-53 33 -53 33 -52 32 C-50.07521187 31.84193469 -48.1450079 31.748865 -46.21484375 31.68359375 C-45.04501953 31.64169922 -43.87519531 31.59980469 -42.66992188 31.55664062 C-40.82237305 31.49766602 -40.82237305 31.49766602 -38.9375 31.4375 C-37.08415039 31.37272461 -37.08415039 31.37272461 -35.19335938 31.30664062 C-32.12902665 31.20015802 -29.06460927 31.09814576 -26 31 C-26.66 30.34 -27.32 29.68 -28 29 C-28.08218538 26.04132636 -27.46367568 24.49265541 -25.4375 22.33984375 C-20.51285461 18 -20.51285461 18 -18 18 C-17.79375 17.4225 -17.5875 16.845 -17.375 16.25 C-15.47442144 13.13996235 -13.08169828 11.94032855 -10 10 C-8.57122152 9.01738283 -7.15481829 8.0165776 -5.75 7 C-5.08484375 6.525625 -4.4196875 6.05125 -3.734375 5.5625 C-1.8405938 3.85639081 -0.98482046 2.3314117 0 0 Z " fill="#000000" transform="translate(595,107)"/>
<path d="M0 0 C2.31607985 1.31228203 2.88628641 2.61073361 3.84765625 5.046875 C1.6520837 9.08672848 0.65946967 10.78119061 -3.8046875 12.2421875 C-4.90941406 12.50773437 -6.01414062 12.77328125 -7.15234375 13.046875 C-7.16265121 14.28493393 -7.17295868 15.52299286 -7.18357849 16.79856873 C-7.28113121 28.43877929 -7.38384759 40.07893423 -7.49168301 51.71905422 C-7.54696092 57.70404105 -7.60038856 63.68903272 -7.6496582 69.67407227 C-7.69723011 75.44475273 -7.74957004 81.21537168 -7.8052845 86.98597908 C-7.82574067 89.19288676 -7.84444822 91.39981134 -7.86141777 93.60674858 C-7.88538983 96.68638116 -7.91545385 99.76589626 -7.94702148 102.84545898 C-7.95277695 103.76758682 -7.95853241 104.68971466 -7.96446228 105.63978577 C-8.03829159 111.93282284 -8.03829159 111.93282284 -9.15234375 113.046875 C-14.03155952 113.79337962 -19.12551188 114.50412273 -23.29296875 111.5078125 C-25.06861157 109.43622921 -26.61304944 107.29843916 -28.15234375 105.046875 C-29.20053089 103.82610499 -30.26242627 102.61692615 -31.33984375 101.421875 C-33.88037423 98.45120179 -36.02989017 95.33325474 -38.15234375 92.046875 C-39.06547021 90.79428654 -39.98221677 89.54433006 -40.90234375 88.296875 C-43.15234375 85.046875 -43.15234375 85.046875 -43.15234375 83.046875 C-44.14234375 82.716875 -45.13234375 82.386875 -46.15234375 82.046875 C-46.87231819 80.74155549 -47.52913481 79.40106585 -48.15234375 78.046875 C-49.95550432 75.42780468 -51.82166499 72.86091069 -53.69140625 70.2890625 C-55.15234375 68.046875 -55.15234375 68.046875 -55.15234375 66.046875 C-55.72984375 65.840625 -56.30734375 65.634375 -56.90234375 65.421875 C-59.36072084 63.91953345 -60.50488991 62.33075022 -62.00390625 59.90234375 C-63.88565784 56.86209884 -65.95598614 53.94652419 -67.98046875 51 C-69.15234375 49.046875 -69.15234375 49.046875 -69.15234375 47.046875 C-69.79171875 46.82 -70.43109375 46.593125 -71.08984375 46.359375 C-71.77046875 45.92625 -72.45109375 45.493125 -73.15234375 45.046875 C-73.48567708 43.38020833 -73.81901042 41.71354167 -74.15234375 40.046875 C-76.06901042 38.88020833 -76.06901042 38.88020833 -78.15234375 38.046875 C-78.81234375 37.056875 -79.47234375 36.066875 -80.15234375 35.046875 C-80.17547291 42.33109048 -80.19326176 49.6152981 -80.20415592 56.89954281 C-80.2093835 60.28159313 -80.21647886 63.6636184 -80.2277832 67.0456543 C-80.24068642 70.93017277 -80.24557299 74.81468097 -80.25 78.69921875 C-80.25516129 79.91898911 -80.26032257 81.13875946 -80.26564026 82.39549255 C-80.26571579 83.51657913 -80.26579132 84.63766571 -80.26586914 85.79272461 C-80.26920006 87.28164467 -80.26920006 87.28164467 -80.27259827 88.80064392 C-80.40484317 91.01714025 -80.40484317 91.01714025 -79.15234375 92.046875 C-79.17296875 93.18125 -79.19359375 94.315625 -79.21484375 95.484375 C-79.56398403 99.09829773 -79.56398403 99.09829773 -77.15234375 101.046875 C-74.82686368 101.74043923 -72.4935393 102.40836712 -70.15234375 103.046875 C-69.15234375 104.046875 -69.15234375 104.046875 -68.96484375 107.484375 C-69.15234375 111.046875 -69.15234375 111.046875 -71.15234375 113.046875 C-73.64978237 113.23409352 -76.03423058 113.30267267 -78.53125 113.27734375 C-79.25851791 113.27688553 -79.98578583 113.27642731 -80.73509216 113.2759552 C-82.27254874 113.27293336 -83.81000227 113.26504905 -85.34741211 113.25268555 C-87.7089311 113.23442073 -90.07005836 113.2321759 -92.43164062 113.23242188 C-93.92318049 113.22750703 -95.41471769 113.22167886 -96.90625 113.21484375 C-97.61664932 113.21373093 -98.32704865 113.2126181 -99.05897522 113.21147156 C-104.0362901 113.16292865 -104.0362901 113.16292865 -105.15234375 112.046875 C-105.22414339 110.52759462 -105.23626382 109.00520018 -105.21484375 107.484375 C-105.20582031 106.65808594 -105.19679688 105.83179688 -105.1875 104.98046875 C-105.17589844 104.34238281 -105.16429687 103.70429688 -105.15234375 103.046875 C-104.58644531 102.85351562 -104.02054688 102.66015625 -103.4375 102.4609375 C-102.33728516 102.07035156 -102.33728516 102.07035156 -101.21484375 101.671875 C-100.48394531 101.41664063 -99.75304687 101.16140625 -99 100.8984375 C-96.96552259 100.19416087 -96.96552259 100.19416087 -96.15234375 98.046875 C-96.05921467 95.36157638 -96.02656053 92.70243082 -96.03881836 90.01708984 C-96.03867233 89.18774429 -96.03852631 88.35839874 -96.03837585 87.50392151 C-96.03907404 84.75519215 -96.04686204 82.00653006 -96.0546875 79.2578125 C-96.05655201 77.35495033 -96.05797576 75.45208768 -96.05897522 73.54922485 C-96.06279776 68.53506144 -96.07262582 63.52092689 -96.0836792 58.5067749 C-96.09389896 53.39254141 -96.09847405 48.27830326 -96.10351562 43.1640625 C-96.1142483 33.12498731 -96.13132159 23.08593355 -96.15234375 13.046875 C-97.44011719 12.76457031 -98.72789062 12.48226563 -100.0546875 12.19140625 C-103.95703125 11.3359375 -103.95703125 11.3359375 -105.71484375 8.734375 C-106.1899201 5.81604884 -106.01326787 3.86444485 -105.15234375 1.046875 C-101.67753417 -2.42793458 -90.51393965 -1.05763083 -85.77734375 -1.140625 C-81.53362329 -1.08522395 -77.9811229 -0.96323405 -74.15234375 1.046875 C-71.96484375 3.484375 -71.96484375 3.484375 -70.15234375 6.046875 C-69.68441406 6.49289062 -69.21648438 6.93890625 -68.734375 7.3984375 C-66.79270718 9.42160743 -65.48409692 11.5881216 -64.02734375 13.984375 C-61.30818238 18.32346229 -58.45782964 22.50430906 -55.40234375 26.609375 C-54.665 27.60066406 -53.92765625 28.59195312 -53.16796875 29.61328125 C-51.20723351 32.21753823 -51.20723351 32.21753823 -48.15234375 34.046875 C-47.23319556 35.6468737 -46.31991093 37.2505444 -45.4375 38.87109375 C-42.70333964 43.50005217 -39.34581943 47.72901769 -36.15234375 52.046875 C-34.13572113 54.84340692 -32.12137615 57.64154781 -30.109375 60.44140625 C-28.62508482 62.41749717 -27.11567329 64.31765716 -25.5300293 66.2097168 C-24.74539307 67.145979 -23.96075684 68.08224121 -23.15234375 69.046875 C-23.12698033 61.73283631 -23.10947119 54.41880897 -23.09741211 47.10473633 C-23.09238462 44.61677629 -23.08556173 42.1288192 -23.0769043 39.64086914 C-23.06476949 36.06395743 -23.05909956 32.4870848 -23.0546875 28.91015625 C-23.04952621 27.79852615 -23.04436493 26.68689606 -23.03904724 25.5415802 C-23.03893394 23.98052803 -23.03893394 23.98052803 -23.03881836 22.38793945 C-23.03659775 21.4752681 -23.03437714 20.56259674 -23.03208923 19.62226868 C-23.15427345 17.00554813 -23.57187587 14.59787526 -24.15234375 12.046875 C-25.05984375 12.10875 -25.96734375 12.170625 -26.90234375 12.234375 C-30.15234375 12.046875 -30.15234375 12.046875 -32.52734375 11.046875 C-35.1350838 7.83734879 -34.47891009 5.09629757 -34.15234375 1.046875 C-32.24052217 -0.86494658 -28.83292621 -0.30679308 -26.27734375 -0.453125 C-5.23779229 -1.6627912 -5.23779229 -1.6627912 0 0 Z " fill="#000000" transform="translate(691.15234375,275.953125)"/>
<path d="M0 0 C1.0725 0.00515625 2.145 0.0103125 3.25 0.015625 C4.3225 0.01046875 5.395 0.0053125 6.5 0 C9.25 0.265625 9.25 0.265625 11.25 2.265625 C13.64993356 2.69004945 13.64993356 2.69004945 16.3125 2.828125 C21.15277778 3.16840278 21.15277778 3.16840278 22.25 4.265625 C24.57817964 4.63323231 26.9118385 4.96804081 29.25 5.265625 C29.745 6.750625 29.745 6.750625 30.25 8.265625 C30.9925 8.348125 31.735 8.430625 32.5 8.515625 C36.36414017 9.56948141 38.14651494 11.62028527 40.33984375 14.890625 C41.67070087 18.36341955 41.63138209 21.78382117 41.625 25.453125 C41.62628906 26.21036865 41.62757813 26.9676123 41.62890625 27.74780273 C41.51538013 33.76017197 40.3035543 38.01732855 37.25 43.265625 C30.94181722 43.62269195 30.94181722 43.62269195 28.3125 42.265625 C26.57721307 38.99920254 27.07017285 35.92211048 27.25 32.265625 C25.765 31.770625 25.765 31.770625 24.25 31.265625 C23.56974363 29.27020632 22.90509503 27.26944509 22.25 25.265625 C19.64948033 21.32000894 17.70115629 19.72340604 13.25 18.265625 C9.61086711 17.86452531 5.9716537 17.94109622 2.3125 17.953125 C1.33603516 17.93701172 0.35957031 17.92089844 -0.64648438 17.90429688 C-6.17945968 17.90054571 -9.90359102 18.31732804 -14.75 21.265625 C-15.41 21.265625 -16.07 21.265625 -16.75 21.265625 C-16.9975 21.8225 -17.245 22.379375 -17.5 22.953125 C-18.75 25.265625 -18.75 25.265625 -20.625 27.453125 C-25.26280999 33.59140293 -27.07414077 39.69600165 -27.75 47.265625 C-28.08 47.595625 -28.41 47.925625 -28.75 48.265625 C-28.84946453 50.03421693 -28.88080217 51.80673951 -28.8828125 53.578125 C-28.88410156 54.65320313 -28.88539063 55.72828125 -28.88671875 56.8359375 C-28.88091797 58.53363281 -28.88091797 58.53363281 -28.875 60.265625 C-28.87886719 61.39742188 -28.88273438 62.52921875 -28.88671875 63.6953125 C-28.88478516 65.30792969 -28.88478516 65.30792969 -28.8828125 66.953125 C-28.88168457 67.94699219 -28.88055664 68.94085938 -28.87939453 69.96484375 C-29.0083433 72.22937726 -29.0083433 72.22937726 -27.75 73.265625 C-27.21182285 75.7077734 -26.78621707 78.16316278 -26.34765625 80.625 C-24.61147752 88.29595964 -19.91009651 96.29780523 -13.75 101.265625 C-11.15084462 102.45590484 -11.15084462 102.45590484 -8.75 103.265625 C-8.42 103.595625 -8.09 103.925625 -7.75 104.265625 C-3.98597238 104.51860099 -0.20901963 104.45085437 3.5625 104.453125 C4.62146484 104.46537109 5.68042969 104.47761719 6.77148438 104.49023438 C8.30192383 104.49313477 8.30192383 104.49313477 9.86328125 104.49609375 C11.26767456 104.50225708 11.26767456 104.50225708 12.70043945 104.50854492 C15.34761326 104.25632449 16.97969047 103.61088253 19.25 102.265625 C19.13182083 98.31441272 19.00757767 94.36344271 18.87768555 90.41259766 C18.81301749 88.40667693 18.75316894 86.40060272 18.69335938 84.39453125 C18.65146484 83.13769531 18.60957031 81.88085938 18.56640625 80.5859375 C18.52974854 79.42336426 18.49309082 78.26079102 18.45532227 77.06298828 C18.43178341 74.3120749 18.43178341 74.3120749 17.25 72.265625 C14.91752239 71.92635553 12.58414529 71.59322434 10.25 71.265625 C8.25 69.265625 8.25 69.265625 8.01953125 67.35546875 C8.13888889 61.37673611 8.13888889 61.37673611 9.25 60.265625 C12.34081465 60.1644558 15.40882555 60.12593942 18.5 60.1328125 C19.42844727 60.13185577 20.35689453 60.13089905 21.31347656 60.12991333 C23.28059965 60.12923145 25.24772496 60.13108628 27.21484375 60.13525391 C30.23703026 60.14060205 33.25906815 60.13530918 36.28125 60.12890625 C38.18750033 60.12956703 40.09375057 60.13084819 42 60.1328125 C42.91040039 60.13078827 43.82080078 60.12876404 44.75878906 60.12667847 C51.13505031 60.15067531 51.13505031 60.15067531 52.25 61.265625 C52.3479057 62.76300624 52.37974864 64.26505392 52.375 65.765625 C52.37886719 66.98765625 52.37886719 66.98765625 52.3828125 68.234375 C52.25 70.265625 52.25 70.265625 51.25 71.265625 C48.92182036 71.63323231 46.5881615 71.96804081 44.25 72.265625 C44.2406543 73.34046143 44.23130859 74.41529785 44.22167969 75.52270508 C44.18181586 79.50945528 44.11606827 83.4954308 44.04248047 87.48168945 C44.01424969 89.20717418 43.9930456 90.93278874 43.97900391 92.65844727 C43.95760258 95.13886074 43.91097083 97.6177099 43.859375 100.09765625 C43.85814636 100.86962845 43.85691772 101.64160065 43.85565186 102.43696594 C43.71030186 107.74806823 43.71030186 107.74806823 41.46191406 110.27612305 C39.25 111.265625 39.25 111.265625 35.25 111.265625 C34.755 112.750625 34.755 112.750625 34.25 114.265625 C30.00984941 116.0828324 25.79365942 116.64198547 21.25 117.265625 C20.92 117.595625 20.59 117.925625 20.25 118.265625 C17.67794627 118.8371925 15.09216087 119.29432302 12.5 119.765625 C10.29154394 120.04512257 10.29154394 120.04512257 9.25 121.265625 C6.42583618 121.39225591 3.63705207 121.45083048 0.8125 121.453125 C0.02294922 121.46537109 -0.76660156 121.47761719 -1.58007812 121.49023438 C-3.63807435 121.49549779 -5.69562009 121.38768785 -7.75 121.265625 C-8.74 120.275625 -8.74 120.275625 -9.75 119.265625 C-11.69650888 119.03468327 -13.64359881 118.80721643 -15.59375 118.609375 C-18.91055064 118.08060968 -21.72874119 116.69074708 -24.75 115.265625 C-26.4142135 114.59285784 -28.07986582 113.92355665 -29.75 113.265625 C-29.75 112.605625 -29.75 111.945625 -29.75 111.265625 C-30.306875 111.1625 -30.86375 111.059375 -31.4375 110.953125 C-37.60135079 109.12062882 -40.44021007 105.36893284 -44.1015625 100.32421875 C-45.75988952 98.04036999 -45.75988952 98.04036999 -48.75 96.265625 C-50.42641174 92.91280151 -50.75 91.10443078 -50.75 87.265625 C-51.74 86.935625 -52.73 86.605625 -53.75 86.265625 C-53.97786458 84.21484375 -54.20572917 82.1640625 -54.43359375 80.11328125 C-54.56886614 78.25422271 -54.56886614 78.25422271 -55.75 77.265625 C-55.8507812 74.90164032 -55.88973215 72.56751189 -55.8828125 70.203125 C-55.88376923 69.49663818 -55.88472595 68.79015137 -55.88571167 68.06225586 C-55.88639333 66.56591707 -55.88454005 65.06957533 -55.88037109 63.57324219 C-55.87502257 61.27532343 -55.88031651 58.97760014 -55.88671875 56.6796875 C-55.88605797 55.22916623 -55.8847768 53.77864509 -55.8828125 52.328125 C-55.88483673 51.6364624 -55.88686096 50.9447998 -55.88894653 50.23217773 C-55.86495224 45.38057724 -55.86495224 45.38057724 -54.75 44.265625 C-54.646875 43.21375 -54.54375 42.161875 -54.4375 41.078125 C-53.6660023 36.7998196 -52.29023543 34.74937645 -49.75 31.265625 C-49.13125 30.13125 -48.5125 28.996875 -47.875 27.828125 C-45.64258016 23.86229681 -42.80818057 20.61429238 -39.75 17.265625 C-39.04875 16.42 -38.3475 15.574375 -37.625 14.703125 C-33.16508044 10.92188885 -28.05008653 8.66971654 -22.75 6.265625 C-22.02167969 5.93175781 -21.29335938 5.59789062 -20.54296875 5.25390625 C-16.01183383 3.36208821 -11.74625499 2.82425722 -6.8515625 2.57421875 C-3.76221846 2.12057901 -3.28921893 0.31770865 0 0 Z " fill="#000000" transform="translate(885.75,270.734375)"/>
<path d="M0 0 C0.75610565 -0.0049649 1.5122113 -0.00992981 2.29122925 -0.01504517 C4.8036997 -0.02970358 7.31610701 -0.03647499 9.82861328 -0.04199219 C11.56877648 -0.04774078 13.30893965 -0.05349855 15.04910278 -0.05926514 C18.70266008 -0.06978572 22.3561953 -0.0756214 26.00976562 -0.07910156 C30.69648171 -0.08458738 35.38290742 -0.1086127 40.06953239 -0.13707352 C43.665709 -0.1556775 47.26181537 -0.1609043 50.85803604 -0.16243744 C52.58604647 -0.16546977 54.31405549 -0.17351777 56.04201889 -0.18662262 C58.45792604 -0.20363613 60.87312012 -0.20181463 63.2890625 -0.1953125 C64.3645636 -0.20913467 64.3645636 -0.20913467 65.46179199 -0.22323608 C68.36194022 -0.19872654 70.29782056 -0.17900272 72.69941711 1.53672791 C76.06249624 6.6209142 74.9578344 14.01981752 74.96142578 19.84863281 C74.97367188 20.90630859 74.98591797 21.96398437 74.99853516 23.05371094 C75.00046875 24.06240234 75.00240234 25.07109375 75.00439453 26.11035156 C75.00850342 27.03162842 75.0126123 27.95290527 75.0168457 28.90209961 C74.77392578 31.16113281 74.77392578 31.16113281 72.77392578 33.16113281 C69.37500627 33.60447014 67.47524885 33.58971913 64.52392578 31.78613281 C61.9244222 27.88687744 61.43871445 23.74467574 60.77392578 19.16113281 C59.28892578 18.66613281 59.28892578 18.66613281 57.77392578 18.16113281 C57.35844482 17.65606201 56.94296387 17.15099121 56.51489258 16.63061523 C53.82472243 14.35994715 51.38284289 14.72250237 47.91845703 14.64941406 C46.70778564 14.61630127 45.49711426 14.58318848 44.24975586 14.54907227 C42.71085693 14.52417725 41.17195801 14.49928223 39.58642578 14.47363281 C34.69830078 14.37050781 29.81017578 14.26738281 24.77392578 14.16113281 C24.77392578 24.06113281 24.77392578 33.96113281 24.77392578 44.16113281 C32.69392578 43.83113281 40.61392578 43.50113281 48.77392578 43.16113281 C49.43392578 39.53113281 50.09392578 35.90113281 50.77392578 32.16113281 C56.63213474 29.81784923 56.63213474 29.81784923 60.77392578 31.16113281 C63.22487732 33.61208435 63.02844004 34.99443463 63.07746887 38.34214783 C63.07655746 39.04424881 63.07564606 39.74634979 63.07470703 40.46972656 C63.07899216 41.19225113 63.08327728 41.9147757 63.08769226 42.65919495 C63.09343815 44.18823193 63.0939339 45.71729625 63.08959961 47.24633789 C63.08644249 49.58624955 63.10988337 51.92489348 63.13525391 54.26464844 C63.13752717 55.74967288 63.13823027 57.23470073 63.13720703 58.71972656 C63.14641678 59.41980331 63.15562653 60.11988007 63.16511536 60.84117126 C63.13767992 63.7218033 63.09506346 65.69319604 61.4387207 68.10668945 C58.84963943 69.74655483 56.75980397 69.47216179 53.77392578 69.16113281 C52.78392578 68.50113281 51.79392578 67.84113281 50.77392578 67.16113281 C50.08642578 63.53613281 50.08642578 63.53613281 49.77392578 60.16113281 C40.9657334 56.45242023 36.43930638 57.16113281 25.77392578 57.16113281 C25.44392578 71.02113281 25.11392578 84.88113281 24.77392578 99.16113281 C30.11580078 99.05800781 35.45767578 98.95488281 40.96142578 98.84863281 C42.63873779 98.82373779 44.3160498 98.79884277 46.04418945 98.77319336 C47.38511906 98.74088466 48.72602355 98.70750828 50.06689453 98.67285156 C50.75384399 98.66660767 51.44079346 98.66036377 52.14855957 98.65393066 C56.48951809 98.52461885 59.33945992 97.86550921 62.77392578 95.16113281 C64.03641484 92.29049198 64.03641484 92.29049198 64.77392578 89.16113281 C66.27609586 84.53907103 68.35622972 81.57882887 71.77392578 78.16113281 C74.33642578 77.53613281 74.33642578 77.53613281 76.77392578 78.16113281 C79.08642578 79.66113281 79.08642578 79.66113281 80.77392578 82.16113281 C81.03644325 88.1202793 80.55241137 93.98266325 79.96142578 99.91113281 C79.89117188 100.74773437 79.82091797 101.58433594 79.74853516 102.44628906 C79.66796875 103.25453125 79.58740234 104.06277344 79.50439453 104.89550781 C79.43631592 105.61963867 79.3682373 106.34376953 79.2980957 107.08984375 C78.59120407 109.88316868 77.86444147 111.13541449 75.77392578 113.16113281 C73.00037024 113.55850258 70.6208795 113.69804062 67.84594727 113.6628418 C67.03917542 113.66824478 66.23240356 113.67364777 65.40118408 113.67921448 C62.73209043 113.69173123 60.06406917 113.67519324 57.39501953 113.65722656 C55.5432174 113.65738147 53.69141494 113.65886903 51.83961487 113.66163635 C47.95827914 113.66302161 44.07731238 113.65043998 40.19604492 113.62768555 C35.21328117 113.59928068 30.23112978 113.60204187 25.24832058 113.61477566 C21.4248173 113.62171956 17.60145638 113.61395868 13.77797127 113.60151863 C11.94030363 113.59699297 10.10262077 113.59667702 8.26495171 113.60058403 C5.70048382 113.60348418 3.13686992 113.58704818 0.57250977 113.56518555 C-0.19169785 113.56968719 -0.95590546 113.57418884 -1.74327087 113.5788269 C-3.85475159 113.54881287 -3.85475159 113.54881287 -7.22607422 113.16113281 C-9.22607422 110.16113281 -9.22607422 110.16113281 -8.91357422 106.53613281 C-8.22607422 103.16113281 -8.22607422 103.16113281 -7.22607422 102.16113281 C-5.22649058 102.12032498 -3.22562168 102.11858925 -1.22607422 102.16113281 C-1.21777705 90.75619731 -1.24153502 79.351824 -1.30635262 67.94705582 C-1.33543948 62.65143317 -1.35343378 57.35625434 -1.34619141 52.06054688 C-1.3396097 46.95089753 -1.36201716 41.84212607 -1.40462875 36.73265839 C-1.41578066 34.78223546 -1.41644141 32.83172372 -1.40649796 30.88129425 C-1.39436141 28.15100573 -1.41933786 25.42341171 -1.453125 22.69335938 C-1.44090408 21.88487549 -1.42868317 21.0763916 -1.41609192 20.2434082 C-1.40763632 17.70331048 -1.40763632 17.70331048 -2.22607422 14.16113281 C-5.11547913 11.72500227 -5.11547913 11.72500227 -8.22607422 10.16113281 C-8.84716797 7.83691406 -8.84716797 7.83691406 -8.66357422 5.47363281 C-8.62103516 4.68601563 -8.57849609 3.89839844 -8.53466797 3.08691406 C-7.82459819 -1.3442809 -3.62824168 0.00562495 0 0 Z " fill="#000000" transform="translate(923.22607421875,138.8388671875)"/>
<path d="M0 0 C0.7940625 0.00515625 1.588125 0.0103125 2.40625 0.015625 C3.2003125 0.01046875 3.994375 0.0053125 4.8125 0 C6.90625 0.265625 6.90625 0.265625 8.90625 2.265625 C11.30618356 2.69004945 11.30618356 2.69004945 13.96875 2.828125 C18.80902778 3.16840278 18.80902778 3.16840278 19.90625 4.265625 C21.6078125 4.4821875 21.6078125 4.4821875 23.34375 4.703125 C26.90625 5.265625 26.90625 5.265625 28.90625 7.265625 C29.710625 7.575 30.515 7.884375 31.34375 8.203125 C34.0255547 9.3150928 35.16183685 9.98134875 36.90625 12.265625 C37.29443359 14.85351562 37.29443359 14.85351562 37.3046875 17.921875 C37.30855469 19.02660156 37.31242188 20.13132812 37.31640625 21.26953125 C37.30480469 22.42324219 37.29320312 23.57695312 37.28125 24.765625 C37.29285156 25.91933594 37.30445313 27.07304687 37.31640625 28.26171875 C37.31253906 29.36644531 37.30867187 30.47117187 37.3046875 31.609375 C37.30130371 32.62193359 37.29791992 33.63449219 37.29443359 34.67773438 C36.90625 37.265625 36.90625 37.265625 35.61181641 39.10742188 C32.85702247 40.97812649 30.12754117 40.44796224 26.90625 40.265625 C23.15226367 33.08567056 23.15226367 33.08567056 21.96875 29.140625 C20.40159913 24.90009913 17.95878431 21.53028546 14.03125 19.11035156 C11.63519816 18.15787691 9.85396268 18.00733265 7.28125 18 C6.40984375 17.99742187 5.5384375 17.99484375 4.640625 17.9921875 C3.73828125 17.99992187 2.8359375 18.00765625 1.90625 18.015625 C1.00390625 18.00789063 0.1015625 18.00015625 -0.828125 17.9921875 C-2.13523437 17.99605469 -2.13523437 17.99605469 -3.46875 18 C-4.26023437 18.00225586 -5.05171875 18.00451172 -5.8671875 18.00683594 C-8.37872211 18.29874676 -9.96918155 18.90297875 -12.09375 20.265625 C-14.34391612 24.99097385 -14.50041774 29.14161147 -14.09375 34.265625 C-12.70489752 37.08343034 -12.70489752 37.08343034 -11.09375 39.265625 C-11.09375 39.925625 -11.09375 40.585625 -11.09375 41.265625 C-10.51367188 41.37519531 -9.93359375 41.48476563 -9.3359375 41.59765625 C-4.47756989 42.58376057 -0.46331851 43.83808694 3.90625 46.265625 C6.91527771 47.83282693 9.74113224 49.211709 12.96875 50.265625 C15.90625 51.265625 15.90625 51.265625 18.28125 52.703125 C21.12406707 54.39527802 23.90627962 55.3979304 27.0390625 56.421875 C29.1869762 57.39248035 30.4145144 58.44959905 31.90625 60.265625 C31.90625 60.925625 31.90625 61.585625 31.90625 62.265625 C32.81697266 62.64654297 32.81697266 62.64654297 33.74609375 63.03515625 C39.00925878 66.03316165 42.10521165 73.76771846 43.90625 79.265625 C44.39742828 84.28485303 44.75771833 87.98842251 41.90625 92.265625 C41.23366333 94.59725878 40.56777556 96.9308289 39.90625 99.265625 C38.07701065 104.75334306 35.9071686 107.55605688 31.4296875 111.00390625 C29.76666556 112.20846329 29.76666556 112.20846329 28.90625 114.265625 C24.66758646 116.91103203 19.72270002 117.47762636 14.90234375 118.484375 C11.75414461 119.13099908 11.75414461 119.13099908 8.90625 121.265625 C2.40228235 123.12390147 -3.88468593 122.84011498 -10.09375 120.265625 C-10.58875 119.770625 -10.58875 119.770625 -11.09375 119.265625 C-12.8571875 119.08 -12.8571875 119.08 -14.65625 118.890625 C-19.14538908 118.38378672 -22.9404488 116.97369259 -27.09375 115.265625 C-27.939375 114.9975 -28.785 114.729375 -29.65625 114.453125 C-33.48264398 112.58898434 -36.56010189 110.76447238 -39.09375 107.265625 C-40.01087041 103.00972381 -39.84676519 98.91049002 -39.65625 94.578125 C-39.64142578 93.43794922 -39.62660156 92.29777344 -39.61132812 91.12304688 C-39.41851006 82.75276508 -39.41851006 82.75276508 -37.09375 79.265625 C-34.0131239 78.86812486 -32.04631471 78.64464909 -29.09375 79.265625 C-25.51090749 82.47132619 -24.5785184 85.81131979 -23.09375 90.265625 C-21.83443627 92.40445944 -20.49936772 94.46996389 -19.1171875 96.53125 C-18.09375 98.265625 -18.09375 98.265625 -18.09375 100.265625 C-17.289375 100.53375 -16.485 100.801875 -15.65625 101.078125 C-14.3878125 101.6659375 -14.3878125 101.6659375 -13.09375 102.265625 C-12.76375 103.255625 -12.43375 104.245625 -12.09375 105.265625 C-4.17375 105.265625 3.74625 105.265625 11.90625 105.265625 C12.40125 103.780625 12.40125 103.780625 12.90625 102.265625 C13.8653125 101.8634375 13.8653125 101.8634375 14.84375 101.453125 C17.14415511 100.3850243 17.14415511 100.3850243 18.15625 97.703125 C19.44992333 91.7737889 20.13136285 87.29471816 16.90625 81.953125 C13.76012359 78.72678573 9.97328591 77.06778462 5.90625 75.265625 C4.545 74.4921875 4.545 74.4921875 3.15625 73.703125 C-0.97893666 71.87410013 -5.1632432 71.02248249 -9.58203125 70.109375 C-10.41089844 69.8309375 -11.23976563 69.5525 -12.09375 69.265625 C-12.42375 68.275625 -12.75375 67.285625 -13.09375 66.265625 C-13.75375 66.183125 -14.41375 66.100625 -15.09375 66.015625 C-19.08414163 65.01802709 -22.47924643 63.19395817 -26.09375 61.265625 C-26.09375 60.605625 -26.09375 59.945625 -26.09375 59.265625 C-26.815625 59.12125 -27.5375 58.976875 -28.28125 58.828125 C-32.61832428 56.41863929 -34.03957096 52.65634445 -36.09375 48.265625 C-36.41730469 47.58757812 -36.74085938 46.90953125 -37.07421875 46.2109375 C-39.15543639 41.34499204 -39.89387706 36.53399411 -39.09375 31.265625 C-38.10375 29.780625 -38.10375 29.780625 -37.09375 28.265625 C-36.30102757 25.74219443 -35.63916457 23.20001696 -34.97265625 20.640625 C-34.04077062 18.12246295 -33.20062758 16.90370884 -31.09375 15.265625 C-30.43375 15.265625 -29.77375 15.265625 -29.09375 15.265625 C-28.866875 14.6675 -28.64 14.069375 -28.40625 13.453125 C-26.73765958 10.67214097 -24.9653668 9.7014334 -22.09375 8.265625 C-21.43375 8.265625 -20.77375 8.265625 -20.09375 8.265625 C-19.76375 7.275625 -19.43375 6.285625 -19.09375 5.265625 C-15.30695573 3.87455772 -11.78198693 3.18906066 -7.78125 2.765625 C-4.01427613 2.25484888 -3.35388428 0.42549278 0 0 Z " fill="#000000" transform="translate(736.09375,270.734375)"/>
<path d="M0 0 C0.78503906 0.00515625 1.57007813 0.0103125 2.37890625 0.015625 C3.55259766 0.00789063 3.55259766 0.00789063 4.75 0 C6.94140625 0.265625 6.94140625 0.265625 9.94140625 2.265625 C12.18786501 2.68305865 12.18786501 2.68305865 14.56640625 2.828125 C18.84298797 3.16720672 18.84298797 3.16720672 19.94140625 4.265625 C22.26958589 4.63323231 24.60324475 4.96804081 26.94140625 5.265625 C27.43640625 6.750625 27.43640625 6.750625 27.94140625 8.265625 C29.08609375 8.141875 29.08609375 8.141875 30.25390625 8.015625 C32.94140625 8.265625 32.94140625 8.265625 34.58666992 9.92163086 C36.26281623 12.82173551 36.31456377 14.68215157 36.3046875 18.01953125 C36.3037207 19.67178711 36.3037207 19.67178711 36.30273438 21.35742188 C36.28662109 22.50275391 36.27050781 23.64808594 36.25390625 24.828125 C36.25712891 25.97732422 36.26035156 27.12652344 36.26367188 28.31054688 C36.20854707 36.86491376 36.20854707 36.86491376 33.94140625 40.265625 C29.59553797 40.66070393 27.62137128 40.71893502 23.94140625 38.265625 C23.81765625 37.234375 23.69390625 36.203125 23.56640625 35.140625 C22.86956224 30.82019211 21.44818592 28.49494753 19 24.96484375 C17.94140625 23.265625 17.94140625 23.265625 17.94140625 21.265625 C17.13703125 20.95625 16.33265625 20.646875 15.50390625 20.328125 C12.94140625 19.265625 12.94140625 19.265625 11.94140625 18.265625 C8.69989846 17.9863306 5.44351323 18.0337932 2.19140625 18.015625 C0.83015625 17.9846875 0.83015625 17.9846875 -0.55859375 17.953125 C-7.3334248 17.88425451 -7.3334248 17.88425451 -13.05859375 21.265625 C-13.95324974 25.05070803 -14.05859375 28.37731709 -14.05859375 32.265625 C-14.05859375 34.265625 -14.05859375 36.265625 -14.05859375 38.265625 C-12.57359375 38.760625 -12.57359375 38.760625 -11.05859375 39.265625 C-10.37990234 39.99072266 -10.37990234 39.99072266 -9.6875 40.73046875 C-7.59122747 42.7060925 -5.76924221 43.11339602 -2.99609375 43.828125 C1.73307292 45.05729167 1.73307292 45.05729167 3.94140625 47.265625 C5.5899224 47.82255613 7.26043295 48.31606237 8.94140625 48.765625 C13.71918403 50.04340278 13.71918403 50.04340278 15.94140625 52.265625 C17.5672914 52.97956428 19.21674188 53.64078788 20.87890625 54.265625 C23.91519792 55.41038298 26.2182628 56.45019603 28.94140625 58.265625 C28.94140625 58.925625 28.94140625 59.585625 28.94140625 60.265625 C29.68390625 60.4925 30.42640625 60.719375 31.19140625 60.953125 C35.47054884 62.99544306 37.36545117 66.40169238 39.94140625 70.265625 C40.6200368 72.2615972 41.28782544 74.26131051 41.94140625 76.265625 C42.27140625 76.595625 42.60140625 76.925625 42.94140625 77.265625 C43.01460246 79.96217354 43.03383162 82.63253958 43.00390625 85.328125 C42.99939453 86.08673828 42.99488281 86.84535156 42.99023438 87.62695312 C42.97841305 89.50654371 42.96047703 91.38609399 42.94140625 93.265625 C41.45640625 93.760625 41.45640625 93.760625 39.94140625 94.265625 C40.06515625 95.255625 40.18890625 96.245625 40.31640625 97.265625 C40.32540419 101.68361281 38.31737628 104.267688 35.60546875 107.609375 C33.58592315 109.61943917 31.63873313 110.4178937 28.94140625 111.265625 C28.44640625 112.750625 28.44640625 112.750625 27.94140625 114.265625 C22.69888521 117.18853852 16.80281127 118.69346681 10.9453125 119.82421875 C8.75955766 120.24205538 8.75955766 120.24205538 6.12890625 121.453125 C1.09020097 122.73750086 -3.96549675 122.17694394 -9.05859375 121.265625 C-10.54359375 120.275625 -10.54359375 120.275625 -12.05859375 119.265625 C-14.38774198 118.90420545 -16.72112853 118.56862975 -19.05859375 118.265625 C-19.55359375 117.770625 -19.55359375 117.770625 -20.05859375 117.265625 C-21.63640625 117.08 -21.63640625 117.08 -23.24609375 116.890625 C-27.069915 116.26376906 -29.70236445 115.14838778 -33.05859375 113.265625 C-33.05859375 112.605625 -33.05859375 111.945625 -33.05859375 111.265625 C-34.01765625 111.08 -34.01765625 111.08 -34.99609375 110.890625 C-35.67671875 110.684375 -36.35734375 110.478125 -37.05859375 110.265625 C-38.50540699 107.37199851 -38.49101751 104.4573241 -38.77734375 101.26171875 C-38.85391387 99.26979369 -38.85391387 99.26979369 -40.05859375 98.265625 C-40.21210956 95.62633403 -40.29022436 93.03122541 -40.30859375 90.390625 C-40.32921875 89.65714844 -40.34984375 88.92367187 -40.37109375 88.16796875 C-40.41029184 82.78803036 -40.41029184 82.78803036 -38.72265625 80.28125 C-36.07302686 78.6641053 -34.09470718 78.90129139 -31.05859375 79.265625 C-28.30859375 80.328125 -28.30859375 80.328125 -26.05859375 82.265625 C-25.30452274 84.57219514 -24.64715575 86.911377 -24.05859375 89.265625 C-23.41105898 90.51630708 -22.72260124 91.74660363 -21.99609375 92.953125 C-20.05859375 96.265625 -20.05859375 96.265625 -19.68359375 98.578125 C-19.47734375 99.135 -19.27109375 99.691875 -19.05859375 100.265625 C-17.07136107 100.96943657 -15.07081422 101.6368061 -13.05859375 102.265625 C-12.72859375 103.255625 -12.39859375 104.245625 -12.05859375 105.265625 C-10.94484375 105.245 -9.83109375 105.224375 -8.68359375 105.203125 C-5.05859375 105.265625 -5.05859375 105.265625 -3.05859375 106.265625 C3.19656642 106.87588453 9.02137445 104.98769503 14.37890625 101.828125 C17.70624128 98.50078997 18.34151901 95.06331342 18.56640625 90.453125 C18.51843504 86.88145029 18.41164284 84.92714426 16.328125 81.99609375 C12.86519502 78.89836919 9.39197369 76.67106735 4.94140625 75.265625 C4.09578125 74.79125 3.25015625 74.316875 2.37890625 73.828125 C-1.83068622 71.91467388 -6.03009069 71.04273264 -10.546875 70.109375 C-11.37574219 69.8309375 -12.20460938 69.5525 -13.05859375 69.265625 C-13.38859375 68.275625 -13.71859375 67.285625 -14.05859375 66.265625 C-15.79293032 65.70504023 -15.79293032 65.70504023 -18.05859375 65.265625 C-26.15686444 62.61811343 -32.16133736 56.86862299 -36.26245117 49.38476562 C-37.9006277 45.02433255 -37.67161521 40.49104981 -37.62109375 35.890625 C-37.65686523 34.405625 -37.65686523 34.405625 -37.69335938 32.890625 C-37.67933227 25.8022597 -36.07299193 21.0969513 -32.05859375 15.265625 C-31.39859375 15.265625 -30.73859375 15.265625 -30.05859375 15.265625 C-29.72859375 14.275625 -29.39859375 13.285625 -29.05859375 12.265625 C-23.80145089 8.265625 -23.80145089 8.265625 -20.05859375 8.265625 C-19.72859375 7.275625 -19.39859375 6.285625 -19.05859375 5.265625 C-14.7944674 3.34676814 -10.61776319 2.92271136 -6.01171875 2.609375 C-3.3188537 2.13543075 -2.74405435 0.35407153 0 0 Z " fill="#000000" transform="translate(1189.05859375,270.734375)"/>
<path d="M0 0 C1.60875 -0.00386719 1.60875 -0.00386719 3.25 -0.0078125 C6 0.125 6 0.125 8 1.125 C9.87271065 1.28057904 11.74848803 1.40023607 13.625 1.5 C18.98126337 1.89365309 23.1058562 2.96028255 28 5.125 C28 5.785 28 6.445 28 7.125 C28.639375 7.434375 29.27875 7.74375 29.9375 8.0625 C32 9.125 32 9.125 33 10.125 C33.09971786 12.03958282 33.13080589 13.95782317 33.1328125 15.875 C33.13410156 17.0403125 33.13539063 18.205625 33.13671875 19.40625 C33.13285156 20.6334375 33.12898437 21.860625 33.125 23.125 C33.12886719 24.3521875 33.13273438 25.579375 33.13671875 26.84375 C33.13542969 28.0090625 33.13414062 29.174375 33.1328125 30.375 C33.13168457 31.45265625 33.13055664 32.5303125 33.12939453 33.640625 C33 36.125 33 36.125 32 37.125 C30.48071962 37.19679964 28.95832518 37.20892007 27.4375 37.1875 C26.61121094 37.17847656 25.78492188 37.16945312 24.93359375 37.16015625 C24.29550781 37.14855469 23.65742187 37.13695312 23 37.125 C21.56625589 34.32268196 20.16855014 31.57446705 19.0625 28.625 C18.00139592 25.9140832 18.00139592 25.9140832 15.875 22.9375 C14 20.125 14 20.125 14 18.125 C13.38511719 18.00382812 12.77023437 17.88265625 12.13671875 17.7578125 C11.32847656 17.59023437 10.52023437 17.42265625 9.6875 17.25 C8.88699219 17.08757812 8.08648438 16.92515625 7.26171875 16.7578125 C5 16.125 5 16.125 2 14.125 C-1.54187831 13.79161404 -1.54187831 13.79161404 -5 14.125 C-5.66 14.785 -6.32 15.445 -7 16.125 C-9.1640625 16.7578125 -9.1640625 16.7578125 -11.625 17.25 C-12.44226563 17.41757813 -13.25953125 17.58515625 -14.1015625 17.7578125 C-14.72804688 17.87898438 -15.35453125 18.00015625 -16 18.125 C-15.95875 18.90875 -15.9175 19.6925 -15.875 20.5 C-16 23.125 -16 23.125 -18 25.125 C-18.79556782 29.30173106 -17.898022 31.80836217 -15.625 35.25 C-11.96993034 39.83640953 -7.49769906 41.47351728 -2 43.125 C-2 43.785 -2 44.445 -2 45.125 C-0.97132813 45.32996094 -0.97132813 45.32996094 0.078125 45.5390625 C1.04234375 45.73242188 2.0065625 45.92578125 3 46.125 C4.08796875 46.33898437 5.1759375 46.55296875 6.296875 46.7734375 C7.43640625 47.01320312 8.5759375 47.25296875 9.75 47.5 C10.89984375 47.73460937 12.0496875 47.96921875 13.234375 48.2109375 C14.14703125 48.51257813 15.0596875 48.81421875 16 49.125 C16.33 50.115 16.66 51.105 17 52.125 C17.680625 52.2075 18.36125 52.29 19.0625 52.375 C27.25477073 54.46664359 31.43903693 59.2895725 36 66.125 C37.59470947 68.93040863 38.04377559 70.44237306 38.5 73.75 C38.66699497 77.18922625 38.66699497 77.18922625 41 79.125 C41.25 82.625 41.25 82.625 41 86.125 C40.34 86.785 39.68 87.445 39 88.125 C38.855625 89.1975 38.71125 90.27 38.5625 91.375 C37.98925665 95.19662234 36.87716468 97.77874991 35 101.125 C34.34 101.125 33.68 101.125 33 101.125 C32.7215625 102.2078125 32.7215625 102.2078125 32.4375 103.3125 C30.69078985 106.72997639 28.73433656 107.98478934 25.55859375 110.01171875 C23.83950206 111.05608945 23.83950206 111.05608945 23 113.125 C18.87393702 114.85218916 15.45297431 115.3370464 11 115.125 C10.505 116.61 10.505 116.61 10 118.125 C1.42 118.125 -7.16 118.125 -16 118.125 C-16.33 117.135 -16.66 116.145 -17 115.125 C-17.99 115.186875 -18.98 115.24875 -20 115.3125 C-24.46888211 115.33991645 -27.91304608 113.8458227 -32 112.125 C-32 111.465 -32 110.805 -32 110.125 C-32.721875 110.0425 -33.44375 109.96 -34.1875 109.875 C-37.69512195 108.93963415 -39.41729634 107.67192179 -42 105.125 C-42.61523438 102.31591797 -42.61523438 102.31591797 -42.59375 99.1171875 C-42.59117187 97.96605469 -42.58859375 96.81492187 -42.5859375 95.62890625 C-42.55757812 94.43136719 -42.52921875 93.23382813 -42.5 92 C-42.50257813 90.79472656 -42.50515625 89.58945313 -42.5078125 88.34765625 C-42.43387752 81.76004914 -42.43387752 81.76004914 -42 79.125 C-38.85580289 77.0288686 -38.47873774 76.85789223 -35 77.3125 C-34.319375 77.38855469 -33.63875 77.46460938 -32.9375 77.54296875 C-30.49285112 78.27734916 -29.54852775 79.10104706 -28 81.125 C-27.2265625 83.359375 -27.2265625 83.359375 -26.625 85.875 C-25.08748092 91.38108928 -22.97035196 96.04575363 -18.125 99.4375 C-15.10621524 100.41416566 -12.05265119 101.26104212 -9 102.125 C-8.67 102.455 -8.34 102.785 -8 103.125 C-6.19072719 103.24987758 -4.37603893 103.30070846 -2.5625 103.3125 C-1.57378906 103.32667969 -0.58507812 103.34085937 0.43359375 103.35546875 C3.16584415 103.38650753 3.16584415 103.38650753 5 101.125 C6.48696625 100.645065 7.98948741 100.21219733 9.5 99.8125 C13.05447009 98.7043962 13.05447009 98.7043962 15.5625 96.0625 C16.91924077 88.1649313 16.91924077 88.1649313 14.48046875 80.94140625 C13.74763672 80.04228516 13.74763672 80.04228516 13 79.125 C13 78.465 13 77.805 13 77.125 C12.443125 76.99867188 11.88625 76.87234375 11.3125 76.7421875 C8.79222639 76.06954691 6.42738338 75.20467212 4 74.25 C3.154375 73.92257813 2.30875 73.59515625 1.4375 73.2578125 C-1 72.125 -1 72.125 -3.1015625 70.51953125 C-5.06778881 68.83967786 -5.06778881 68.83967786 -8.375 68.6875 C-12.57560531 68.03568193 -14.5373222 66.5276744 -18 64.125 C-19.4247867 63.57033211 -20.86330964 63.04986117 -22.3125 62.5625 C-23.529375 62.088125 -24.74625 61.61375 -26 61.125 C-26.495 59.64 -26.495 59.64 -27 58.125 C-27.5775 57.83625 -28.155 57.5475 -28.75 57.25 C-33.9985666 54.6257167 -36.73650795 50.3721861 -39 45.125 C-39.27972656 44.49335938 -39.55945313 43.86171875 -39.84765625 43.2109375 C-42.56300762 36.66883513 -42.7578102 31.68280653 -40.1875 25 C-36.02012694 15.35384277 -30.09205013 6.81132549 -20.0390625 2.71484375 C-16.78383742 1.77319818 -13.50815897 1.55278358 -10.13671875 1.3359375 C-6.55898675 0.98274275 -3.79692352 -0.00912722 0 0 Z " fill="#000000" transform="translate(673,136.875)"/>
<path d="M0 0 C0.69931641 0.08620605 1.39863281 0.17241211 2.11914062 0.26123047 C7.16519158 0.93960218 11.44979328 2.07334275 16.0625 4.1875 C16.0625 4.8475 16.0625 5.5075 16.0625 6.1875 C16.84625 6.14625 17.63 6.105 18.4375 6.0625 C21.0625 6.1875 21.0625 6.1875 23.0625 8.1875 C23.37638157 10.86141568 23.577762 13.44174759 23.6875 16.125 C23.74224487 17.27210449 23.74224487 17.27210449 23.7980957 18.44238281 C23.89914099 20.690463 23.98381461 22.93853774 24.0625 25.1875 C24.12630859 26.86779297 24.12630859 26.86779297 24.19140625 28.58203125 C24.29023015 33.3980493 24.06054577 36.73335844 22.0625 41.1875 C15.56989528 41.55500593 15.56989528 41.55500593 13.390625 39.9765625 C11.73987223 37.75290142 11.49855189 36.10738519 11.125 33.375 C9.89226731 26.423196 6.44792393 21.71615194 1.0625 17.1875 C-3.31859889 15.00148585 -8.04588705 13.52101906 -12.9375 13.1875 C-14.92080173 14.05399466 -14.92080173 14.05399466 -16.9375 15.1875 C-18.071875 15.290625 -19.20625 15.39375 -20.375 15.5 C-24.84397161 16.36243312 -26.02189693 17.74858355 -28.9375 21.1875 C-29.45570312 21.76371094 -29.97390625 22.33992188 -30.5078125 22.93359375 C-39.08418593 32.56647695 -41.23032617 45.72415221 -40.87548828 58.40332031 C-40.34023693 65.99260311 -39.15238117 73.24335667 -35.9375 80.1875 C-35.463125 81.21875 -34.98875 82.25 -34.5 83.3125 C-31.12973543 89.5465207 -31.12973543 89.5465207 -25.9375 94.1875 C-25.9375 94.8475 -25.9375 95.5075 -25.9375 96.1875 C-25.22722656 96.32027344 -24.51695313 96.45304687 -23.78515625 96.58984375 C-22.86605469 96.76644531 -21.94695312 96.94304687 -21 97.125 C-19.62521484 97.38603516 -19.62521484 97.38603516 -18.22265625 97.65234375 C-15.9375 98.1875 -15.9375 98.1875 -14.9375 99.1875 C-12.77269203 99.2864294 -10.60456215 99.317211 -8.4375 99.3125 C-7.2515625 99.31507813 -6.065625 99.31765625 -4.84375 99.3203125 C-2.04490578 99.51960219 -2.04490578 99.51960219 -0.9375 98.1875 C1.3931218 97.83570803 3.72685067 97.50419821 6.0625 97.1875 C8.3500976 96.91109986 8.3500976 96.91109986 10.0625 96.1875 C10.5575 94.7025 10.5575 94.7025 11.0625 93.1875 C12.0625 92.1875 13.0625 91.1875 14.0625 90.1875 C15.23824711 88.08760348 15.23824711 88.08760348 16.0625 86.1875 C18.7025 86.1875 21.3425 86.1875 24.0625 86.1875 C24.3925 87.1775 24.7225 88.1675 25.0625 89.1875 C27.0425 89.1875 29.0225 89.1875 31.0625 89.1875 C31.3925 90.8375 31.7225 92.4875 32.0625 94.1875 C31.27875 94.435 30.495 94.6825 29.6875 94.9375 C26.96549943 95.90311614 26.96549943 95.90311614 26.1328125 98.05078125 C24.87536505 100.56108693 23.45614588 101.82616537 21.3125 103.625 C20.59964844 104.22570312 19.88679688 104.82640625 19.15234375 105.4453125 C18.46269531 106.02023438 17.77304688 106.59515625 17.0625 107.1875 C16.50691406 107.67992187 15.95132812 108.17234375 15.37890625 108.6796875 C10.36737557 113.07942093 6.7182028 114.49706757 0.0625 114.1875 C-0.4325 115.6725 -0.4325 115.6725 -0.9375 117.1875 C-9.1875 117.1875 -17.4375 117.1875 -25.9375 117.1875 C-26.2675 116.1975 -26.5975 115.2075 -26.9375 114.1875 C-27.618125 114.249375 -28.29875 114.31125 -29 114.375 C-32.85686125 114.12881737 -35.44829594 112.82947838 -38.9375 111.1875 C-38.9375 110.5275 -38.9375 109.8675 -38.9375 109.1875 C-39.453125 109.105 -39.96875 109.0225 -40.5 108.9375 C-52.07691136 105.37537343 -58.34864627 94.2887264 -63.9375 84.1875 C-65.50457544 80.24669061 -66.17687467 77.0443629 -66.0625 72.8125 C-66.04445313 71.93851562 -66.02640625 71.06453125 -66.0078125 70.1640625 C-65.98460937 69.51179688 -65.96140625 68.85953125 -65.9375 68.1875 C-66.9275 67.8575 -67.9175 67.5275 -68.9375 67.1875 C-68.9375 61.2475 -68.9375 55.3075 -68.9375 49.1875 C-67.4525 48.6925 -67.4525 48.6925 -65.9375 48.1875 C-65.97230469 47.54683594 -66.00710938 46.90617187 -66.04296875 46.24609375 C-66.22551565 40.4132858 -65.71313674 36.45163864 -62.9375 31.1875 C-62.65519531 30.548125 -62.37289063 29.90875 -62.08203125 29.25 C-59.40087862 23.6616972 -55.59027968 19.28467778 -51.4375 14.75 C-50.60049561 13.82658813 -50.60049561 13.82658813 -49.74658203 12.88452148 C-46.73289055 9.68342024 -44.32026679 7.32071538 -39.9375 6.1875 C-38.9475 6.1875 -37.9575 6.1875 -36.9375 6.1875 C-36.6075 5.1975 -36.2775 4.2075 -35.9375 3.1875 C-31.5790973 1.31305914 -27.18333364 0.66649185 -22.5 0.0625 C-21.24316406 -0.10507813 -19.98632812 -0.27265625 -18.69140625 -0.4453125 C-12.36619856 -1.06401127 -6.29464984 -0.78305927 0 0 Z " fill="#000000" transform="translate(1205.9375,137.8125)"/>
<path d="M0 0 C0.71954361 -0.0049649 1.43908722 -0.00992981 2.18043518 -0.01504517 C4.54429097 -0.02956677 6.90807972 -0.03645123 9.27197266 -0.04199219 C10.48990446 -0.04623325 10.48990446 -0.04623325 11.73244095 -0.05056 C16.0275225 -0.06551053 20.3225708 -0.07476666 24.61767578 -0.07910156 C29.03808534 -0.08458657 33.45818696 -0.10862698 37.87849998 -0.13707352 C41.29300815 -0.15575717 44.70744288 -0.16090849 48.12199783 -0.16243744 C49.75097974 -0.16545051 51.37996076 -0.17343322 53.00889206 -0.18662262 C68.67675628 -0.30445367 68.67675628 -0.30445367 75.56103516 3.16113281 C76.31961403 13.46967787 77.04861789 23.82151074 76.56103516 34.16113281 C75.56103516 35.16113281 75.56103516 35.16113281 73.27587891 35.25878906 C72.35935547 35.2471875 71.44283203 35.23558594 70.49853516 35.22363281 C69.57943359 35.21460938 68.66033203 35.20558594 67.71337891 35.19628906 C67.00310547 35.1846875 66.29283203 35.17308594 65.56103516 35.16113281 C64.93145342 33.64219046 64.30763052 32.12086086 63.68603516 30.59863281 C63.31091797 29.68855469 62.93580078 28.77847656 62.54931641 27.84082031 C61.56103516 25.16113281 61.56103516 25.16113281 60.87353516 21.22363281 C59.90220905 18.13034172 59.90220905 18.13034172 57.79150391 17.10253906 C52.03114888 14.99410789 46.85670606 14.7906999 40.56103516 14.16113281 C40.89103516 43.20113281 41.22103516 72.24113281 41.56103516 102.16113281 C44.20103516 103.15113281 46.84103516 104.14113281 49.56103516 105.16113281 C50.56103516 106.16113281 50.56103516 106.16113281 50.69384766 107.97363281 C50.69126953 108.69550781 50.68869141 109.41738281 50.68603516 110.16113281 C50.68990234 111.24394531 50.68990234 111.24394531 50.69384766 112.34863281 C50.56103516 114.16113281 50.56103516 114.16113281 49.56103516 115.16113281 C46.48191856 115.27473574 43.4260805 115.32532386 40.34619141 115.32910156 C39.42011581 115.33242996 38.49404022 115.33575836 37.53990173 115.33918762 C35.57698057 115.34426089 33.61405076 115.34659583 31.65112305 115.34643555 C28.63983005 115.34862099 25.62890382 115.36676955 22.61767578 115.38574219 C20.71468225 115.38867617 18.81168697 115.39066093 16.90869141 115.39160156 C16.0034523 115.39878708 15.0982132 115.4059726 14.1655426 115.41337585 C12.90930336 115.40876091 12.90930336 115.40876091 11.62768555 115.40405273 C10.88901749 115.40547775 10.15034943 115.40690277 9.38929749 115.40837097 C7.56103516 115.16113281 7.56103516 115.16113281 5.56103516 113.16113281 C5.2911161 110.47273897 5.47366159 107.86971345 5.56103516 105.16113281 C8.20103516 104.17113281 10.84103516 103.18113281 13.56103516 102.16113281 C13.89103516 73.45113281 14.22103516 44.74113281 14.56103516 15.16113281 C7.83149298 14.90472174 7.83149298 14.90472174 2.24853516 16.66113281 C-1.43896484 18.16113281 -1.43896484 18.16113281 -4.43896484 18.16113281 C-4.56271484 18.84175781 -4.68646484 19.52238281 -4.81396484 20.22363281 C-7.27569954 31.79378587 -7.27569954 31.79378587 -10.43896484 35.16113281 C-13.48515209 35.64037023 -16.38750463 35.58663523 -19.43896484 35.16113281 C-20.96106075 33.63903691 -20.56856005 32.27903199 -20.57177734 30.16113281 C-20.57306641 29.35675781 -20.57435547 28.55238281 -20.57568359 27.72363281 C-20.57181641 26.87800781 -20.56794922 26.03238281 -20.56396484 25.16113281 C-20.56783203 24.31550781 -20.57169922 23.46988281 -20.57568359 22.59863281 C-20.57439453 21.79425781 -20.57310547 20.98988281 -20.57177734 20.16113281 C-20.57064941 19.41863281 -20.56952148 18.67613281 -20.56835938 17.91113281 C-20.43896484 16.16113281 -20.43896484 16.16113281 -19.43896484 15.16113281 C-19.20468707 13.145187 -19.0256036 11.12265881 -18.87646484 9.09863281 C-18.79267578 7.99390625 -18.70888672 6.88917969 -18.62255859 5.75097656 C-18.56197266 4.89632813 -18.50138672 4.04167969 -18.43896484 3.16113281 C-12.33932859 0.47011682 -6.62094544 0.03491185 0 0 Z " fill="#000000" transform="translate(1070.43896484375,273.8388671875)"/>
<path d="M0 0 C1.58867866 1.58867866 1.20794039 3.24689516 1.25 5.4375 C1.27578125 6.24058594 1.3015625 7.04367187 1.328125 7.87109375 C1.21984375 8.57363281 1.1115625 9.27617187 1 10 C-2 12 -2 12 -6 12 C-6 41.04 -6 70.08 -6 100 C-3.69 100.99 -1.38 101.98 1 103 C1.02689216 104.47906892 1.04634621 105.95827483 1.0625 107.4375 C1.07410156 108.26121094 1.08570313 109.08492188 1.09765625 109.93359375 C1 112 1 112 0 113 C-2.9453557 113.10110353 -5.8667756 113.13969279 -8.8125 113.1328125 C-10.13858276 113.13424759 -10.13858276 113.13424759 -11.49145508 113.13571167 C-13.36442129 113.13639351 -15.23738986 113.13453893 -17.11035156 113.13037109 C-19.98768388 113.12502289 -22.86486008 113.13031593 -25.7421875 113.13671875 C-27.55729201 113.13605797 -29.37239643 113.13477681 -31.1875 113.1328125 C-32.05415283 113.13483673 -32.92080566 113.13686096 -33.8137207 113.13894653 C-39.88504991 113.11495009 -39.88504991 113.11495009 -41 112 C-41.07179964 110.48071962 -41.08392007 108.95832518 -41.0625 107.4375 C-41.05347656 106.61121094 -41.04445313 105.78492188 -41.03515625 104.93359375 C-41.02355469 104.29550781 -41.01195312 103.65742188 -41 103 C-38.36 102.01 -35.72 101.02 -33 100 C-33 71.29 -33 42.58 -33 13 C-34.98 12.34 -36.96 11.68 -39 11 C-40.9375 8.6875 -40.9375 8.6875 -42 6 C-41.6875 3.1875 -41.6875 3.1875 -41 1 C-29.06792623 -3.58925914 -12.23444852 -3.80072437 0 0 Z " fill="#000000" transform="translate(824,276)"/>
<path d="M0 0 C0.88558594 -0.00386719 1.77117188 -0.00773437 2.68359375 -0.01171875 C18.38633961 0.01133961 18.38633961 0.01133961 20.5 2.125 C20.96302251 9.30184887 20.96302251 9.30184887 19.375 12.125 C17.5 13.125 17.5 13.125 11.5 13.125 C11.83 42.165 12.16 71.205 12.5 101.125 C15.14 102.115 17.78 103.105 20.5 104.125 C20.52689216 105.60406892 20.54634621 107.08327483 20.5625 108.5625 C20.57410156 109.38621094 20.58570313 110.20992188 20.59765625 111.05859375 C20.5 113.125 20.5 113.125 19.5 114.125 C16.62735944 114.22606874 13.77926372 114.26469672 10.90625 114.2578125 C10.04439087 114.25876923 9.18253174 114.25972595 8.29455566 114.26071167 C6.46866788 114.2613935 4.64277769 114.25953904 2.81689453 114.25537109 C0.01198922 114.25002286 -2.79275595 114.25531599 -5.59765625 114.26171875 C-7.36718786 114.26105797 -9.13671936 114.25977681 -10.90625 114.2578125 C-11.75102905 114.25983673 -12.59580811 114.26186096 -13.46618652 114.26394653 C-19.38504969 114.23995031 -19.38504969 114.23995031 -20.5 113.125 C-20.57179964 111.60571962 -20.58392007 110.08332518 -20.5625 108.5625 C-20.55347656 107.73621094 -20.54445313 106.90992188 -20.53515625 106.05859375 C-20.52355469 105.42050781 -20.51195312 104.78242188 -20.5 104.125 C-18.52 103.135 -16.54 102.145 -14.5 101.125 C-14.5 72.085 -14.5 43.045 -14.5 13.125 C-16.15 13.125 -17.8 13.125 -19.5 13.125 C-20.5 12.125 -20.5 12.125 -20.6328125 9.875 C-20.63023437 8.9675 -20.62765625 8.06 -20.625 7.125 C-20.62757813 6.2175 -20.63015625 5.31 -20.6328125 4.375 C-20.5 2.125 -20.5 2.125 -19.5 1.125 C-12.97572575 0.19855306 -6.58216301 -0.02874307 0 0 Z " fill="#000000" transform="translate(562.5,274.875)"/>
</svg>
