<?xml version="1.0" encoding="UTF-8"?>
<svg version="1.1" xmlns="http://www.w3.org/2000/svg" width="800" height="500">
<path d="M0 0 C0.86019556 0.00223072 1.72039112 0.00446144 2.60665321 0.00675976 C3.5133507 0.00519977 4.42004818 0.00363978 5.35422134 0.00203252 C8.41673431 -0.00198159 11.4791984 0.00121374 14.54171181 0.00434887 C16.7274014 0.00299502 18.91309075 0.00121517 21.09877968 -0.00096118 C27.05314882 -0.00553735 33.00750073 -0.00374521 38.96187019 -0.0005821 C45.17810044 0.00194056 51.39432916 -0.00039577 57.61055946 -0.00196826 C68.72159221 -0.00390711 79.83261813 -0.00078934 90.94364953 0.00429107 C101.02777315 0.00875911 111.11188527 0.00798318 121.19600868 0.00337231 C132.8928127 -0.0019734 144.58961 -0.00397432 156.2864151 -0.00101542 C162.48310943 0.00054778 168.67979582 0.00073992 174.87648964 -0.00255191 C180.70073935 -0.00542949 186.52496722 -0.00345703 192.34921455 0.00234234 C194.49349621 0.00367055 196.63777968 0.0032748 198.78206062 0.00107968 C201.69594749 -0.00162945 204.60976315 0.00174637 207.5236454 0.00675976 C208.38384096 0.00452904 209.24403652 0.00229832 210.13029861 0 C215.95099949 0.01959358 215.95099949 0.01959358 217.06514931 1.13374341 C218.62585752 12.30121696 218.42611727 23.83271163 218.67769814 35.08515942 C218.75336932 38.35233053 218.84378295 41.61890682 218.93428993 44.88569653 C218.98271989 46.96184752 219.03027847 49.03801906 219.07686806 51.11421216 C219.120457 52.57965718 219.120457 52.57965718 219.16492653 54.07470715 C219.18187065 54.97357144 219.19881477 55.87243573 219.21627235 56.79853833 C219.23546227 57.58983639 219.25465218 58.38113446 219.2744236 59.19641125 C219.06514931 61.13374341 219.06514931 61.13374341 217.06514931 63.13374341 C214.75264931 63.39936841 214.75264931 63.39936841 212.06514931 63.38374341 C210.73483681 63.39147778 210.73483681 63.39147778 209.37764931 63.39936841 C207.06514931 63.13374341 207.06514931 63.13374341 205.06514931 61.13374341 C204.49019814 59.20112622 204.49019814 59.20112622 204.02218056 56.83686841 C203.83929482 55.96683178 203.65640907 55.09679516 203.46798134 54.2003938 C203.27317177 53.27089917 203.0783622 52.34140454 202.87764931 51.38374341 C200.42979526 40.50923057 197.38614814 28.12999761 187.88936806 21.17280591 C181.83321183 17.72326081 175.37144522 16.00529887 168.40174294 16.01348889 C167.04096123 16.01142689 167.04096123 16.01142689 165.65268898 16.00932324 C164.17886002 16.01471615 164.17886002 16.01471615 162.67525673 16.02021801 C161.63089455 16.02007199 160.58653236 16.01992596 159.51052284 16.01977551 C156.06386667 16.02047132 152.61726477 16.02824822 149.17061806 16.03608716 C146.77879809 16.03795251 144.38697773 16.03937586 141.99515724 16.04037488 C135.70365784 16.04419077 129.41218157 16.05401317 123.1206913 16.06507885 C115.56991745 16.07711262 108.01913587 16.08169963 100.46835518 16.08753216 C89.00060381 16.09722539 77.53290318 16.11638847 66.06514931 16.13374341 C66.06514931 45.50374341 66.06514931 74.87374341 66.06514931 105.13374341 C83.76139931 105.04093091 83.76139931 105.04093091 101.81514931 104.94624341 C105.51701454 104.93955639 109.21887978 104.93286938 113.03292274 104.92597973 C116.4004185 104.89603889 116.4004185 104.89603889 119.76784706 104.85961926 C121.24810181 104.8466851 122.72846074 104.84323963 124.20876503 104.84777844 C135.21713465 104.87203397 145.02366623 103.88980455 154.00264931 96.82124341 C161.04092765 87.65015344 163.90834713 78.93808265 165.34249306 67.48139966 C166.06514931 65.13374341 166.06514931 65.13374341 167.83858681 63.30171216 C170.49719217 61.9071104 171.81287603 61.9367035 174.75264931 62.38374341 C175.54026649 62.49202466 176.32788368 62.60030591 177.13936806 62.71186841 C179.06514931 63.13374341 179.06514931 63.13374341 180.06514931 64.13374341 C180.16581964 67.23345105 180.20129231 70.31092012 180.19454384 73.41108716 C180.19717232 74.87193234 180.19717232 74.87193234 180.1998539 76.36228955 C180.2042743 79.59862535 180.20133376 82.834907 180.19796181 86.07124341 C180.19863479 88.30944338 180.19960477 90.54764329 180.20086098 92.78584301 C180.20233821 97.4835226 180.20018259 102.18118321 180.1955204 106.87886059 C180.1898231 112.91534955 180.19310198 118.95179405 180.19909286 124.98828137 C180.2026978 129.61205902 180.2015602 134.23582604 180.19896507 138.859604 C180.19829562 141.08606483 180.19912487 143.31252661 180.20144463 145.53898633 C180.20397005 148.64481695 180.20013211 151.7505745 180.19454384 154.85639966 C180.19656807 155.78630719 180.1985923 156.71621472 180.20067787 157.67430127 C180.17941157 164.01948114 180.17941157 164.01948114 179.06514931 165.13374341 C177.2558765 165.25862098 175.44118824 165.30945186 173.62764931 165.32124341 C172.63893837 165.33542309 171.65022743 165.34960278 170.63155556 165.36421216 C168.06514931 165.13374341 168.06514931 165.13374341 166.06514931 163.13374341 C165.41885134 160.34291126 164.84987069 157.5706649 164.31514931 154.75874341 C162.40171326 145.56034115 159.8392577 136.52729451 153.06514931 129.63374341 C129.64745528 114.99768464 83.97109598 123.13374341 66.06514931 123.13374341 C66.06514931 179.89374341 66.06514931 236.65374341 66.06514931 295.13374341 C83.69952431 295.00999341 101.33389931 294.88624341 119.50264931 294.75874341 C125.05907265 294.72474438 130.61549599 294.69074536 136.34029579 294.65571606 C141.34574626 294.61578172 141.34574626 294.61578172 146.35117531 294.57328808 C148.57075452 294.55566861 150.79036583 294.54183478 153.00998878 294.53105175 C156.38324893 294.51391486 159.75621021 294.48455113 163.12935829 294.45259106 C164.59845854 294.44933284 164.59845854 294.44933284 166.09723759 294.4460088 C174.46023985 294.34455328 181.68650352 293.25205733 189.06514931 289.13374341 C190.17889931 288.66968091 190.17889931 288.66968091 191.31514931 288.19624341 C193.57866651 286.8219651 193.95056941 285.5221289 195.06514931 283.13374341 C195.44413368 282.40800122 195.82311806 281.68225903 196.21358681 280.93452466 C199.9950139 273.26328562 201.82395542 265.50698367 203.6095829 257.20649731 C205.7553667 247.44352601 205.7553667 247.44352601 207.06514931 246.13374341 C208.70745295 246.0091948 210.35567207 245.95805816 212.00264931 245.94624341 C212.89854774 245.93206372 213.79444618 245.91788403 214.71749306 245.90327466 C217.06514931 246.13374341 217.06514931 246.13374341 219.06514931 248.13374341 C219.28115273 250.66986096 219.28115273 250.66986096 219.23214149 253.91279614 C219.21842506 255.12422787 219.20470863 256.3356596 219.19057655 257.58380139 C219.16465431 258.89836819 219.13873207 260.21293499 219.11202431 261.56733716 C219.09092976 262.92491758 219.07045054 264.28250769 219.0505619 265.64010632 C219.00651257 268.48750729 218.95514338 271.33465872 218.8986454 274.18183911 C218.82678952 277.83134536 218.77275832 281.48085485 218.72418785 285.13073647 C218.68494441 287.93525979 218.63637075 290.73956191 218.58496284 293.5438863 C218.54993153 295.54408599 218.52267407 297.54441691 218.49550819 299.54473889 C218.46918312 300.75932278 218.44285805 301.97390667 218.41573524 303.22529614 C218.39637917 304.29626034 218.37702309 305.36722455 218.35708046 306.47064221 C218.06514931 309.13374341 218.06514931 309.13374341 216.06514931 312.13374341 C213.10902736 312.4300734 210.36209922 312.52904085 207.40339088 312.50123608 C206.04206302 312.50613934 206.04206302 312.50613934 204.65323359 312.51114166 C201.59367597 312.51845993 198.53459024 312.50422945 195.47506142 312.49018872 C193.28922379 312.49097905 191.1033863 312.49307465 188.91755104 312.49638379 C182.9673123 312.50153237 177.01724553 312.48795375 171.06703448 312.47085679 C164.85348401 312.45586172 158.63993616 312.4569958 152.42637062 312.45619214 C141.99107467 312.45249567 131.55584025 312.43759938 121.12056923 312.41499341 C110.37349339 312.39172872 99.62645911 312.37756805 88.87935829 312.37397778 C87.88632504 312.37364363 87.88632504 312.37364363 86.87323051 312.37330273 C86.21237556 312.3730834 85.5515206 312.37286408 84.87063974 312.37263811 C72.03255255 312.3683705 59.1944828 312.35643795 46.35640454 312.34096444 C42.6453512 312.33685774 38.93429827 312.33393604 35.22324371 312.33116925 C29.4030766 312.32628987 23.58294184 312.3161096 17.76279068 312.30173123 C15.62012334 312.29719362 13.47745163 312.29436613 11.33477974 312.29332364 C8.42312825 312.2915885 5.51155886 312.28373375 2.59992409 312.2741853 C1.74041065 312.27505178 0.88089721 312.27591826 -0.0046621 312.276811 C-5.82064352 312.24795058 -5.82064352 312.24795058 -6.93485069 311.13374341 C-7.0333624 309.30258457 -7.06457698 307.46754407 -7.05985069 305.63374341 C-7.06242882 304.63343091 -7.06500694 303.63311841 -7.06766319 302.60249341 C-6.93485069 300.13374341 -6.93485069 300.13374341 -5.93485069 299.13374341 C-2.41402754 298.63272071 1.11385076 298.23181889 4.64718056 297.82905591 C8.14152006 297.11820741 9.70253764 296.76621048 12.06514931 294.13374341 C14.27795086 288.16173009 14.34717393 282.60726201 14.31911659 276.28536999 C14.32223657 275.20289217 14.32535655 274.12041435 14.32857108 273.00513417 C14.33653886 269.38331612 14.33023205 265.76166618 14.32393837 262.13984692 C14.32664878 259.54098932 14.33021 256.94213248 14.33455849 254.3432771 C14.34344273 248.02019744 14.34153471 241.69716533 14.33573321 235.37408382 C14.33121251 230.23367828 14.33060558 225.09328603 14.33278084 219.95287907 C14.3330873 219.22066656 14.33339377 218.48845404 14.33370952 217.73405327 C14.33434899 216.24646485 14.33499742 214.75887644 14.33565471 213.27128803 C14.34135527 199.32808373 14.33480462 185.38490574 14.32405397 171.44170576 C14.31512058 159.48544145 14.31666929 147.52921599 14.32589149 135.57295239 C14.33660219 121.68045914 14.340804 107.78798894 14.33466697 93.89549214 C14.33402989 92.41313593 14.33340115 90.93077972 14.33278084 89.4484235 C14.33247229 88.71912489 14.33216374 87.98982629 14.33184583 87.23842772 C14.33012116 82.10646169 14.33302914 76.97451033 14.33773994 71.84254658 C14.34394527 64.93064839 14.33950697 58.01882469 14.32795143 51.10693371 C14.32530751 48.57051159 14.32606536 46.03408329 14.33047676 43.49766362 C14.33594414 40.034726 14.32908327 36.57202314 14.31911659 33.10910046 C14.32357804 32.10607673 14.32803948 31.103053 14.33263612 30.06963462 C14.30107808 24.4138607 13.67695258 19.56147841 12.06514931 14.13374341 C10.86116493 14.01257153 9.65718056 13.89139966 8.41671181 13.76655591 C6.84114165 13.59774482 5.26562339 13.42844881 3.69014931 13.25874341 C2.89608681 13.18011059 2.10202431 13.10147778 1.28389931 13.02046216 C-4.70828819 12.36030591 -4.70828819 12.36030591 -6.93485069 10.13374341 C-7.16531944 8.00483716 -7.16531944 8.00483716 -7.12235069 5.57124341 C-7.11590538 4.76557934 -7.10946007 3.95991528 -7.10281944 3.12983716 C-6.74091642 -1.17091743 -3.61091998 0.01215504 0 0 Z " fill="#000000" transform="translate(45.93485069274902,93.8662565946579)"/>
<path d="M0 0 C1.28265244 0.00303635 1.28265244 0.00303635 2.59121704 0.00613403 C3.93501938 0.00350555 3.93501938 0.00350555 5.30596924 0.00082397 C8.28258166 -0.0035959 11.25913521 -0.00065608 14.23574829 0.00271606 C16.2945863 0.00204306 18.35342423 0.00107307 20.41226196 -0.00018311 C24.73331456 -0.00166026 29.05434652 0.00049505 33.37539673 0.00515747 C38.92761375 0.01085477 44.47978244 0.00757586 50.03199768 0.00158501 C54.2851905 -0.00202012 58.53837178 -0.00088224 62.79156494 0.0017128 C64.83939622 0.0023822 66.88722852 0.00155319 68.93505859 -0.00076675 C71.79182737 -0.00329249 74.64851672 0.0005462 77.50527954 0.00613403 C78.36038116 0.0041098 79.21548279 0.00208557 80.09649658 0 C85.9339859 0.02126618 85.9339859 0.02126618 87.04824829 1.13552856 C87.21621704 3.13162231 87.21621704 3.13162231 87.23574829 5.57302856 C87.24992798 6.3761145 87.26410767 7.17920044 87.27871704 8.00662231 C87.04824829 10.13552856 87.04824829 10.13552856 85.04824829 12.13552856 C82.40371704 12.47927856 82.40371704 12.47927856 79.23574829 12.63552856 C73.37604714 12.91445442 73.37604714 12.91445442 68.04824829 15.13552856 C65.50184208 20.5923806 65.76841184 26.0487118 65.79428101 31.9395752 C65.79116102 33.0293657 65.78804104 34.1191562 65.78482652 35.24197066 C65.77684781 38.89453322 65.78316982 42.5469296 65.78945923 46.19949341 C65.78674929 48.81790769 65.78318833 51.43632121 65.77883911 54.05473328 C65.76994891 60.42941895 65.77186563 66.8040575 65.77766439 73.17874502 C65.78218313 78.36112716 65.78279286 83.54349612 65.78061676 88.72587967 C65.78015706 89.83272776 65.78015706 89.83272776 65.77968808 90.96193642 C65.77904861 92.46104037 65.77840019 93.96014432 65.77774289 95.45924826 C65.77204048 109.51499481 65.77859568 123.57071526 65.78934363 137.62645753 C65.79827534 149.67995001 65.79673005 161.73340396 65.7875061 173.78689575 C65.77679549 187.78961815 65.77259371 201.79231767 65.77873063 215.79504359 C65.77936771 217.28921103 65.77999646 218.78337848 65.78061676 220.27754593 C65.78092531 221.01266775 65.78123386 221.74778957 65.78155176 222.5051878 C65.78327661 227.67872023 65.78036806 232.85223811 65.77565765 238.02576828 C65.76945236 244.99428653 65.77389055 251.96273089 65.78544617 258.93124199 C65.78809021 261.48862652 65.78733203 264.04601718 65.78292084 266.60339928 C65.7774539 270.09485364 65.78431383 273.58607511 65.79428101 277.07751465 C65.78981956 278.08900239 65.78535812 279.10049014 65.78076148 280.14262903 C65.81217673 285.81849162 66.42837804 290.68913138 68.04824829 296.13552856 C73.46323088 297.43081163 78.74472583 298.41699974 84.29824829 298.88943481 C86.04824829 299.13552856 86.04824829 299.13552856 87.04824829 300.13552856 C87.14676 301.9666874 87.17797458 303.8017279 87.17324829 305.63552856 C87.17711548 307.13599731 87.17711548 307.13599731 87.18106079 308.66677856 C87.04824829 311.13552856 87.04824829 311.13552856 86.04824829 312.13552856 C83.18733011 312.23075275 80.35061208 312.26106182 77.4894104 312.24905396 C76.59193588 312.24919998 75.69446136 312.24934601 74.76979065 312.24949646 C71.78836695 312.24879698 68.80700489 312.24100298 65.82559204 312.23318481 C63.76435887 312.23132076 61.70312525 312.2298968 59.64189148 312.22889709 C54.20520819 312.22507094 48.76855144 312.21523982 43.33187866 312.20419312 C37.78877115 312.19398109 32.24565937 312.18939992 26.70254517 312.18435669 C15.81776786 312.17361764 4.93301028 312.15654005 -5.95175171 312.13552856 C-8.38381243 307.58811574 -7.86183654 305.18236264 -6.95175171 300.13552856 C-4.6342035 297.81798035 0.60967935 298.22177583 3.75137329 297.83084106 C8.37532416 296.90615239 8.37532416 296.90615239 12.04824829 294.13552856 C14.12711355 286.94722247 14.33669742 279.55159486 14.30221558 272.12330627 C14.30533556 271.0714903 14.30845554 270.01967433 14.31167006 268.93598515 C14.31959252 265.44181289 14.31334896 261.94781709 14.30703735 258.4536438 C14.30974975 255.93625792 14.31331208 253.41887284 14.31765747 250.90148926 C14.32581059 244.79217826 14.32464478 238.68293169 14.31883219 232.57361989 C14.31430268 227.60590529 14.31370835 222.63820444 14.31587982 217.67048836 C14.31618629 216.96159814 14.31649275 216.25270792 14.31680851 215.52233617 C14.317448 214.08194136 14.31809643 212.64154654 14.31875369 211.20115174 C14.32444692 197.71759365 14.31791472 184.23406283 14.30715296 170.75050921 C14.29821642 159.19629955 14.29977228 147.64213008 14.30899048 136.08792114 C14.3197076 122.64877714 14.32389972 109.20965698 14.31776595 95.7705093 C14.3171289 94.33592387 14.31650015 92.90133844 14.31587982 91.46675301 C14.31557127 90.76102865 14.31526272 90.0553043 14.31494482 89.32819436 C14.31322235 84.36944486 14.31612326 79.41071057 14.32083893 74.45196342 C14.32705272 67.77146174 14.32259194 61.09104741 14.31105042 54.41054916 C14.30841081 51.96204186 14.30915695 49.51352816 14.31357574 47.06502342 C14.31906011 43.71685257 14.3121619 40.36892281 14.30221558 37.02076721 C14.30667702 36.05742523 14.31113846 35.09408325 14.3157351 34.10154909 C14.28083152 28.02254856 13.92488457 21.96100576 12.04824829 16.13552856 C8.63675177 12.95027439 5.41726412 12.74849688 0.86074829 12.57302856 C-4.74224014 12.34504013 -4.74224014 12.34504013 -6.95175171 10.13552856 C-7.18222046 8.00662231 -7.18222046 8.00662231 -7.13925171 5.57302856 C-7.1328064 4.7673645 -7.12636108 3.96170044 -7.11972046 3.13162231 C-6.75734946 -1.17469356 -3.61467353 0.01316838 0 0 Z " fill="#000000" transform="translate(296.9517517089844,93.86447143554688)"/>
<path d="M0 0 C3.79450934 0.39253545 5.51015791 2.24338912 8 5 C6.60344703 8.49873271 5.28739516 9.70891831 1.875 11.25 C1.15054687 11.58515625 0.42609375 11.9203125 -0.3203125 12.265625 C-0.87460937 12.50796875 -1.42890625 12.7503125 -2 13 C-1.07316406 13.06058594 -0.14632813 13.12117187 0.80859375 13.18359375 C2.00613281 13.26738281 3.20367187 13.35117188 4.4375 13.4375 C5.63246094 13.51871094 6.82742188 13.59992188 8.05859375 13.68359375 C11 14 11 14 12 15 C12.28671723 16.80429123 12.50547961 18.61966002 12.6875 20.4375 C12.79449219 21.42621094 12.90148437 22.41492188 13.01171875 23.43359375 C13 26 13 26 11 28 C10.01 28 9.02 28 8 28 C7.67 32.95 7.34 37.9 7 43 C4.525 43.495 4.525 43.495 2 44 C1.505 41.525 1.505 41.525 1 39 C-1.97 39 -4.94 39 -8 39 C-8 44.61 -8 50.22 -8 56 C-5.1228125 55.8453125 -5.1228125 55.8453125 -2.1875 55.6875 C-1.10855469 55.62949219 -0.02960938 55.57148438 1.08203125 55.51171875 C4.22807058 54.96000369 5.1377192 54.51741541 7 52 C7.45375 51.13375 7.9075 50.2675 8.375 49.375 C10 47 10 47 12.4375 46.25 C13.283125 46.1675 14.12875 46.085 15 46 C15.70125 45.7525 16.4025 45.505 17.125 45.25 C19 45 19 45 20.5625 46.0625 C22 48 22 48 23.3125 51.0625 C24.76438616 54.18233156 24.76438616 54.18233156 27.75 55.5 C31.68804696 56.10585338 34.2840368 55.33774675 38 54 C38.76956136 51.65466049 38.76956136 51.65466049 39 49 C36.97902806 46.43020181 34.87685104 45.36564584 31.875 44.1875 C25.5032334 41.47012895 18.68861181 38.09076333 15 32 C14.24424943 27.85819049 14.56593215 24.08516961 16.125 20.1875 C20.05375461 15.60395295 24.36960576 13.32105527 30.296875 12.796875 C37.09962239 12.6668862 41.89073028 13.94536514 48 17 C48.99 15.515 48.99 15.515 50 14 C52.3664856 13.63923645 52.3664856 13.63923645 55.36767578 13.65942383 C56.48868683 13.65965042 57.60969788 13.65987701 58.76467896 13.66011047 C59.97928802 13.67559433 61.19389709 13.69107819 62.4453125 13.70703125 C64.30553543 13.71339851 64.30553543 13.71339851 66.20333862 13.71989441 C69.50135463 13.73386784 72.7989335 13.76082639 76.09680176 13.79400635 C79.46161542 13.82468762 82.82649304 13.83839554 86.19140625 13.85351562 C92.79444271 13.8866527 99.39718558 13.93690303 106 14 C106.33 15.32 106.66 16.64 107 18 C106.01 18.66 105.02 19.32 104 20 C103.41518879 22.88595946 103.41518879 22.88595946 103.3125 26.125 C103.209375 28.06375 103.10625 30.0025 103 32 C108.61 32 114.22 32 120 32 C119.896875 30.06125 119.79375 28.1225 119.6875 26.125 C119.60048828 24.48917969 119.60048828 24.48917969 119.51171875 22.8203125 C119.34285156 21.88960937 119.17398438 20.95890625 119 20 C118.01 19.34 117.02 18.68 116 18 C116.33 16.68 116.66 15.36 117 14 C154 14 191 14 228 14 C228.33 15.32 228.66 16.64 229 18 C228.01 18.66 227.02 19.32 226 20 C225.69582772 22.74252444 225.57994202 25.25552627 225.6015625 28 C225.59869232 28.79148438 225.59582214 29.58296875 225.59286499 30.3984375 C225.59082223 32.07292394 225.59636693 33.74743412 225.60888672 35.421875 C225.62493828 37.99012429 225.60904617 40.55679986 225.58984375 43.125 C225.59182615 44.75000349 225.59566975 46.37500599 225.6015625 48 C225.59245346 49.15628906 225.59245346 49.15628906 225.5831604 50.3359375 C225.5798252 52.72834826 225.5798252 52.72834826 226 56 C226.99 56.66 227.98 57.32 229 58 C228.125 61.875 228.125 61.875 227 63 C224.30345146 63.07319621 221.63308542 63.09242537 218.9375 63.0625 C217.79958008 63.05573242 217.79958008 63.05573242 216.63867188 63.04882812 C214.75908129 63.0370068 212.87953101 63.01907078 211 63 C210.67 61.35 210.34 59.7 210 58 C211.32 57.67 212.64 57.34 214 57 C213.67 44.79 213.34 32.58 213 20 C212.67 22.64 212.34 25.28 212 28 C211 29 211 29 208.4375 29.0625 C207.633125 29.041875 206.82875 29.02125 206 29 C205.4140625 27.20963542 204.828125 25.41927083 204.2421875 23.62890625 C202.72201961 21.24999127 202.72201961 21.24999127 197 21 C197 32.88 197 44.76 197 57 C198.32 57.33 199.64 57.66 201 58 C200.125 61.875 200.125 61.875 199 63 C196.34177343 63.12658222 193.72112576 63.18520214 191.0625 63.1875 C190.32064453 63.19974609 189.57878906 63.21199219 188.81445312 63.22460938 C186.87486371 63.22988478 184.9357629 63.12188902 183 63 C182.34 62.34 181.68 61.68 181 61 C181.375 58.875 181.375 58.875 182 57 C182.99 57 183.98 57 185 57 C185 44.79 185 32.58 185 20 C178.94590173 21.25159108 178.94590173 21.25159108 177.375 25.0625 C176.92125 26.031875 176.4675 27.00125 176 28 C173.9375 28.9375 173.9375 28.9375 172 29 C171.34 28.67 170.68 28.34 170 28 C168.68 28 167.36 28 166 28 C166.02320313 28.90363281 166.04640625 29.80726563 166.0703125 30.73828125 C166.08835937 31.91777344 166.10640625 33.09726563 166.125 34.3125 C166.14820313 35.48425781 166.17140625 36.65601563 166.1953125 37.86328125 C166 41 166 41 164 44 C162.0625 43.6875 162.0625 43.6875 160 43 C159.67 42.01 159.34 41.02 159 40 C156.03 39.67 153.06 39.34 150 39 C150 44.28 150 49.56 150 55 C154.95 55 159.9 55 165 55 C165.66 52.69 166.32 50.38 167 48 C168.65614657 47.61781233 170.32457024 47.28604898 172 47 C173.63930993 48.63930993 173.21001367 50.49743674 173.25 52.75 C173.27578125 53.61109375 173.3015625 54.4721875 173.328125 55.359375 C172.88486819 58.92653697 172.48990506 60.32312456 170 63 C166.14702813 63.76382415 162.31735193 63.62713427 158.40234375 63.55859375 C157.2571376 63.55626236 156.11193146 63.55393097 154.93202209 63.55152893 C152.51018836 63.54178082 150.0883778 63.51996967 147.66674805 63.48706055 C143.94871487 63.43764904 140.23200369 63.42558144 136.51367188 63.41992188 C134.16404834 63.40583681 131.81443636 63.38963274 129.46484375 63.37109375 C128.34714096 63.36573105 127.22943817 63.36036835 126.0778656 63.35484314 C125.04662064 63.33885574 124.01537567 63.32286835 122.95288086 63.30639648 C122.04259628 63.29575668 121.13231171 63.28511688 120.19444275 63.27415466 C118 63 118 63 116 61 C116.25 58.9375 116.25 58.9375 117 57 C117.66 56.67 118.32 56.34 119 56 C119.33 50.39 119.66 44.78 120 39 C114.39 39 108.78 39 103 39 C103.103125 41.76375 103.20625 44.5275 103.3125 47.375 C103.33739502 48.24431152 103.36229004 49.11362305 103.38793945 50.00927734 C103.48481695 52.01424087 103.73978268 54.00963547 104 56 C104.99 56.66 105.98 57.32 107 58 C106.125 61.875 106.125 61.875 105 63 C102.30345146 63.07319621 99.63308542 63.09242537 96.9375 63.0625 C95.79958008 63.05573242 95.79958008 63.05573242 94.63867188 63.04882812 C92.75908129 63.0370068 90.87953101 63.01907078 89 63 C88.01 61.02 88.01 61.02 87 59 C88.32 58.34 89.64 57.68 91 57 C91 44.46 91 31.92 91 19 C90.34 19 89.68 19 89 19 C89 21.97 89 24.94 89 28 C87.35 28.33 85.7 28.66 84 29 C83.15364583 27.2421875 82.30729167 25.484375 81.4609375 23.7265625 C79.38865563 21.27750211 77.01204825 20.92378918 74 20 C74.06873331 25.09082151 74.15662711 30.18081025 74.26245117 35.27099609 C74.29574643 37.00332421 74.32376397 38.735762 74.34643555 40.46826172 C74.37989807 42.95588007 74.43220658 45.44248904 74.48828125 47.9296875 C74.49467117 48.70682098 74.5010611 49.48395447 74.50764465 50.28463745 C74.53966898 52.69967927 74.53966898 52.69967927 75 56 C76.485 56.99 76.485 56.99 78 58 C77.67 59.65 77.34 61.3 77 63 C71.39 63 65.78 63 60 63 C59.67 61.35 59.34 59.7 59 58 C59.99 57.34 60.98 56.68 62 56 C62.33777149 53.24099243 62.48897979 50.69516743 62.51171875 47.9296875 C62.53864555 46.73534592 62.53864555 46.73534592 62.56611633 45.51687622 C62.62036969 42.9696383 62.65416212 40.42258929 62.6875 37.875 C62.72065993 36.1497132 62.75514834 34.42445139 62.79101562 32.69921875 C62.87610435 28.46628187 62.94284307 24.23340247 63 20 C57.60901821 21.9166669 57.60901821 21.9166669 54.0625 26.1875 C53.711875 27.115625 53.36125 28.04375 53 29 C52.113125 28.814375 51.22625 28.62875 50.3125 28.4375 C47.14821189 28.01957516 45.05160358 28.19222258 42 29 C41.70867187 28.43410156 41.41734375 27.86820313 41.1171875 27.28515625 C38.53690438 22.4801659 38.53690438 22.4801659 33.9375 19.875 C30.92612917 20.00314344 29.37484304 20.15289986 27 22 C25.83333333 23.83333333 25.83333333 23.83333333 26 26 C29.06541538 29.8203311 32.35142142 31.12467014 36.875 32.8125 C42.58252241 35.10360474 47.09534927 37.36300833 50 43 C51.17810941 46.95013156 51.28823836 49.07763725 50.0625 53 C46.7746743 57.78229192 42.58083356 62.13972215 37 64 C28.50952946 65.00394077 22.43321992 63.02572839 15 59 C14.66444092 59.65194336 14.32888184 60.30388672 13.9831543 60.97558594 C12 63 12 63 8.53833008 63.45410156 C7.11523997 63.45346973 5.69204996 63.43095335 4.26953125 63.390625 C3.51911057 63.38496521 2.76868988 63.37930542 1.99552917 63.37347412 C-0.39946504 63.35109668 -2.79295869 63.30090171 -5.1875 63.25 C-6.81182734 63.22993659 -8.43617815 63.21168553 -10.06054688 63.1953125 C-14.04094207 63.15122794 -18.02021671 63.08219427 -22 63 C-22.625 60.625 -22.625 60.625 -23 58 C-22.34 57.34 -21.68 56.68 -21 56 C-20.80026267 53.29864677 -20.72018427 50.70202789 -20.734375 48 C-20.73246155 47.20851562 -20.7305481 46.41703125 -20.72857666 45.6015625 C-20.72721482 43.9270801 -20.73091118 42.25258715 -20.73925781 40.578125 C-20.7499576 38.01017619 -20.73936275 35.44292697 -20.7265625 32.875 C-20.7278841 31.24999845 -20.73044649 29.62499734 -20.734375 28 C-20.73032654 27.22914063 -20.72627808 26.45828125 -20.72210693 25.6640625 C-20.60355289 21.36870563 -20.60355289 21.36870563 -23 18 C-22.67 16.68 -22.34 15.36 -22 14 C-18.7 14 -15.4 14 -12 14 C-11.938125 13.26265625 -11.87625 12.5253125 -11.8125 11.765625 C-10.73549403 8.09966237 -9.03465477 7.00874872 -6 4.75 C-5.0925 4.06421875 -4.185 3.3784375 -3.25 2.671875 C-2.5075 2.12015625 -1.765 1.5684375 -1 1 C-0.67 0.67 -0.34 0.34 0 0 Z M134 18 C133.01 18.495 133.01 18.495 132 19 C129.3580837 31.1298418 131.36752685 44.73059449 132 57 C132.99 57.33 133.98 57.66 135 58 C135.99 57.505 135.99 57.505 137 57 C137 44.46 137 31.92 137 19 C136.01 18.67 135.02 18.34 134 18 Z M-8 20 C-8 23.96 -8 27.92 -8 32 C-5.03 32 -2.06 32 1 32 C1.268125 31.195625 1.53625 30.39125 1.8125 29.5625 C2.204375 28.716875 2.59625 27.87125 3 27 C3.99 26.67 4.98 26.34 6 26 C4.88145414 22.27385847 4.88145414 22.27385847 2 20 C0.29297265 19.93003986 -1.41668003 19.91559846 -3.125 19.9375 C-4.73375 19.958125 -6.3425 19.97875 -8 20 Z M150 20 C148.83936396 24.25566547 149.23826608 27.6835078 150 32 C152.97 32 155.94 32 159 32 C159.66 30.35 160.32 28.7 161 27 C162.32 27 163.64 27 165 27 C164.81171228 24.55519921 164.81171228 24.55519921 164 22 C160.91872876 19.9271448 158.40291922 19.77887055 154.75 19.875 C153.41195312 19.90207031 153.41195312 19.90207031 152.046875 19.9296875 C151.37140625 19.95289063 150.6959375 19.97609375 150 20 Z " fill="#000000" transform="translate(469,198)"/>
<path d="M0 0 C1.9375 1.625 1.9375 1.625 2.75 3.375 C3.01028607 6.49843281 3.1115274 9.49250676 2.9375 12.625 C2.2775 13.285 1.6175 13.945 0.9375 14.625 C-1 14.625 -1 14.625 -3.0625 13.625 C-4.11258653 11.65083732 -5.11237876 9.64917134 -6.0625 7.625 C-9.73115241 5.17923173 -11.73450343 5.38892746 -16.0625 5.625 C-16.7225 5.955 -17.3825 6.285 -18.0625 6.625 C-18.0625 8.935 -18.0625 11.245 -18.0625 13.625 C-17.30066406 13.91632813 -16.53882813 14.20765625 -15.75390625 14.5078125 C0.62338592 21.00965883 0.62338592 21.00965883 4.16015625 26.53515625 C5.93962885 31.31916551 5.407155 36.16078148 3.875 40.9375 C0.13567811 46.12430133 -5.46685901 48.31180981 -11.59375 49.5078125 C-17.8809103 49.80625365 -25.16820633 47.58580094 -30.0625 43.625 C-30.55078125 40.70703125 -30.55078125 40.70703125 -30.375 37.4375 C-30.32988281 36.35082031 -30.28476562 35.26414062 -30.23828125 34.14453125 C-30.18027344 33.31308594 -30.12226562 32.48164063 -30.0625 31.625 C-28.4125 31.295 -26.7625 30.965 -25.0625 30.625 C-24.22371545 31.91313342 -23.39163217 33.20563256 -22.5625 34.5 C-21.86640625 35.57894531 -21.86640625 35.57894531 -21.15625 36.6796875 C-20.0625 38.625 -20.0625 38.625 -20.0625 40.625 C-16.1025 40.625 -12.1425 40.625 -8.0625 40.625 C-6.70810332 37.91620665 -6.99748549 35.61566732 -7.0625 32.625 C-12.36961716 29.48897622 -17.80447732 26.79625932 -23.390625 24.1875 C-26.14033712 22.57948122 -27.44468365 21.33737857 -29.0625 18.625 C-29.75 15.875 -29.75 15.875 -30.0625 13.625 C-30.660625 13.83125 -31.25875 14.0375 -31.875 14.25 C-34.0625 14.625 -34.0625 14.625 -37.0625 12.625 C-38.25 9.5 -38.25 9.5 -39.0625 6.625 C-41.3725 6.295 -43.6825 5.965 -46.0625 5.625 C-46.0625 17.505 -46.0625 29.385 -46.0625 41.625 C-44.4125 42.285 -42.7625 42.945 -41.0625 43.625 C-41.3925 44.945 -41.7225 46.265 -42.0625 47.625 C-48.0025 47.625 -53.9425 47.625 -60.0625 47.625 C-60.3925 45.975 -60.7225 44.325 -61.0625 42.625 C-60.0725 42.295 -59.0825 41.965 -58.0625 41.625 C-58.0625 29.745 -58.0625 17.865 -58.0625 5.625 C-60.3725 5.955 -62.6825 6.285 -65.0625 6.625 C-65.7225 8.935 -66.3825 11.245 -67.0625 13.625 C-69 14.1875 -69 14.1875 -71.0625 14.625 C-72.64522601 13.04227399 -72.40985747 11.24465997 -72.625 9.0625 C-72.70878906 8.23621094 -72.79257812 7.40992188 -72.87890625 6.55859375 C-72.93949219 5.92050781 -73.00007812 5.28242188 -73.0625 4.625 C-74.0525 4.625 -75.0425 4.625 -76.0625 4.625 C-76.0625 16.835 -76.0625 29.045 -76.0625 41.625 C-74.7425 41.955 -73.4225 42.285 -72.0625 42.625 C-71.5 44.5625 -71.5 44.5625 -71.0625 46.625 C-72.0625 47.625 -72.0625 47.625 -73.82836914 47.73852539 C-74.57723389 47.73328857 -75.32609863 47.72805176 -76.09765625 47.72265625 C-76.90654297 47.71943359 -77.71542969 47.71621094 -78.54882812 47.71289062 C-79.39896484 47.70451172 -80.24910156 47.69613281 -81.125 47.6875 C-81.97900391 47.68298828 -82.83300781 47.67847656 -83.71289062 47.67382812 C-85.82945663 47.66200373 -87.94598685 47.64406769 -90.0625 47.625 C-90.6875 45.75 -90.6875 45.75 -91.0625 43.625 C-90.4025 42.965 -89.7425 42.305 -89.0625 41.625 C-88.59416115 38.72823749 -88.22642273 35.91352921 -87.9375 33 C-87.64875 30.23625 -87.36 27.4725 -87.0625 24.625 C-92.6725 24.625 -98.2825 24.625 -104.0625 24.625 C-104.0625 30.235 -104.0625 35.845 -104.0625 41.625 C-102.7425 42.285 -101.4225 42.945 -100.0625 43.625 C-100.3925 44.945 -100.7225 46.265 -101.0625 47.625 C-107.0025 47.625 -112.9425 47.625 -119.0625 47.625 C-119.3925 46.305 -119.7225 44.985 -120.0625 43.625 C-118.7425 42.965 -117.4225 42.305 -116.0625 41.625 C-116.0625 29.415 -116.0625 17.205 -116.0625 4.625 C-117.3825 4.295 -118.7025 3.965 -120.0625 3.625 C-119.1875 -0.25 -119.1875 -0.25 -118.0625 -1.375 C-115.19982433 -1.44825168 -112.361781 -1.46738205 -109.5 -1.4375 C-108.69369141 -1.43298828 -107.88738281 -1.42847656 -107.05664062 -1.42382812 C-105.05856244 -1.41200518 -103.06052217 -1.39406914 -101.0625 -1.375 C-100.7325 0.275 -100.4025 1.925 -100.0625 3.625 C-101.3825 3.955 -102.7025 4.285 -104.0625 4.625 C-104.0625 8.585 -104.0625 12.545 -104.0625 16.625 C-98.7825 16.625 -93.5025 16.625 -88.0625 16.625 C-88.0625 13.985 -88.0625 11.345 -88.0625 8.625 C-87.5625 6.125 -87.5625 6.125 -87.0625 4.625 C-88.3825 4.295 -89.7025 3.965 -91.0625 3.625 C-90.7325 1.975 -90.4025 0.325 -90.0625 -1.375 C-83.39583333 -1.375 -76.72916667 -1.375 -70.0625 -1.375 C-68.02651946 -1.38347348 -65.99053901 -1.39197286 -63.95455933 -1.40065002 C-60.52163397 -1.41390317 -57.08870331 -1.42212524 -53.65576172 -1.42993164 C-51.84000068 -1.4349872 -50.02424376 -1.44183016 -48.20849609 -1.45043945 C-45.5947164 -1.46250742 -42.98098986 -1.46822661 -40.3671875 -1.47265625 C-39.55055634 -1.47781754 -38.73392517 -1.48297882 -37.89254761 -1.48829651 C-35.9488315 -1.48849199 -34.00522535 -1.43705298 -32.0625 -1.375 C-30.09427114 0.59322886 -30.40001619 3.97308709 -30.0625 6.625 C-29.61519531 6.22667969 -29.16789063 5.82835937 -28.70703125 5.41796875 C-19.29985575 -2.82584602 -11.86103406 -5.32536223 0 0 Z " fill="#000000" transform="translate(733.0625,270.375)"/>
<path d="M0 0 C4.12520223 -0.22427912 8.24800057 -0.38658499 12.37792969 -0.49438477 C13.77894956 -0.53935538 15.17955386 -0.60056332 16.57910156 -0.67895508 C28.18092224 -1.31200735 28.18092224 -1.31200735 32.67480469 1.92919922 C34.70395679 4.1934753 36.38375263 6.42912537 38 9 C38.7425 10.0725 39.485 11.145 40.25 12.25 C41.11625 13.61125 41.11625 13.61125 42 15 C43.32810215 16.67083819 44.66172696 18.33729713 46 20 C48.475 23.465 48.475 23.465 51 27 C51.33 20.07 51.66 13.14 52 6 C49.525 5.505 49.525 5.505 47 5 C47.33 3.35 47.66 1.7 48 0 C52.95 0 57.9 0 63 0 C63.495 2.475 63.495 2.475 64 5 C62.02 5.99 62.02 5.99 60 7 C59.96241577 8.85516235 59.96241577 8.85516235 59.92407227 10.74780273 C59.83017747 15.31936713 59.72991371 19.89077318 59.62768555 24.4621582 C59.58426856 26.44389146 59.54259863 28.42566378 59.50268555 30.4074707 C59.44514617 33.2496317 59.38140555 36.09159483 59.31640625 38.93359375 C59.29133751 40.27108925 59.29133751 40.27108925 59.26576233 41.63560486 C59.11387171 47.88612829 59.11387171 47.88612829 58 49 C55.66015625 49.3125 55.66015625 49.3125 53 49 C51.18359375 47.375 51.18359375 47.375 49.4375 45 C48.76203125 44.09894531 48.0865625 43.19789063 47.390625 42.26953125 C47.01744141 41.75729004 46.64425781 41.24504883 46.25976562 40.71728516 C44.83633674 38.7768978 43.38112402 36.8628045 41.921875 34.94921875 C39.82040635 32.18317767 37.7194606 29.41689721 35.63671875 26.63671875 C35.20061279 26.05623779 34.76450684 25.47575684 34.31518555 24.87768555 C32.7625055 22.66092999 31.39245218 20.32075364 30 18 C29.67 26.25 29.34 34.5 29 43 C30.32 43.33 31.64 43.66 33 44 C33.5625 45.9375 33.5625 45.9375 34 48 C33 49 33 49 29.85717773 49.11352539 C28.46597303 49.11336633 27.07476239 49.10767506 25.68359375 49.09765625 C24.95253922 49.0962413 24.22148468 49.09482635 23.46827698 49.09336853 C21.12464368 49.08775408 18.78110461 49.07519922 16.4375 49.0625 C14.85221492 49.05748686 13.26692834 49.05292363 11.68164062 49.04882812 C7.7877239 49.03777997 3.89387795 49.02050572 0 49 C-0.33 47.35 -0.66 45.7 -1 44 C0.485 43.505 0.485 43.505 2 43 C2 30.79 2 18.58 2 6 C1.01 5.67 0.02 5.34 -1 5 C-0.67 3.35 -0.34 1.7 0 0 Z M14 6 C14 18.21 14 30.42 14 43 C15.32 43.66 16.64 44.32 18 45 C19.32 44.34 20.64 43.68 22 43 C22 30.79 22 18.58 22 6 C16.53915739 4.48534976 16.53915739 4.48534976 14 6 Z " fill="#000000" transform="translate(447,269)"/>
<path d="M0 0 C2 2 2 2 2.265625 4.3125 C2.26046875 5.199375 2.2553125 6.08625 2.25 7 C2.25773438 8.3303125 2.25773438 8.3303125 2.265625 9.6875 C2 12 2 12 0 14 C-2.4375 14.0625 -2.4375 14.0625 -5 13 C-6.625 9.5625 -6.625 9.5625 -8 6 C-12.38594439 3.07603707 -16.74613699 3.58179029 -21.7578125 4.51171875 C-22.49773438 4.67285156 -23.23765625 4.83398438 -24 5 C-27.21523225 13.47826122 -29.22544069 23.43618141 -25.625 32.125 C-23.29508744 36.67585744 -23.29508744 36.67585744 -19 39 C-17.43881572 39.06740865 -15.8749748 39.08514456 -14.3125 39.0625 C-12.889375 39.041875 -11.46625 39.02125 -10 39 C-9.67 34.71 -9.34 30.42 -9 26 C-10.32 25.67 -11.64 25.34 -13 25 C-12.67 23.68 -12.34 22.36 -12 21 C-9.93906592 20.776707 -7.8761161 20.57197113 -5.8125 20.375 C-4.66394531 20.25898438 -3.51539063 20.14296875 -2.33203125 20.0234375 C1.03330416 19.99976574 3.01221706 20.52580201 6 22 C5.67 23.32 5.34 24.64 5 26 C4.34 26 3.68 26 3 26 C3 31.28 3 36.56 3 42 C-7.09155572 46.11629246 -15.56577991 49.29633645 -26.3125 45.3125 C-33.53620986 42.06804815 -37.08931949 37.17682498 -40 30 C-42.47570538 21.63834607 -41.02910775 13.6541162 -37 6 C-32.58012118 0.58424974 -26.10021136 -2.63326288 -19.5625 -4.8125 C-12.26422766 -5.34651993 -6.19352503 -3.93593317 0 0 Z " fill="#000000" transform="translate(608,272)"/>
<path d="M0 0 C0 3.96 0 7.92 0 12 C-1.32 12.33 -2.64 12.66 -4 13 C-4.33773437 12.43410156 -4.67546875 11.86820312 -5.0234375 11.28515625 C-5.46945312 10.55167969 -5.91546875 9.81820313 -6.375 9.0625 C-6.81585937 8.33160156 -7.25671875 7.60070312 -7.7109375 6.84765625 C-8.8773984 4.86227728 -8.8773984 4.86227728 -11 4 C-15.65275976 3.6947378 -15.65275976 3.6947378 -20 5 C-20 7.31 -20 9.62 -20 12 C-19.20335937 12.31453125 -18.40671875 12.6290625 -17.5859375 12.953125 C-10.04889662 15.99728263 -3.44373655 18.74978397 2 25 C3.43819559 29.31458677 3.42844233 33.2005422 2.375 37.625 C-0.77231334 43.0612685 -5.61981008 45.87080893 -11.5 47.62890625 C-18.29002778 48.636801 -25.20943294 46.5048169 -31 43 C-32 42 -32 42 -32.09765625 39.27734375 C-32.08605469 38.17519531 -32.07445312 37.07304687 -32.0625 35.9375 C-32.05347656 34.83277344 -32.04445313 33.72804688 -32.03515625 32.58984375 C-32.02355469 31.73519531 -32.01195312 30.88054687 -32 30 C-29.525 29.505 -29.525 29.505 -27 29 C-26.16121545 30.28813342 -25.32913217 31.58063256 -24.5 32.875 C-24.0359375 33.59429687 -23.571875 34.31359375 -23.09375 35.0546875 C-22 37 -22 37 -22 39 C-17.71 39 -13.42 39 -9 39 C-9 36.36 -9 33.72 -9 31 C-9.78503906 30.61328125 -10.57007813 30.2265625 -11.37890625 29.828125 C-14.59400709 28.23438176 -17.79765994 26.61920574 -21 25 C-21.73089844 24.64421875 -22.46179688 24.2884375 -23.21484375 23.921875 C-27.53649266 21.69012633 -29.8903567 19.38805806 -32 15 C-32.6694784 11.12767605 -32.38756112 7.89750997 -30.8125 4.25 C-22.20564372 -6.43437331 -11.39916042 -6.59951393 0 0 Z " fill="#000000" transform="translate(544,272)"/>
<path d="M0 0 C2 2 2 2 2.1953125 4.8203125 C2.17210937 5.91085938 2.14890625 7.00140625 2.125 8.125 C2.10695313 9.22070312 2.08890625 10.31640625 2.0703125 11.4453125 C2.04710937 12.28835937 2.02390625 13.13140625 2 14 C0.35 14.33 -1.3 14.66 -3 15 C-3.39832031 14.16855469 -3.39832031 14.16855469 -3.8046875 13.3203125 C-4.15789063 12.59585938 -4.51109375 11.87140625 -4.875 11.125 C-5.22304688 10.40570313 -5.57109375 9.68640625 -5.9296875 8.9453125 C-6.96557543 6.84864981 -6.96557543 6.84864981 -9 5 C-12.38289437 4.4401133 -15.61612009 4.45333119 -19 5 C-22.77822197 8.40961495 -23.8958879 11.46562655 -24.23828125 16.51171875 C-24.43886089 24.18803041 -24.53115593 30.46980469 -20 37 C-16.05473406 38.97263297 -11.28860094 38.59045955 -7 38 C-4.08113411 35.58363062 -4.08113411 35.58363062 -2 33 C0.75835122 33 1.64976664 33.66161028 3.6171875 35.5625 C4.07351563 36.036875 4.52984375 36.51125 5 37 C-0.70518599 43.34701942 -6.08012891 48.00564288 -14.875 48.625 C-22.25368025 48.3066594 -27.64122855 44.20493853 -32.875 39.3125 C-36.61404661 33.48398616 -40.19958582 26.04756668 -39 19 C-36.76300835 11.59781975 -33.57035183 3.79914282 -26.7421875 -0.3828125 C-17.7982954 -4.39214344 -8.86511741 -4.16507672 0 0 Z " fill="#000000" transform="translate(736,214)"/>
<path d="M0 0 C0.73734375 0.00773437 1.4746875 0.01546875 2.234375 0.0234375 C3.34039063 0.01183594 3.34039063 0.01183594 4.46875 0 C9.9810554 0.0201179 9.9810554 0.0201179 12.234375 2.2734375 C11.859375 4.3984375 11.859375 4.3984375 11.234375 6.2734375 C10.244375 6.2734375 9.254375 6.2734375 8.234375 6.2734375 C8.3031033 11.50666125 8.39099494 16.73907451 8.49682617 21.97167969 C8.5301234 23.75251292 8.55814031 25.53345291 8.58081055 27.31445312 C8.61426932 29.87155749 8.66657801 32.42767926 8.72265625 34.984375 C8.72904617 35.78338226 8.7354361 36.58238953 8.74201965 37.40560913 C8.77391717 39.8863452 8.77391717 39.8863452 9.234375 43.2734375 C10.224375 43.9334375 11.214375 44.5934375 12.234375 45.2734375 C11.904375 46.5934375 11.574375 47.9134375 11.234375 49.2734375 C5.624375 49.2734375 0.014375 49.2734375 -5.765625 49.2734375 C-6.095625 47.6234375 -6.425625 45.9734375 -6.765625 44.2734375 C-5.280625 43.7784375 -5.280625 43.7784375 -3.765625 43.2734375 C-3.765625 31.0634375 -3.765625 18.8534375 -3.765625 6.2734375 C-4.755625 5.9434375 -5.745625 5.6134375 -6.765625 5.2734375 C-7.095625 4.2834375 -7.425625 3.2934375 -7.765625 2.2734375 C-5.20613501 -0.28605249 -3.49355305 0.01275019 0 0 Z " fill="#000000" transform="translate(554.765625,268.7265625)"/>
</svg>
