<?xml version="1.0" encoding="UTF-8"?>
<svg version="1.1" xmlns="http://www.w3.org/2000/svg" width="500" height="500">
<path d="M0 0 C28.92793293 -0.02332523 57.85586446 -0.04097732 86.78380489 -0.05181217 C89.45377033 -0.0528387 92.12373575 -0.05387339 94.79370117 -0.05493164 C95.45735534 -0.05519395 96.12100951 -0.05545626 96.80477441 -0.05572652 C107.56440169 -0.06008323 118.32402366 -0.06797078 129.08364778 -0.0771528 C140.11596341 -0.08648932 151.14827609 -0.09198071 162.18059546 -0.09408849 C168.38066064 -0.09539602 174.58071375 -0.09848448 180.78077507 -0.10573006 C186.60911186 -0.11248644 192.43743153 -0.11461774 198.26577187 -0.11310768 C200.41166654 -0.11338418 202.55756176 -0.11539156 204.70345306 -0.11920547 C207.61957918 -0.12413676 210.53563952 -0.12300039 213.45176697 -0.12025452 C214.31264465 -0.12316736 215.17352233 -0.1260802 216.06048721 -0.12908131 C221.88587879 -0.11412121 221.88587879 -0.11412121 223 1 C224.56070821 12.16747355 224.36096797 23.69896822 224.61254883 34.95141602 C224.68822001 38.21858712 224.77863364 41.48516341 224.86914062 44.75195312 C224.91757059 46.82810411 224.96512916 48.90427565 225.01171875 50.98046875 C225.05530769 52.44591377 225.05530769 52.44591377 225.09977722 53.94096375 C225.11672134 54.83982803 225.13366547 55.73869232 225.15112305 56.66479492 C225.17031296 57.45609299 225.18950287 58.24739105 225.20927429 59.06266785 C225 61 225 61 223 63 C220.6875 63.265625 220.6875 63.265625 218 63.25 C216.6696875 63.25773437 216.6696875 63.25773437 215.3125 63.265625 C213 63 213 63 211 61 C210.42504883 59.06738281 210.42504883 59.06738281 209.95703125 56.703125 C209.77414551 55.83308838 209.59125977 54.96305176 209.40283203 54.06665039 C209.20802246 53.13715576 209.01321289 52.20766113 208.8125 51.25 C206.36464596 40.37548716 203.32099884 27.9962542 193.82421875 21.0390625 C187.76806252 17.58951741 181.30629591 15.87155547 174.33659363 15.87974548 C172.97581192 15.87768349 172.97581192 15.87768349 171.58753967 15.87557983 C170.11371071 15.88097275 170.11371071 15.88097275 168.61010742 15.88647461 C167.56574524 15.88632858 166.52138306 15.88618256 165.44537354 15.8860321 C161.99871737 15.88672791 158.55211546 15.89450482 155.10546875 15.90234375 C152.71364878 15.90420911 150.32182842 15.90563246 147.93000793 15.90663147 C141.63850853 15.91044736 135.34703226 15.92026976 129.05554199 15.93133545 C121.50476815 15.94336922 113.95398656 15.94795623 106.40320587 15.95378876 C94.9354545 15.96348198 83.46775387 15.98264507 72 16 C72 45.37 72 74.74 72 105 C89.69625 104.9071875 89.69625 104.9071875 107.75 104.8125 C111.45186523 104.80581299 115.15373047 104.79912598 118.96777344 104.79223633 C122.3352692 104.76229549 122.3352692 104.76229549 125.70269775 104.72587585 C127.1829525 104.71294169 128.66331143 104.70949623 130.14361572 104.71403503 C141.15198535 104.73829057 150.95851692 103.75606115 159.9375 96.6875 C166.97577835 87.51641003 169.84319782 78.80433924 171.27734375 67.34765625 C172 65 172 65 173.7734375 63.16796875 C176.43204286 61.77336699 177.74772673 61.8029601 180.6875 62.25 C181.47511719 62.35828125 182.26273438 62.4665625 183.07421875 62.578125 C185 63 185 63 186 64 C186.10067034 67.09970764 186.136143 70.17717671 186.12939453 73.27734375 C186.13202301 74.73818893 186.13202301 74.73818893 186.13470459 76.22854614 C186.13912499 79.46488194 186.13618445 82.7011636 186.1328125 85.9375 C186.13348549 88.17569998 186.13445546 90.41389988 186.13571167 92.65209961 C186.1371889 97.34977919 186.13503329 102.0474398 186.13037109 106.74511719 C186.1246738 112.78160614 186.12795267 118.81805064 186.13394356 124.85453796 C186.1375485 129.47831561 186.13641089 134.10208264 186.13381577 138.7258606 C186.13314631 140.95232142 186.13397556 143.1787832 186.13629532 145.40524292 C186.13882074 148.51107355 186.1349828 151.6168311 186.12939453 154.72265625 C186.13141876 155.65256378 186.13344299 156.58247131 186.13552856 157.54055786 C186.11426227 163.88573773 186.11426227 163.88573773 185 165 C183.19072719 165.12487758 181.37603893 165.17570846 179.5625 165.1875 C178.57378906 165.20167969 177.58507812 165.21585938 176.56640625 165.23046875 C174 165 174 165 172 163 C171.35370203 160.20916786 170.78472138 157.4369215 170.25 154.625 C168.33656396 145.42659775 165.77410839 136.39355111 159 129.5 C135.58230597 114.86394123 89.90594667 123 72 123 C72 179.76 72 236.52 72 295 C89.634375 294.87625 107.26875 294.7525 125.4375 294.625 C130.99392334 294.59100098 136.55034668 294.55700195 142.27514648 294.52197266 C147.28059696 294.48203831 147.28059696 294.48203831 152.286026 294.43954468 C154.50560521 294.4219252 156.72521653 294.40809137 158.94483948 294.39730835 C162.31809962 294.38017145 165.6910609 294.35080772 169.06420898 294.31884766 C170.53330924 294.31558944 170.53330924 294.31558944 172.03208828 294.3122654 C180.39509054 294.21080988 187.62135421 293.11831393 195 289 C196.11375 288.5359375 196.11375 288.5359375 197.25 288.0625 C199.5135172 286.6882217 199.8854201 285.38838549 201 283 C201.37898437 282.27425781 201.75796875 281.54851562 202.1484375 280.80078125 C205.92986459 273.12954221 207.75880611 265.37324027 209.54443359 257.07275391 C211.69021739 247.30978261 211.69021739 247.30978261 213 246 C214.64230364 245.8754514 216.29052276 245.82431476 217.9375 245.8125 C218.83339844 245.79832031 219.72929687 245.78414062 220.65234375 245.76953125 C223 246 223 246 225 248 C225.21600342 250.53611755 225.21600342 250.53611755 225.16699219 253.77905273 C225.15327576 254.99048447 225.13955933 256.2019162 225.12542725 257.45005798 C225.099505 258.76462479 225.07358276 260.07919159 225.046875 261.43359375 C225.02578046 262.79117417 225.00530123 264.14876429 224.9854126 265.50636292 C224.94136326 268.35376389 224.88999407 271.20091531 224.83349609 274.0480957 C224.76164021 277.69760196 224.70760902 281.34711144 224.65903854 284.99699306 C224.61979511 287.80151638 224.57122145 290.60581851 224.51981354 293.4101429 C224.48478222 295.41034259 224.45752477 297.41067351 224.43035889 299.41099548 C224.40403381 300.62557938 224.37770874 301.84016327 224.35058594 303.09155273 C224.33122986 304.16251694 224.31187378 305.23348114 224.29193115 306.3368988 C224 309 224 309 222 312 C219.05624321 312.2963378 216.32254808 312.39530748 213.37620544 312.36749268 C212.02100291 312.37239594 212.02100291 312.37239594 210.63842255 312.37739825 C207.59268371 312.38471642 204.5474189 312.37048615 201.50170898 312.35644531 C199.32572345 312.35723565 197.14973805 312.35933125 194.97375488 312.36264038 C189.05037449 312.36778893 183.12716684 312.35421041 177.20381427 312.33711338 C171.01829103 312.32211823 164.83277042 312.32325239 158.64723206 312.32244873 C148.25901322 312.31875227 137.87086031 312.30376527 127.48266602 312.28125 C116.78409154 312.25810997 106.08556209 312.24382464 95.38696289 312.24023438 C94.07005445 312.23979228 92.75314601 312.23935019 91.39633125 312.2388947 C90.08512292 312.23845686 88.77391459 312.23801901 87.42297268 312.2375679 C75.96724393 312.23359386 64.51152683 312.22109096 53.0558064 312.20722103 C49.36150403 312.20311434 45.66720208 312.20019264 41.97289848 312.19742584 C36.17899612 312.19254645 30.38512627 312.18236616 24.59123993 312.16798782 C22.45824794 312.16345023 20.32525158 312.16062273 18.19225502 312.15958023 C15.29374056 312.15784509 12.39530858 312.1499903 9.49681091 312.14044189 C8.64118842 312.14130838 7.78556593 312.14217486 6.90401548 312.1430676 C1.11420718 312.11420718 1.11420718 312.11420718 0 311 C-0.09851171 309.16884117 -0.12972629 307.33380067 -0.125 305.5 C-0.12757812 304.4996875 -0.13015625 303.499375 -0.1328125 302.46875 C0 300 0 300 1 299 C4.25997176 298.49986486 7.52749432 298.09851694 10.80078125 297.6953125 C14.16589081 296.96394559 15.68827705 296.52861229 18 294 C20.21605969 288.02990221 20.28201958 282.47238231 20.25396729 276.15162659 C20.25708727 275.06914876 20.26020725 273.98667094 20.26342177 272.87139076 C20.27138956 269.24957271 20.26508275 265.62792277 20.25878906 262.00610352 C20.26149947 259.40724591 20.26506069 256.80838907 20.26940918 254.20953369 C20.27829342 247.88645404 20.27638541 241.56342192 20.2705839 235.24034042 C20.2660632 230.09993487 20.26545627 224.95954263 20.26763153 219.81913567 C20.267938 219.08692315 20.26824446 218.35471063 20.26856022 217.60030986 C20.26919968 216.11272144 20.26984811 214.62513303 20.2705054 213.13754462 C20.27620596 199.19434032 20.26965531 185.25116234 20.25890467 171.30796235 C20.24997127 159.35169805 20.25151998 147.39547259 20.26074219 135.43920898 C20.27145289 121.54671573 20.27565469 107.65424554 20.26951766 93.76174873 C20.26888058 92.27939252 20.26825184 90.79703631 20.26763153 89.3146801 C20.26732298 88.58538149 20.26701443 87.85608288 20.26669653 87.10468431 C20.26497185 81.97271829 20.26787983 76.84076693 20.27259064 71.70880318 C20.27879596 64.79690499 20.27435766 57.88508129 20.26280212 50.97319031 C20.26015821 48.43676818 20.26091605 45.90033988 20.26532745 43.36392021 C20.27079483 39.90098259 20.26393396 36.43827974 20.25396729 32.97535706 C20.25842873 31.97233333 20.26289017 30.9693096 20.26748681 29.93589121 C20.23592877 24.28011729 19.61180327 19.427735 18 14 C16.78441406 13.86722656 15.56882812 13.73445313 14.31640625 13.59765625 C12.73174516 13.41949909 11.1471111 13.24110125 9.5625 13.0625 C8.35883789 12.93198242 8.35883789 12.93198242 7.13085938 12.79882812 C1.11328125 12.11328125 1.11328125 12.11328125 0 11 C-0.07226502 9.14712498 -0.0838122 7.29166122 -0.0625 5.4375 C-0.05347656 4.42558594 -0.04445313 3.41367188 -0.03515625 2.37109375 C-0.02355469 1.58863281 -0.01195313 0.80617188 0 0 Z " fill="#000000" transform="translate(78,94)"/>
<path d="M0 0 C0.86445236 0.00202423 1.72890472 0.00404846 2.61955261 0.00613403 C3.52517441 0.00438171 4.4307962 0.00262939 5.36386108 0.00082397 C8.37293892 -0.00359597 11.3819585 -0.00065605 14.39103699 0.00271606 C16.47229524 0.00204307 18.55355342 0.00107308 20.6348114 -0.00018311 C25.00294236 -0.00166027 29.37105292 0.00049508 33.73918152 0.00515747 C39.35193252 0.01085477 44.96463571 0.00757586 50.57738495 0.00158501 C54.87690087 -0.0020201 59.17640537 -0.00088225 63.47592163 0.0017128 C65.5460816 0.00238221 67.61624259 0.00155316 69.68640137 -0.00076675 C72.57430285 -0.00329245 75.46212576 0.00054614 78.35002136 0.00613403 C79.21447372 0.0041098 80.07892609 0.00208557 80.96957397 0 C86.87052462 0.02126619 86.87052462 0.02126619 87.98478699 1.13552856 C88.18791199 3.13162231 88.18791199 3.13162231 88.23478699 5.57302856 C88.26056824 6.3761145 88.28634949 7.17920044 88.31291199 8.00662231 C88.20463074 8.70916138 88.09634949 9.41170044 87.98478699 10.13552856 C84.61094023 12.38475974 83.08175163 12.43742559 79.10978699 12.63552856 C73.28313405 12.92147918 73.28313405 12.92147918 67.98478699 15.13552856 C65.43800622 20.59199809 65.70495156 26.04894284 65.7308197 31.9395752 C65.72769972 33.0293657 65.72457974 34.1191562 65.72136521 35.24197066 C65.71338651 38.89453322 65.71970852 42.5469296 65.72599792 46.19949341 C65.72328798 48.81790769 65.71972703 51.43632121 65.71537781 54.05473328 C65.7064876 60.42941895 65.70840433 66.8040575 65.71420309 73.17874502 C65.71872183 78.36112716 65.71933156 83.54349612 65.71715546 88.72587967 C65.71669576 89.83272776 65.71669576 89.83272776 65.71622677 90.96193642 C65.71558731 92.46104037 65.71493888 93.96014432 65.71428159 95.45924826 C65.70857918 109.51499481 65.71513437 123.57071526 65.72588232 137.62645753 C65.73481404 149.67995001 65.73326875 161.73340396 65.7240448 173.78689575 C65.71333419 187.78961815 65.7091324 201.79231767 65.71526933 215.79504359 C65.71590641 217.28921103 65.71653515 218.78337848 65.71715546 220.27754593 C65.71746401 221.01266775 65.71777256 221.74778957 65.71809046 222.5051878 C65.7198153 227.67872023 65.71690676 232.85223811 65.71219635 238.02576828 C65.70599105 244.99428653 65.71042925 251.96273089 65.72198486 258.93124199 C65.72462891 261.48862652 65.72387072 264.04601718 65.71945953 266.60339928 C65.71399259 270.09485364 65.72085253 273.58607511 65.7308197 277.07751465 C65.72635826 278.08900239 65.72189682 279.10049014 65.71730018 280.14262903 C65.74871543 285.81849162 66.36491674 290.68913138 67.98478699 296.13552856 C73.68563042 297.51476488 79.16643784 298.44710401 85.01603699 298.88943481 C86.98478699 299.13552856 86.98478699 299.13552856 87.98478699 300.13552856 C88.0832987 301.9666874 88.11451328 303.8017279 88.10978699 305.63552856 C88.11365417 307.13599731 88.11365417 307.13599731 88.11759949 308.66677856 C87.98478699 311.13552856 87.98478699 311.13552856 86.98478699 312.13552856 C84.09335548 312.23076762 81.22586634 312.26105884 78.33415222 312.24905396 C76.97331009 312.24927299 76.97331009 312.24927299 75.5849762 312.24949646 C72.57108714 312.24879697 69.55725906 312.24100291 66.54338074 312.23318481 C64.45972731 312.23132076 62.37607345 312.2298968 60.29241943 312.22889709 C54.79655252 312.22507091 49.30071186 312.21523976 43.80485535 312.20419312 C38.20142471 312.19398116 32.59798986 312.18939994 26.99455261 312.18435669 C15.99128585 312.17361758 4.98803859 312.15653996 -6.01521301 312.13552856 C-8.44727373 307.58811574 -7.92529785 305.18236264 -7.01521301 300.13552856 C-4.6976648 297.81798035 0.54621805 298.22177583 3.68791199 297.83084106 C8.31186286 296.90615239 8.31186286 296.90615239 11.98478699 294.13552856 C14.06365225 286.94722247 14.27323612 279.55159486 14.23875427 272.12330627 C14.24187425 271.0714903 14.24499424 270.01967433 14.24820876 268.93598515 C14.25613121 265.44181289 14.24988765 261.94781709 14.24357605 258.4536438 C14.24628845 255.93625792 14.24985078 253.41887284 14.25419617 250.90148926 C14.26234929 244.79217826 14.26118348 238.68293169 14.25537089 232.57361989 C14.25084138 227.60590529 14.25024705 222.63820444 14.25241852 217.67048836 C14.25272498 216.96159814 14.25303145 216.25270792 14.2533472 215.52233617 C14.2539867 214.08194136 14.25463512 212.64154654 14.25529239 211.20115174 C14.26098561 197.71759365 14.25445341 184.23406283 14.24369165 170.75050921 C14.23475512 159.19629955 14.23631098 147.64213008 14.24552917 136.08792114 C14.25624629 122.64877714 14.26043842 109.20965698 14.25430465 95.7705093 C14.25366759 94.33592387 14.25303885 92.90133844 14.25241852 91.46675301 C14.25210997 90.76102865 14.25180142 90.0553043 14.25148351 89.32819436 C14.24976104 84.36944486 14.25266196 79.41071057 14.25737762 74.45196342 C14.26359142 67.77146174 14.25913064 61.09104741 14.24758911 54.41054916 C14.24494951 51.96204186 14.24569564 49.51352816 14.25011444 47.06502342 C14.25559881 43.71685257 14.24870059 40.36892281 14.23875427 37.02076721 C14.24321572 36.05742523 14.24767716 35.09408325 14.2522738 34.10154909 C14.21737022 28.02254856 13.86142327 21.96100576 11.98478699 16.13552856 C8.57329046 12.95027439 5.35380282 12.74849688 0.79728699 12.57302856 C-4.80570144 12.34504013 -4.80570144 12.34504013 -7.01521301 10.13552856 C-7.24568176 8.00662231 -7.24568176 8.00662231 -7.20271301 5.57302856 C-7.1962677 4.7673645 -7.18982239 3.96170044 -7.18318176 3.13162231 C-6.81907866 -1.19527729 -3.62481663 0.01306333 0 0 Z " fill="#000000" transform="translate(335.0152130126953,93.86447143554688)"/>
</svg>
