<?xml version="1.0" standalone="no"?>
<!DOCTYPE svg PUBLIC "-//W3C//DTD SVG 20010904//EN"
 "http://www.w3.org/TR/2001/REC-SVG-20010904/DTD/svg10.dtd">
<svg version="1.0" xmlns="http://www.w3.org/2000/svg"
 width="757.000000pt" height="329.000000pt" viewBox="0 0 757.000000 329.000000"
 preserveAspectRatio="xMidYMid meet">

<g transform="translate(0.000000,329.000000) scale(0.100000,-0.100000)"
fill="#000000" stroke="none">
<path d="M5494 2642 c-40 -26 -84 -88 -179 -251 -91 -157 -187 -356 -239 -491
-49 -131 -89 -205 -162 -304 -64 -86 -94 -112 -120 -102 -33 13 -15 87 73 296
92 218 160 358 233 485 89 154 100 177 94 201 -15 56 -138 71 -203 25 -31 -22
-117 -184 -219 -410 -42 -94 -42 -94 -63 -75 -32 29 -139 31 -211 4 -143 -53
-252 -175 -363 -405 -95 -195 -158 -269 -207 -243 -10 5 -18 20 -18 34 0 36
53 168 99 246 56 96 65 128 48 170 -9 22 -26 39 -46 48 -28 11 -38 10 -87 -9
-31 -11 -67 -21 -81 -21 -21 0 -24 4 -20 23 23 92 14 131 -36 155 -59 28 -155
-35 -194 -127 -22 -52 -22 -144 0 -168 9 -11 17 -25 17 -33 0 -39 -212 -350
-239 -350 -5 0 4 24 19 53 62 115 80 284 38 367 -56 109 -161 118 -287 25 -49
-36 -61 -41 -61 -27 0 34 -25 55 -66 55 -80 0 -98 -19 -183 -193 -43 -88 -81
-156 -85 -153 -3 4 -6 26 -6 50 0 58 -40 143 -87 184 -71 62 -160 90 -365 114
-180 21 -228 54 -228 155 0 81 36 149 123 234 80 78 154 126 239 156 160 56
268 23 244 -75 -6 -25 -19 -40 -69 -82 -33 -28 -25 -57 23 -90 88 -60 237 6
290 129 27 62 31 152 11 212 -19 55 -82 119 -144 147 -74 34 -265 34 -381 1
-162 -47 -292 -121 -414 -236 -117 -111 -177 -206 -221 -350 -46 -148 -18
-268 80 -346 68 -54 139 -77 287 -95 213 -27 250 -43 272 -123 54 -203 -316
-563 -619 -601 -68 -9 -144 -1 -180 18 -22 12 -51 70 -51 103 0 39 45 121 84
156 54 47 125 80 199 92 36 6 72 13 80 16 21 8 41 51 41 88 0 77 -64 120 -179
119 -220 0 -452 -184 -519 -412 -9 -31 -16 -91 -16 -137 0 -73 4 -89 32 -145
38 -72 97 -119 187 -147 85 -26 319 -23 424 6 237 65 462 210 641 413 33 38
61 67 63 66 1 -2 -24 -74 -57 -160 -105 -278 -116 -331 -83 -388 30 -50 131
-86 172 -60 7 5 17 30 22 57 7 37 119 417 155 523 4 11 9 10 27 -6 43 -40 83
-53 159 -53 118 0 218 39 343 135 151 115 216 195 346 425 50 89 51 90 90 90
21 0 39 -2 39 -4 0 -2 -22 -51 -50 -108 -105 -218 -105 -345 1 -401 42 -22
117 -18 181 11 44 20 103 72 149 130 l26 34 20 -38 c67 -131 253 -114 368 33
22 28 43 52 47 52 4 1 14 -14 22 -33 18 -43 54 -67 111 -74 66 -7 137 32 219
118 36 39 68 70 71 70 3 0 5 -9 5 -20 0 -11 15 -36 33 -56 67 -73 164 -55 264
49 70 72 116 141 180 270 l47 92 12 -40 c11 -37 10 -42 -12 -70 -95 -119 -182
-272 -198 -347 -10 -43 17 -95 58 -115 54 -25 79 -9 95 62 12 55 83 206 117
250 15 20 16 20 32 -3 39 -55 88 -104 116 -119 48 -25 126 -20 179 10 87 51
202 197 286 365 44 87 51 131 25 156 -34 35 -55 18 -126 -101 -76 -127 -159
-230 -193 -239 -16 -4 -34 0 -49 9 -23 16 -86 127 -86 153 0 6 65 74 145 149
197 187 229 239 190 314 -17 34 -49 45 -81 28 -12 -7 -62 -57 -110 -112 -142
-162 -185 -208 -190 -202 -6 5 -23 170 -24 220 0 15 -10 37 -21 48 -44 44
-128 0 -186 -99 -24 -41 -25 -47 -16 -114 9 -71 9 -72 -29 -152 -91 -187 -210
-305 -237 -234 -15 41 7 100 131 358 101 210 206 398 291 523 81 119 81 121
53 154 -31 36 -125 44 -172 15z m-858 -806 c8 -35 -11 -99 -63 -204 -93 -191
-233 -282 -233 -152 0 81 55 208 128 299 44 54 87 81 129 81 26 0 34 -5 39
-24z m-1416 -216 c20 -83 -62 -280 -155 -375 -45 -46 -59 -55 -88 -55 -52 0
-70 23 -65 82 9 91 138 303 218 356 44 29 82 26 90 -8z"/>
</g>
</svg>
