<?xml version="1.0" encoding="UTF-8"?>
<svg version="1.1" xmlns="http://www.w3.org/2000/svg" width="1010" height="240">
<path d="M0 0 C3.50746779 1.16915593 3.91948839 2.237281 5.54891968 5.40441895 C5.85761993 6.02892944 6.16632019 6.65343994 6.484375 7.296875 C6.81635895 7.94845581 7.1483429 8.60003662 7.49038696 9.2713623 C8.5859794 11.42644931 9.66778463 13.5881689 10.75 15.75 C11.51668718 17.26322964 12.28444145 18.77591907 13.05322266 20.28808594 C14.62370951 23.37889456 16.18984633 26.47184743 17.75292969 29.56640625 C20.91520868 35.81768085 24.14556216 42.0331886 27.375 48.25 C31.53552064 56.2808901 35.68099364 64.31932375 39.80859375 72.3671875 C40.22001617 73.16936203 40.6314386 73.97153656 41.05532837 74.79801941 C42.72336584 78.05063755 44.39127038 81.30332375 46.05883789 84.55618286 C50.45228197 93.12446519 54.86084552 101.68200334 59.375 110.1875 C60.48813244 112.30830503 61.59889482 114.43033517 62.70898438 116.55273438 C63.6860857 118.40494007 64.67360385 120.25165546 65.66601562 122.09570312 C67.50936565 125.53094726 69.31869041 128.98265941 71.125 132.4375 C71.70685059 133.50444092 72.28870117 134.57138184 72.88818359 135.6706543 C78.4918399 146.52742164 78.09458149 154.75585365 74.48858643 166.30076599 C73.83649876 168.30839248 73.1689695 170.31044214 72.5 172.3125 C72.04511892 173.71573549 71.59151975 175.11938713 71.13916016 176.5234375 C67.28588049 188.41330871 63.22318844 200.23668291 59 212 C58.34 212 57.68 212 57 212 C55.11472954 207.16652858 53.2308534 202.33251665 51.34814453 197.49804688 C50.71048586 195.86118699 50.07247783 194.22446316 49.43408203 192.58789062 C43.95473775 178.54005994 38.6401465 164.43772583 33.40625 150.296875 C26.29524904 131.08509269 19.10895105 111.91109242 11.60546875 92.84863281 C11.06609999 91.47603176 10.52702908 90.10331363 9.98828125 88.73046875 C9.60610947 87.7571611 9.60610947 87.7571611 9.21621704 86.76419067 C7.0017778 81.08514009 4.96459199 75.35042435 2.96948242 69.59106445 C2.24343619 67.10527938 2.24343619 67.10527938 1 66 C0.72438232 66.72662842 0.44876465 67.45325684 0.16479492 68.2019043 C-0.22603271 69.23226807 -0.61686035 70.26263184 -1.01953125 71.32421875 C-1.4585376 72.48163574 -1.89754395 73.63905273 -2.34985352 74.83154297 C-3.34370237 77.45170912 -4.33769899 80.07181915 -5.33178711 82.69189453 C-7.73914462 89.03720727 -10.14554316 95.38287238 -12.546875 101.73046875 C-18.31017907 116.95818815 -24.11649592 132.16925615 -29.9375 147.375 C-30.32520569 148.38813263 -30.71291138 149.40126526 -31.11236572 150.44509888 C-34.95788081 160.49203141 -38.80926408 170.53635226 -42.71875 180.55859375 C-42.99884415 181.2775885 -43.27893829 181.99658325 -43.56752014 182.73736572 C-44.83477026 185.98955669 -46.10584052 189.24006844 -47.38452148 192.48779297 C-49.89643756 198.92040022 -52.15336971 205.34402426 -54 212 C-54.99 212 -55.98 212 -57 212 C-57.39155273 210.73446289 -57.39155273 210.73446289 -57.79101562 209.44335938 C-58.79811404 206.19277728 -59.8073773 202.94288346 -60.81817627 199.69345093 C-61.27227907 198.23258624 -61.72569037 196.77150642 -62.17840576 195.31021118 C-64.50311183 187.8105859 -66.84987148 180.32939478 -69.4453125 172.91796875 C-69.81462891 171.85707031 -70.18394531 170.79617187 -70.56445312 169.703125 C-71.24904533 167.75651292 -71.94731742 165.81463287 -72.66210938 163.87890625 C-75.45104 155.92378605 -76.83861144 148.20028695 -73.09375 140.33203125 C-72.25141055 138.8129716 -71.38589046 137.30658034 -70.5 135.8125 C-69.56876013 134.14800297 -68.63909315 132.48262506 -67.7109375 130.81640625 C-67.2478418 130.00059082 -66.78474609 129.18477539 -66.30761719 128.34423828 C-64.4618961 125.03531112 -62.78753032 121.6535776 -61.125 118.25 C-55.14279672 106.15893693 -48.84535511 94.22251811 -42.51171875 82.3125 C-41.93442017 81.22666626 -41.93442017 81.22666626 -41.34545898 80.11889648 C-40.66346128 78.83864985 -39.97969478 77.55934191 -39.29321289 76.28149414 C-36.8898991 71.7770287 -34.60084273 67.21792016 -32.32421875 62.6484375 C-28.20119855 54.37383802 -23.9991637 46.14112721 -19.77319336 37.91870117 C-18.56546743 35.56827508 -17.3598065 33.2167978 -16.15429688 30.86523438 C-10.85117469 20.53296246 -5.45819708 10.25115853 0 0 Z " fill="#E6212B" transform="translate(274,14)"/>
<path d="M0 0 C5.61 0 11.22 0 17 0 C18.89808317 3.4571148 20.79351265 6.9156421 22.6875 10.375 C23.21794922 11.34050781 23.74839844 12.30601562 24.29492188 13.30078125 C24.82021484 14.26113281 25.34550781 15.22148437 25.88671875 16.2109375 C26.60154419 17.51490479 26.60154419 17.51490479 27.33081055 18.84521484 C29.63000177 23.1907098 31.80138195 27.60276389 34 32 C34 21.44 34 10.88 34 0 C39.61 0 45.22 0 51 0 C51 20.79 51 41.58 51 63 C34 63 34 63 30.3984375 59.73828125 C29.29296875 57.59179688 29.29296875 57.59179688 28.375 55.3125 C28.03339844 54.61060547 27.69179688 53.90871094 27.33984375 53.18554688 C26.18659605 50.80934968 25.09537429 48.40342433 24 46 C21.69 41.71 19.38 37.42 17 33 C17 42.9 17 52.8 17 63 C11.39 63 5.78 63 0 63 C0 42.21 0 21.42 0 0 Z M35 35 C36 37 36 37 36 37 Z " fill="#FFFFFF" transform="translate(491,131)"/>
<path d="M0 0 C5.28 0 10.56 0 16 0 C18.26285101 3.93128907 20.52402239 7.86344852 22.78100586 11.7980957 C23.54923914 13.13621957 24.31843826 14.47378943 25.08862305 15.81079102 C26.19574539 17.73308661 27.29937462 19.65735036 28.40234375 21.58203125 C28.74716293 22.17901321 29.09198212 22.77599518 29.44725037 23.3910675 C30.88923191 25.9141101 32.07767445 28.23302335 33 31 C33.33 20.77 33.66 10.54 34 0 C39.28 0 44.56 0 50 0 C50 20.79 50 41.58 50 63 C44.39 63 38.78 63 33 63 C31.04194715 59.5133367 29.08446557 56.026362 27.12841797 52.53857422 C26.46338571 51.35316636 25.79802501 50.1679427 25.13232422 48.98291016 C24.17328091 47.27555504 23.21553216 45.56747295 22.2578125 43.859375 C21.6817627 42.83295898 21.10571289 41.80654297 20.51220703 40.74902344 C19.28987525 38.52696081 18.13416553 36.26833107 17 34 C16.67 43.57 16.34 53.14 16 63 C10.72 63 5.44 63 0 63 C0 42.21 0 21.42 0 0 Z M15 29 C16 32 16 32 16 32 Z M34 33 C35 36 35 36 35 36 Z " fill="#FFFFFF" transform="translate(440,46)"/>
<path d="M0 0 C5.28 -0.061875 10.56 -0.12375 16 -0.1875 C17.65 -0.21481201 19.3 -0.24212402 21 -0.27026367 C36.60978769 -0.42402659 36.60978769 -0.42402659 43.0234375 4.578125 C48.3055841 11.11210981 49.85042386 17.69094066 49 26 C48.04104627 31.65877645 46.31665294 35.07504503 41.875 38.7734375 C41.15054688 39.38364746 40.42609375 39.99385742 39.6796875 40.62255859 C39.12539063 41.07711426 38.57109375 41.53166992 38 42 C38.41362793 42.4940332 38.82725586 42.98806641 39.25341797 43.49707031 C41.1313494 45.74468159 43.00321669 47.99726666 44.875 50.25 C45.85146484 51.41595703 45.85146484 51.41595703 46.84765625 52.60546875 C47.47285156 53.35957031 48.09804688 54.11367187 48.7421875 54.890625 C49.3182373 55.58188477 49.89428711 56.27314453 50.48779297 56.98535156 C51.94046629 58.9206858 52.99666143 60.8038512 54 63 C36.5665507 65.54789029 36.5665507 65.54789029 30.89208984 61.49414062 C27.33588804 57.74594404 24.65723505 53.46454861 22.22241211 48.92285156 C20.76271456 46.47288568 20.76271456 46.47288568 17 43 C17 49.6 17 56.2 17 63 C11.39 63 5.78 63 0 63 C0 42.21 0 21.42 0 0 Z M17 15 C17 19.62 17 24.24 17 29 C19.35125 29.061875 19.35125 29.061875 21.75 29.125 C22.63171875 29.14820313 23.5134375 29.17140625 24.421875 29.1953125 C27.1696498 28.98714774 28.71308907 28.51615603 31 27 C32.59152808 24.22556523 32.59152808 24.22556523 33 21 C31.69132936 18.05549106 30.90597137 16.45298569 28 15 C24.32984725 14.8622315 20.67388652 14.95728039 17 15 Z " fill="#FFFFFF" transform="translate(659,131)"/>
<path d="M0 0 C5.61 0 11.22 0 17 0 C17 7.92 17 15.84 17 24 C22.61 24 28.22 24 34 24 C34 16.08 34 8.16 34 0 C39.28 0 44.56 0 50 0 C50 20.79 50 41.58 50 63 C44.72 63 39.44 63 34 63 C34 55.41 34 47.82 34 40 C28.39 40 22.78 40 17 40 C17 47.59 17 55.18 17 63 C11.39 63 5.78 63 0 63 C0 42.21 0 21.42 0 0 Z " fill="#FFFFFF" transform="translate(550,46)"/>
<path d="M0 0 C14.85 0 29.7 0 45 0 C45 4.95 45 9.9 45 15 C35.76 15 26.52 15 17 15 C17 17.97 17 20.94 17 24 C25.25 24 33.5 24 42 24 C42 28.95 42 33.9 42 39 C33.75 39 25.5 39 17 39 C17 41.64 17 44.28 17 47 C26.24 47 35.48 47 45 47 C45 52.28 45 57.56 45 63 C30.15 63 15.3 63 0 63 C0 42.21 0 21.42 0 0 Z " fill="#FFFFFF" transform="translate(716,131)"/>
<path d="M0 0 C14.52 0 29.04 0 44 0 C44 4.95 44 9.9 44 15 C34.76 15 25.52 15 16 15 C16 17.97 16 20.94 16 24 C24.58 24 33.16 24 42 24 C42 28.95 42 33.9 42 39 C33.42 39 24.84 39 16 39 C16 41.64 16 44.28 16 47 C25.24 47 34.48 47 44 47 C44 52.28 44 57.56 44 63 C29.48 63 14.96 63 0 63 C0 42.21 0 21.42 0 0 Z " fill="#FFFFFF" transform="translate(441,131)"/>
<path d="M0 0 C5.61 0 11.22 0 17 0 C17.01458252 1.31718018 17.02916504 2.63436035 17.04418945 3.99145508 C17.10210713 8.87259238 17.17934036 13.75326518 17.26245117 18.6340332 C17.29573128 20.74756336 17.32375353 22.86118306 17.34643555 24.97485352 C17.37992472 28.01096806 17.43223764 31.04625975 17.48828125 34.08203125 C17.49467117 35.02899368 17.5010611 35.97595612 17.50764465 36.95161438 C17.53733589 38.27264412 17.53733589 38.27264412 17.56762695 39.62036133 C17.57873001 40.39535477 17.58983307 41.17034821 17.60127258 41.96882629 C18.10555673 44.53772086 18.94817332 45.41450359 21 47 C25.3260335 48.22257468 28.02934144 48.15550036 32 46 C33.15291684 43.69416631 33.15397338 42.30133113 33.20532227 39.73388672 C33.22526749 38.85312469 33.24521271 37.97236267 33.26576233 37.06491089 C33.29083107 35.63672531 33.29083107 35.63672531 33.31640625 34.1796875 C33.33718735 33.20589142 33.35796844 32.23209534 33.37937927 31.22879028 C33.44488598 28.11093353 33.50376497 24.99299097 33.5625 21.875 C33.60568415 19.76431396 33.6492984 17.65363667 33.69335938 15.54296875 C33.80056853 10.36206764 33.90183283 5.18108001 34 0 C39.61 0 45.22 0 51 0 C51.07444542 6.40459686 51.12874196 12.80893891 51.16479492 19.21386719 C51.17983299 21.39034415 51.20026873 23.56679105 51.22631836 25.74316406 C51.2629209 28.88093508 51.27977661 32.0183036 51.29296875 35.15625 C51.30845261 36.12115356 51.32393646 37.08605713 51.33988953 38.0802002 C51.34156201 44.87332138 50.57226877 50.6435754 46.30859375 56.20703125 C39.2153362 62.29331278 31.78589206 64.64293396 22.44140625 64.27734375 C15.22702003 63.45778947 10.23676764 60.86689609 4.7265625 56.20703125 C-0.28040748 49.80671894 -0.41770124 42.92917311 -0.29296875 35.15625 C-0.28872391 34.14655151 -0.28447906 33.13685303 -0.28010559 32.09655762 C-0.26342214 28.89742443 -0.22578903 25.69894017 -0.1875 22.5 C-0.17243982 20.32032165 -0.15875375 18.14063335 -0.14648438 15.9609375 C-0.11355245 10.64037807 -0.06184181 5.32029875 0 0 Z " fill="#FFFFFF" transform="translate(601,131)"/>
<path d="M0 0 C5.28 0 10.56 0 16 0 C18.57552132 7.1797449 21.14912045 14.36017332 23.71940422 21.54179478 C24.91315183 24.87700327 26.107717 28.21191404 27.30419922 31.54614258 C28.68184825 35.38534305 30.05585287 39.22583915 31.4296875 43.06640625 C32.07041702 44.84961021 32.07041702 44.84961021 32.72409058 46.6688385 C33.12435455 47.78947189 33.52461853 48.91010529 33.93701172 50.06469727 C34.28786835 51.04398697 34.63872498 52.02327667 35.00021362 53.03224182 C36.10795562 56.32045462 37.04677565 59.66371478 38 63 C32.06 63 26.12 63 20 63 C18.02 57.555 18.02 57.555 16 52 C10.72 51.67 5.44 51.34 0 51 C-0.99 54.96 -1.98 58.92 -3 63 C-8.94 63 -14.88 63 -21 63 C-19.5877737 55.9624661 -17.53688802 49.34414175 -15.15625 42.578125 C-14.78649048 41.51511169 -14.41673096 40.45209839 -14.0357666 39.35687256 C-12.86187538 35.98625518 -11.68090705 32.61816485 -10.5 29.25 C-9.70659513 26.97280815 -8.91362216 24.69546578 -8.12109375 22.41796875 C-7.36236353 20.24205344 -6.6032618 18.06626762 -5.84375 15.890625 C-5.31086365 14.3639621 -5.31086365 14.3639621 -4.76721191 12.80645752 C-4.43346558 11.85486755 -4.09971924 10.90327759 -3.75585938 9.92285156 C-3.46432983 9.09062073 -3.17280029 8.25838989 -2.87243652 7.40093994 C-1.96867015 4.91378046 -0.98280078 2.45700195 0 0 Z M8 20 C6.68 25.28 5.36 30.56 4 36 C6.64 36 9.28 36 12 36 C11.68806536 34.27073126 11.37542638 32.54158956 11.0625 30.8125 C10.80146484 29.36810547 10.80146484 29.36810547 10.53515625 27.89453125 C10.0476265 25.25760028 9.53328895 22.6280095 9 20 C8.67 20 8.34 20 8 20 Z " fill="#FFFFFF" transform="translate(398,46)"/>
<path d="M0 0 C3.2368886 2.0024211 5.79140362 4.47626657 8.3125 7.3125 C7.00068459 11.24794623 4.35291273 13.06188163 1.1640625 15.45703125 C-0.6875 16.3125 -0.6875 16.3125 -2.73828125 16.05078125 C-4.6875 15.3125 -4.6875 15.3125 -7.5 13.6875 C-11.36957649 12.01827093 -13.63252507 12.42040552 -17.6875 13.3125 C-18.0175 14.9625 -18.3475 16.6125 -18.6875 18.3125 C-15.10394505 20.68406653 -12.07397176 21.84000111 -7.875 22.6875 C-1.26306437 24.25091335 4.07419529 26.35216151 8.25 31.875 C10.70931686 37.51696221 11.34253037 43.47772478 9.734375 49.46484375 C7.22228184 55.41393709 2.93092247 58.3978235 -2.6875 61.3125 C-10.00884268 64.24103707 -17.45604744 64.37707591 -24.875 61.75 C-29.73194067 59.60926312 -33.51239348 56.58102069 -36.6875 52.3125 C-36.6875 50.3125 -36.6875 50.3125 -35.04296875 48.65625 C-34.32753906 48.0478125 -33.61210938 47.439375 -32.875 46.8125 C-32.16730469 46.2040625 -31.45960938 45.595625 -30.73046875 44.96875 C-28.6875 43.3125 -28.6875 43.3125 -25.6875 41.3125 C-24.90375 41.951875 -24.12 42.59125 -23.3125 43.25 C-19.7044036 46.08493289 -18.07445518 46.43284558 -13.5625 46.375 C-12.65242187 46.36597656 -11.74234375 46.35695312 -10.8046875 46.34765625 C-10.10601563 46.33605469 -9.40734375 46.32445312 -8.6875 46.3125 C-8.0275 44.9925 -7.3675 43.6725 -6.6875 42.3125 C-9.83022013 39.60377455 -12.39549813 38.74380607 -16.4375 37.9375 C-24.23455646 36.11184776 -30.18449804 33.15706298 -34.6875 26.3125 C-36.4816629 20.93001129 -36.62536953 14.62789864 -35.07421875 9.14453125 C-29.23898061 -2.50023913 -10.99442163 -5.24349339 0 0 Z " fill="#FFFFFF" transform="translate(801.6875,131.6875)"/>
<path d="M0 0 C5.94 0 11.88 0 18 0 C20.96882375 7.15663473 23.46183074 14.33110248 25.6875 21.75 C25.99494141 22.75160156 26.30238281 23.75320312 26.61914062 24.78515625 C28.04694394 29.50284335 29.37434053 34.09482972 30 39 C31.51765087 34.50349793 32.94961844 29.98400253 34.34765625 25.44921875 C34.792166 24.01492693 35.23683191 22.5806835 35.68164062 21.14648438 C36.37658837 18.90402412 37.07057815 16.66128618 37.76196289 14.41772461 C38.43352125 12.23983175 39.10898773 10.06318399 39.78515625 7.88671875 C40.09610985 6.87275276 40.09610985 6.87275276 40.41334534 5.83830261 C41.88632945 1.11367055 41.88632945 1.11367055 43 0 C44.34267413 -0.08631874 45.68974322 -0.10706473 47.03515625 -0.09765625 C47.84404297 -0.09443359 48.65292969 -0.09121094 49.48632812 -0.08789062 C50.33646484 -0.07951172 51.18660156 -0.07113281 52.0625 -0.0625 C52.91650391 -0.05798828 53.77050781 -0.05347656 54.65039062 -0.04882812 C56.76695663 -0.03700373 58.88348685 -0.01906769 61 0 C57.27751714 10.56791873 53.54886099 21.1336448 49.81402588 31.69720459 C49.03107314 33.91209728 48.24866434 36.12718153 47.46630859 38.34228516 C46.08549593 42.25037395 44.69939035 46.15656391 43.3125 50.0625 C42.68045654 51.85252441 42.68045654 51.85252441 42.03564453 53.67871094 C41.64876465 54.76571289 41.26188477 55.85271484 40.86328125 56.97265625 C40.52594971 57.92406494 40.18861816 58.87547363 39.84106445 59.85571289 C39 62 39 62 38 63 C35.46950598 63.07313567 32.96695163 63.09247527 30.4375 63.0625 C29.72658203 63.05798828 29.01566406 63.05347656 28.28320312 63.04882812 C26.52209987 63.03700864 24.76103964 63.01907263 23 63 C19.61283059 55.05513943 16.48274992 47.05730468 13.57421875 38.92578125 C13.18176468 37.83533005 12.78931061 36.74487885 12.38496399 35.62138367 C11.56599729 33.34388962 10.74847968 31.06587399 9.93237305 28.78735352 C8.67659766 25.28206796 7.41579196 21.77862132 6.15429688 18.27539062 C5.35647856 16.05479249 4.55894202 13.83409309 3.76171875 11.61328125 C3.19465462 10.03695671 3.19465462 10.03695671 2.61613464 8.42878723 C2.27189957 7.46655746 1.92766449 6.5043277 1.57299805 5.51293945 C1.268311 4.66310989 0.96362396 3.81328033 0.64970398 2.93769836 C0 1 0 1 0 0 Z " fill="#FFFFFF" transform="translate(376,131)"/>
<path d="M0 0 C16.5 0 33 0 50 0 C50 5.28 50 10.56 50 16 C44.39 16 38.78 16 33 16 C33 31.51 33 47.02 33 63 C27.72 63 22.44 63 17 63 C17 47.49 17 31.98 17 16 C11.39 16 5.78 16 0 16 C0 10.72 0 5.44 0 0 Z " fill="#FFFFFF" transform="translate(495,46)"/>
<path d="M0 0 C16.17 0 32.34 0 49 0 C49 4.95 49 9.9 49 15 C43.72 15 38.44 15 33 15 C33 30.84 33 46.68 33 63 C27.39 63 21.78 63 16 63 C16 47.16 16 31.32 16 15 C10.72 15 5.44 15 0 15 C0 10.05 0 5.1 0 0 Z " fill="#FFFFFF" transform="translate(547,131)"/>
<path d="M0 0 C5.61 0 11.22 0 17 0 C17 15.51 17 31.02 17 47 C25.25 47 33.5 47 42 47 C42 52.28 42 57.56 42 63 C28.14 63 14.28 63 0 63 C0 42.21 0 21.42 0 0 Z " fill="#FFFFFF" transform="translate(632,46)"/>
<path d="M0 0 C5.28 0 10.56 0 16 0 C16 15.51 16 31.02 16 47 C24.58 47 33.16 47 42 47 C42 52.28 42 57.56 42 63 C28.14 63 14.28 63 0 63 C0 42.21 0 21.42 0 0 Z " fill="#FFFFFF" transform="translate(679,46)"/>
<path d="M0 0 C5.28 0 10.56 0 16 0 C16 20.79 16 41.58 16 63 C10.72 63 5.44 63 0 63 C0 42.21 0 21.42 0 0 Z " fill="#FFFFFF" transform="translate(608,46)"/>
</svg>
