<?xml version="1.0" encoding="UTF-8"?>
<svg xmlns="http://www.w3.org/2000/svg" viewBox="260 0 240 230" width="240" height="230" aria-hidden="true" focusable="false">
  <!-- Red mark only (no wordmark) -->
  <path
    d="M0 0 C3.50746779 1.16915593 3.91948839 2.237281 5.54891968 5.40441895 C5.85761993 6.02892944 6.16632019 6.65343994 6.484375 7.296875 C6.81635895 7.94845581 7.1483429 8.60003662 7.49038696 9.2713623 C8.5859794 11.42644931 9.66778463 13.5881689 10.75 15.75 C11.51668718 17.26322964 12.28444145 18.77591907 13.05322266 20.28808594 C14.62370951 23.37889456 16.18984633 26.47184743 17.75292969 29.56640625 C20.91520868 35.81768085 24.14556216 42.0331886 27.375 48.25 C31.53552064 56.2808901 35.68099364 64.31932375 39.80859375 72.3671875 C40.22001617 73.16936203 40.6314386 73.97153656 41.05532837 74.79801941 C42.72336584 78.05063755 44.39127038 81.30332375 46.05883789 84.55618286 C50.45228197 93.12446519 54.86084552 101.68200334 59.375 110.1875 C60.48813244 112.30830503 61.59889482 114.43033517 62.70898438 116.55273438 C63.6860857 118.40494007 64.67360385 120.25165546 65.66601562 122.09570312 C67.50936565 125.53094726 69.31869041 128.98265941 71.125 132.4375 C71.70685059 133.50444092 72.28870117 134.57138184 72.88818359 135.6706543 C78.4918399 146.52742164 78.09458149 154.75585365 74.48858643 166.30076599 C73.83649876 168.30839248 73.1689695 170.31044214 72.5 172.3125 C72.04511892 173.71573549 71.59151975 175.11938713 71.13916016 176.5234375 C67.28588049 188.41330871 63.22318844 200.23668291 59 212 C58.34 212 57.68 212 57 212 C55.11472954 207.16652858 53.2308534 202.33251665 51.34814453 197.49804688 C50.71048586 195.86118699 50.07247783 194.22446316 49.43408203 192.58789062 C43.95473775 178.54005994 38.6401465 164.43772583 33.40625 150.296875 C26.29524904 131.08509269 19.10895105 111.91109242 11.60546875 92.84863281 C11.06609999 91.47603176 10.52702908 90.10331363 9.98828125 88.73046875 C9.60610947 87.7571611 9.60610947 87.7571611 9.21621704 86.76419067 C7.0017778 81.08514009 4.96459199 75.35042435 2.96948242 69.59106445 C2.24343619 67.10527938 2.24343619 67.10527938 1 66 C0.72438232 66.72662842 0.44876465 67.45325684 0.16479492 68.2019043 C-0.22603271 69.23226807 -0.61686035 70.26263184 -1.01953125 71.32421875 C-1.4585376 72.48163574 -1.89754395 73.63905273 -2.34985352 74.83154297 C-3.34370237 77.45170912 -4.33769899 80.07181915 -5.33178711 82.69189453 C-7.73914462 89.03720727 -10.14554316 95.38287238 -12.546875 101.73046875 C-18.31017907 116.95818815 -24.11649592 132.16925615 -29.9375 147.375 C-30.32520569 148.38813263 -30.71291138 149.40126526 -31.11236572 150.44509888 C-34.95788081 160.49203141 -38.80926408 170.53635226 -42.71875 180.55859375 C-42.99884415 181.2775885 -43.27893829 181.99658325 -43.56752014 182.73736572 C-44.83477026 185.98955669 -46.10584052 189.24006844 -47.38452148 192.48779297 C-49.89643756 198.92040022 -52.15336971 205.34402426 -54 212 C-54.99 212 -55.98 212 -57 212 C-57.39155273 210.73446289 -57.39155273 210.73446289 -57.79101562 209.44335938 C-58.79811404 206.19277728 -59.8073773 202.94288346 -60.81817627 199.69345093 C-61.27227907 198.23258624 -61.72569037 196.77150642 -62.17840576 195.31021118 C-64.50311183 187.8105859 -66.84987148 180.32939478 -69.4453125 172.91796875 C-69.81462891 171.85707031 -70.18394531 170.79617187 -70.56445312 169.703125 C-71.24904533 167.75651292 -71.94731742 165.81463287 -72.66210938 163.87890625 C-75.45104 155.92378605 -76.83861144 148.20028695 -73.09375 140.33203125 C-72.25141055 138.8129716 -71.38589046 137.30658034 -70.5 135.8125 C-69.56876013 134.14800297 -68.63909315 132.48262506 -67.7109375 130.81640625 C-67.2478418 130.00059082 -66.78474609 129.18477539 -66.30761719 128.34423828 C-64.4618961 125.03531112 -62.78753032 121.6535776 -61.125 118.25 C-55.14279672 106.15893693 -48.84535511 94.22251811 -42.51171875 82.3125 C-41.93442017 81.22666626 -41.93442017 81.22666626 -41.34545898 80.11889648 C-40.66346128 78.83864985 -39.97969478 77.55934191 -39.29321289 76.28149414 C-36.8898991 71.7770287 -34.60084273 67.21792016 -32.32421875 62.6484375 C-28.20119855 54.37383802 -23.9991637 46.14112721 -19.77319336 37.91870117 C-18.56546743 35.56827508 -17.3598065 33.2167978 -16.15429688 30.86523438 C-10.85117469 20.53296246 -5.45819708 10.25115853 0 0 Z"
    fill="#E6212B"
    transform="translate(274,14)"
  />
</svg>
