<svg width="1142" height="390" viewBox="0 0 1142 390" fill="none" xmlns="http://www.w3.org/2000/svg">
<path d="M172.5 386.5C139.833 386.5 110.333 379.833 84 366.5C58 352.833 37.5 332.667 22.5 306C7.5 279.333 6.78003e-07 246.5 6.78003e-07 207.5C6.78003e-07 168.5 7.5 134.833 22.5 106.5C37.8333 78.1667 58.6667 56.5 85 41.5C111.667 26.1667 142 18.5 176 18.5C215.333 18.5 245.5 24 266.5 35C287.5 46 298 62.3333 298 84C298 100.667 293.5 114.5 284.5 125.5C275.5 136.167 263.167 141.5 247.5 141.5C234.167 141.5 221.167 139.833 208.5 136.5C196.167 132.833 181.667 131 165 131C143.667 131 126.833 137.167 114.5 149.5C102.167 161.833 96 178 96 198C96 217.667 102.167 234.167 114.5 247.5C126.833 260.5 143.667 267 165 267C176.333 267 186.667 266.167 196 264.5C205.667 262.5 215 260.5 224 258.5C233.333 256.5 243.333 255.5 254 255.5C271.667 255.5 284.667 261.333 293 273C301.333 284.333 305.5 298.5 305.5 315.5C305.5 332.5 299.333 346.333 287 357C274.667 367.333 258.333 374.833 238 379.5C218 384.167 196.167 386.5 172.5 386.5ZM376.055 385.5C359.721 385.5 347.388 381.167 339.055 372.5C331.055 363.833 327.055 353 327.055 340V50C327.055 35.6667 331.055 23.8333 339.055 14.5C347.388 4.83332 359.721 -1.38283e-05 376.055 -1.38283e-05C390.721 -1.38283e-05 402.055 4.83332 410.055 14.5C418.055 23.8333 422.055 35.3333 422.055 49V340C422.055 353 418.055 363.833 410.055 372.5C402.055 381.167 390.721 385.5 376.055 385.5ZM451.566 66C451.566 51.6666 455.9 40.1667 464.566 31.5C473.566 22.5 485.9 18 501.566 18C518.233 18 530.566 22.3333 538.566 31C546.9 39.6666 551.066 51.1666 551.066 65.5C551.066 79.5 546.9 90.8333 538.566 99.5C530.566 107.833 518.233 112 501.566 112C485.233 112 472.733 107.833 464.066 99.5C455.733 90.8333 451.566 79.6666 451.566 66ZM501.566 385.5C485.9 385.5 474.233 381.167 466.566 372.5C458.9 363.833 455.066 353 455.066 340V169C455.066 154.667 458.9 143.333 466.566 135C474.233 126.667 485.9 122.5 501.566 122.5C517.233 122.5 528.9 126.667 536.566 135C544.566 143.333 548.566 154.333 548.566 168V340C548.566 353 544.4 363.833 536.066 372.5C528.066 381.167 516.566 385.5 501.566 385.5ZM624.125 385.5C609.458 385.5 597.792 381.167 589.125 372.5C580.458 363.5 576.125 352.5 576.125 339.5V50C576.125 36 580.292 24.1666 588.625 14.5C597.292 4.83332 609.458 -1.38283e-05 625.125 -1.38283e-05C640.458 -1.38283e-05 651.958 4.83332 659.625 14.5C667.625 24.1666 671.625 36.1666 671.625 50.5V202L673.125 202.5C674.792 188.5 679.125 175.667 686.125 164C693.125 152 702.958 142.333 715.625 135C728.292 127.667 743.792 124 762.125 124C786.792 124 806.625 130.833 821.625 144.5C836.625 158.167 844.125 176.833 844.125 200.5C844.125 216.833 840.792 229.833 834.125 239.5C827.792 248.833 819.125 255.333 808.125 259C797.125 262.667 784.958 264.333 771.625 264V272.5C801.292 272.5 822.292 278.5 834.625 290.5C847.292 302.167 853.625 317 853.625 335C853.625 351.667 848.625 364.5 838.625 373.5C828.625 382.5 816.625 386.833 802.625 386.5C787.292 386.167 774.625 381.667 764.625 373C754.625 364.333 746.292 352.667 739.625 338L718.125 292.5C713.792 283.5 708.125 277 701.125 273C694.458 269 684.625 267.5 671.625 268.5V339.5C671.625 352.5 667.292 363.5 658.625 372.5C650.292 381.167 638.792 385.5 624.125 385.5ZM682.125 234.5C682.125 239.167 684.458 242.667 689.125 245C694.125 247 704.292 248 719.625 248C734.625 248 744.625 247 749.625 245C754.625 243 757.125 239.5 757.125 234.5C757.125 229.833 754.625 226.333 749.625 224C744.625 221.667 734.792 220.5 720.125 220.5C704.458 220.5 694.125 221.667 689.125 224C684.458 226.333 682.125 229.833 682.125 234.5ZM962.977 385.5C902.31 385.5 871.977 340.833 871.977 251.5C871.977 212.833 879.477 182 894.477 159C909.477 135.667 931.977 124 961.977 124C978.31 124 991.477 127.333 1001.48 134C1011.81 140.667 1019.81 149.833 1025.48 161.5C1031.48 172.833 1035.81 186 1038.48 201L1039.98 200.5V49C1039.98 35.3333 1043.98 23.8333 1051.98 14.5C1060.31 4.83332 1072.31 -1.38283e-05 1087.98 -1.38283e-05C1103.31 -1.38283e-05 1114.64 4.83332 1121.98 14.5C1129.64 23.8333 1133.48 35.6667 1133.48 50V275C1133.48 286.333 1134.31 296.833 1135.98 306.5C1137.98 315.833 1139.48 325.167 1140.48 334.5C1141.48 347.167 1138.81 358.167 1132.48 367.5C1126.48 376.5 1115.64 382.333 1099.98 385C1079.64 388.333 1064.48 384.833 1054.48 374.5C1044.81 364.167 1039.98 348.833 1039.98 328.5V310H1030.48C1030.48 334.333 1024.31 353 1011.98 366C999.977 379 983.643 385.5 962.977 385.5ZM955.477 247C955.477 257.333 958.643 265 964.977 270C971.31 275 982.643 277.5 998.977 277.5C1015.64 277.5 1027.14 275 1033.48 270C1039.81 265 1042.98 257.333 1042.98 247C1042.98 236.333 1039.81 228.667 1033.48 224C1027.48 219 1016.14 216.5 999.477 216.5C982.81 216.5 971.31 219 964.977 224C958.643 228.667 955.477 236.333 955.477 247Z" fill="white"/>
</svg>
